SubSource-HROTdd_VROTdd.ufo
<glyph name="exclam" format="2">
  <advance width="261"/>
  <unicode hex="0021"/>
  <outline>
    <contour>
      <point x="177" y="640" type="curve" smooth="yes"/>
      <point x="177" y="599"/>
      <point x="177" y="567"/>
      <point x="177" y="539" type="curve" smooth="yes"/>
      <point x="177" y="468"/>
      <point x="177" y="411"/>
      <point x="177.0" y="372" type="curve" smooth="yes"/>
      <point x="177" y="332"/>
      <point x="177" y="328"/>
      <point x="177" y="285" type="curve" smooth="yes"/>
      <point x="177" y="218"/>
      <point x="87" y="218"/>
      <point x="87" y="285" type="curve" smooth="yes"/>
      <point x="87" y="326"/>
      <point x="87" y="343"/>
      <point x="87.0" y="373" type="curve" smooth="yes"/>
      <point x="87" y="435"/>
      <point x="87" y="492"/>
      <point x="87" y="539" type="curve" smooth="yes"/>
      <point x="87" y="567"/>
      <point x="87" y="599"/>
      <point x="87" y="640" type="curve" smooth="yes"/>
      <point x="87" y="708"/>
      <point x="177" y="708"/>
    </contour>
    <contour>
      <point x="89" y="36" type="curve" smooth="yes"/>
      <point x="89.0" y="66.0"/>
      <point x="89.0" y="59.0"/>
      <point x="89" y="90" type="curve" smooth="yes"/>
      <point x="89.0" y="157.0"/>
      <point x="179.0" y="157.0"/>
      <point x="179" y="90" type="curve" smooth="yes"/>
      <point x="179.0" y="59.0"/>
      <point x="179.0" y="66.0"/>
      <point x="179" y="36" type="curve" smooth="yes"/>
      <point x="179.0" y="-32.0"/>
      <point x="89.0" y="-32.0"/>
    </contour>
  </outline>
</glyph>
<glyph name="quotedbl" format="2">
  <advance width="496"/>
  <unicode hex="0022"/>
  <outline>
    <contour>
      <point x="102.9999957962797" y="437.9999957658179" type="curve" smooth="yes"/>
      <point x="102.99998964300786" y="639.9999926891819" type="line" smooth="yes"/>
      <point x="102.99998758684026" y="707.4999926891819"/>
      <point x="192.9999875868402" y="707.4999954307386"/>
      <point x="192.9999896430078" y="639.9999954307386" type="curve" smooth="yes"/>
      <point x="192.99999579627965" y="437.99999850737464" type="line" smooth="yes"/>
      <point x="192.99999785244725" y="370.4999985073747"/>
      <point x="102.99999785244731" y="370.49999576581797"/>
    </contour>
    <contour>
      <point x="302.9999927501055" y="437.9999957658179" type="curve" smooth="yes"/>
      <point x="302.99998659683365" y="639.9999926891819" type="line" smooth="yes"/>
      <point x="302.99998454066605" y="707.4999926891819"/>
      <point x="392.99998454066605" y="707.4999954307386"/>
      <point x="392.99998659683365" y="639.9999954307386" type="curve" smooth="yes"/>
      <point x="392.9999927501055" y="437.99999850737464" type="line" smooth="yes"/>
      <point x="392.9999948062731" y="370.4999985073747"/>
      <point x="302.9999948062731" y="370.49999576581797"/>
    </contour>
  </outline>
</glyph>
<glyph name="dollar" format="2">
  <advance width="500"/>
  <unicode hex="0024"/>
  <outline>
    <contour>
      <point x="185.10424348427387" y="-56.938921673523055" type="curve" smooth="yes"/>
      <point x="194.1042393262461" y="75.06107631600202" type="line" smooth="yes"/>
      <point x="198.69584973360665" y="142.40472571122723"/>
      <point x="288.48738226057367" y="136.28257850141324"/>
      <point x="283.8957718532131" y="68.93892910618803" type="curve" smooth="yes"/>
      <point x="274.8957760112408" y="-63.06106888333704" type="line" smooth="yes"/>
      <point x="270.3041656038803" y="-130.40471827856226"/>
      <point x="180.51263307691337" y="-124.28257106874828"/>
    </contour>
    <contour>
      <point x="228.11256020223823" y="606.1809921400124" type="curve" smooth="yes"/>
      <point x="237.11255619651917" y="733.1809902056918" type="line" smooth="yes"/>
      <point x="241.884052471284" y="800.5121332473773"/>
      <point x="331.6589098601979" y="794.1501382143574"/>
      <point x="326.8874135854331" y="726.818995172672" type="curve" smooth="yes"/>
      <point x="317.88741759115214" y="599.8189971069926" type="line" smooth="yes"/>
      <point x="313.1159213163873" y="532.4878540653071"/>
      <point x="223.34106392747339" y="538.849849098327"/>
    </contour>
    <contour>
      <point x="107.30407465419809" y="147.1091386644025" type="curve" smooth="yes"/>
      <point x="205.63636759035612" y="103.32614751294588"/>
      <point x="376.0000017999923" y="105.4097394451956"/>
      <point x="375.9999989795316" y="197.99999942122685" type="curve" smooth="yes"/>
      <point x="375.9999953997799" y="315.5163086156579"/>
      <point x="56.000001220362186" y="284.43787733255647"/>
      <point x="55.999995324122686" y="477.999995156583" type="curve" smooth="yes"/>
      <point x="55.9999907434846" y="628.3734672423346"/>
      <point x="263.5507180478564" y="695.4455938777517"/>
      <point x="430.49076169307835" y="610.0640461680454" type="curve" smooth="yes"/>
      <point x="490.5868382559644" y="579.3278853513827"/>
      <point x="449.6052905004143" y="499.19978326753477"/>
      <point x="389.5092139375283" y="529.9359440841973" type="curve" smooth="yes"/>
      <point x="296.370127528378" y="577.5719646352736"/>
      <point x="145.99999276849584" y="561.8962728985424"/>
      <point x="145.99999532412264" y="477.99999789813984" type="curve" smooth="yes"/>
      <point x="145.9999987670247" y="364.9761952228007"/>
      <point x="465.9999928489248" y="399.25593971564575"/>
      <point x="465.9999989795316" y="198.00000216278374" type="curve" smooth="yes"/>
      <point x="466.0000039446673" y="35.004218247173675"/>
      <point x="243.79999095577386" y="-12.184660005448235"/>
      <point x="70.6959390231239" y="64.89086572208832" type="curve" smooth="yes"/>
      <point x="9.032234316388198" y="92.34696744539387"/>
      <point x="45.64036994746239" y="174.56524038770806"/>
    </contour>
  </outline>
</glyph>
<glyph name="percent" format="2">
  <advance width="1023"/>
  <unicode hex="0025"/>
  <outline>
    <contour>
      <point x="709.5832433488787" y="3.9665149504135613" type="curve" smooth="yes"/>
      <point x="645.8683200815927" y="32.57814766603847"/>
      <point x="603.0209464355055" y="100.19625852178022"/>
      <point x="603.0209438211361" y="186.020943554915" type="curve" smooth="yes"/>
      <point x="603.0209403509573" y="299.9401938358614"/>
      <point x="677.8689084791329" y="382.0209426258318"/>
      <point x="784.0209371500148" y="382.0209426258318" type="curve" smooth="yes"/>
      <point x="890.1184530871884" y="382.0209426258318"/>
      <point x="967.0209361794808" y="299.88169510709696"/>
      <point x="967.0209396478776" y="186.0209462964717" type="curve" smooth="yes"/>
      <point x="967.0209422583293" y="100.32486966105954"/>
      <point x="923.06566554651" y="32.26714870529473"/>
      <point x="856.842571565011" y="3.698390557031921" type="curve" smooth="yes"/>
      <point x="794.8639727784191" y="-23.039284967416172"/>
      <point x="759.2137387458217" y="59.598846748039705"/>
      <point x="821.1923375324136" y="86.3365222724878" type="curve" smooth="yes"/>
      <point x="856.8266957774466" y="101.70924651813098"/>
      <point x="877.0209410525504" y="139.9082582147647"/>
      <point x="877.0209396478776" y="186.02094355491496" type="curve" smooth="yes"/>
      <point x="877.0209377580702" y="248.05966295126572"/>
      <point x="841.8297438602507" y="292.0209426258318"/>
      <point x="784.0209371500148" y="292.0209426258318" type="curve" smooth="yes"/>
      <point x="726.2988003004652" y="292.0209426258318"/>
      <point x="693.0209419341619" y="247.96665413501262"/>
      <point x="693.0209438211361" y="186.02094629647166" type="curve" smooth="yes"/>
      <point x="693.0209452203347" y="140.0879704734035"/>
      <point x="712.3517358894386" y="101.38121182392773"/>
      <point x="746.4516691297994" y="86.06839787910616" type="curve" smooth="yes"/>
      <point x="808.0280813263188" y="58.417078543415705"/>
      <point x="771.1596555453981" y="-23.68480438527689"/>
    </contour>
    <contour>
      <point x="418.8559820820083" y="516.8260980399996" type="curve" smooth="yes"/>
      <point x="430.4355227504899" y="380.5022546540453"/>
      <point x="340.62413670926776" y="297.02094254967744"/>
      <point x="239.0209452985307" y="297.02094254967744" type="curve" smooth="yes"/>
      <point x="131.73686811398548" y="297.02094254967744"/>
      <point x="57.02094621990629" y="380.2739654633253"/>
      <point x="57.020942754975316" y="494.02093886380675" type="curve" smooth="yes"/>
      <point x="57.02093928657854" y="607.8816876744323"/>
      <point x="132.92696830097796" y="690.0234467467153"/>
      <point x="239.02200018138714" y="690.0209379221421" type="curve" smooth="yes"/>
      <point x="317.3527187284278" y="690.0190856390706"/>
      <point x="390.27764581270446" y="647.2874431600611"/>
      <point x="511.7393693181834" y="648.0040982731922" type="curve" smooth="yes"/>
      <point x="768.0008816211657" y="649.5161064827774"/>
      <point x="842.3835775645326" y="748.9872063071498"/>
      <point x="642.1493218303827" y="456.5949119133571" type="curve" smooth="yes"/>
      <point x="564.0115973588096" y="342.49421294361156"/>
      <point x="513.2591601988892" y="270.3131723314432"/>
      <point x="433.96168228823643" y="156.32304365299413" type="curve" smooth="yes"/>
      <point x="401.09542780266446" y="109.0778010967271"/>
      <point x="364.6859359710376" y="60.93009544847787"/>
      <point x="331.843863686415" y="14.156715433580285" type="curve" smooth="yes"/>
      <point x="293.05537009427877" y="-41.08550360994484"/>
      <point x="219.39907803624527" y="10.63248784623675"/>
      <point x="258.1875716283815" y="65.87470688976187" type="curve" smooth="yes"/>
      <point x="291.14709005673393" y="112.8153526321188"/>
      <point x="327.33191585990863" y="160.6431671041078"/>
      <point x="360.08021324362704" y="207.71884632023952" type="curve" smooth="yes"/>
      <point x="439.21169060067314" y="321.47034919412465"/>
      <point x="489.9183973540829" y="393.5851272229232"/>
      <point x="567.8925490883934" y="507.4469689213539" type="curve" smooth="yes"/>
      <point x="626.2571394207616" y="592.6739267965963"/>
      <point x="586.9658846738855" y="558.4463873073807"/>
      <point x="512.2703830042087" y="558.0056648175745" type="curve" smooth="yes"/>
      <point x="371.5513332084287" y="557.175386573198"/>
      <point x="306.631039987528" y="600.0193391489754"/>
      <point x="239.0198719558588" y="600.0209379473051" type="curve" smooth="yes"/>
      <point x="181.24132244744757" y="600.022304234135"/>
      <point x="147.0209408661127" y="556.028641642016"/>
      <point x="147.02094275497527" y="494.0209416053635" type="curve" smooth="yes"/>
      <point x="147.02094464664805" y="431.92098825778305"/>
      <point x="180.4493983911537" y="387.02094254967744"/>
      <point x="239.0209452985307" y="387.02094254967744" type="curve" smooth="yes"/>
      <point x="295.2168883974683" y="387.02094254967744"/>
      <point x="335.583467480464" y="433.80913208230174"/>
      <point x="329.1789126679361" y="509.20880053342495" type="curve" smooth="yes"/>
      <point x="323.46593953800516" y="576.4666025939791"/>
      <point x="413.14300895207737" y="584.0839001005538"/>
    </contour>
  </outline>
</glyph>
<glyph name="ampersand" format="2">
  <advance width="634"/>
  <unicode hex="0026"/>
  <outline>
    <contour>
      <point x="575.9999930699538" y="302.99999850737464" type="curve" smooth="yes"/>
      <point x="377.9999960856662" y="302.99999850737464" type="line" smooth="yes"/>
      <point x="233.76330069775236" y="302.99999850737464"/>
      <point x="153.00000264536885" y="267.6576626174396"/>
      <point x="153.0000053155739" y="180.00000243693935" type="curve" smooth="yes"/>
      <point x="153.00000728425104" y="115.37214356067132"/>
      <point x="209.41840588778743" y="79.00000328986813"/>
      <point x="288.00000702143143" y="79.00000328986812" type="curve" smooth="yes"/>
      <point x="370.9706778920397" y="79.0000032898681"/>
      <point x="426.0000016035756" y="120.35772025790548"/>
      <point x="425.99999923845644" y="197.9999994212269" type="curve" smooth="yes"/>
      <point x="425.00029283552124" y="470.8351612042262" type="line" smooth="yes"/>
      <point x="424.7530396908943" y="538.3347083573922"/>
      <point x="514.7524358951156" y="538.6643792168948"/>
      <point x="514.9996890397425" y="471.1648320637288" type="curve" smooth="yes"/>
      <point x="515.9999992384564" y="198.0000021627837" type="line" smooth="yes"/>
      <point x="516.0000030845231" y="71.74108438675468"/>
      <point x="422.92375248797225" y="-10.999996710131896"/>
      <point x="288.00000702143143" y="-10.999996710131882" type="curve" smooth="yes"/>
      <point x="153.07201214529755" y="-10.999996710131867"/>
      <point x="63.00000869587748" y="69.03118147949662"/>
      <point x="63.00000531557395" y="179.99999969538257" type="curve" smooth="yes"/>
      <point x="63.00000132755916" y="310.91880162861185"/>
      <point x="162.57905835917057" y="392.99999850737464"/>
      <point x="377.9999960856662" y="392.99999850737464" type="curve" smooth="yes"/>
      <point x="575.9999930699538" y="392.99999850737464" type="line" smooth="yes"/>
      <point x="643.4999930699538" y="392.99999850737464"/>
      <point x="643.4999930699538" y="302.99999850737464"/>
    </contour>
    <contour>
      <point x="414.09696154542155" y="578.9037500738381" type="curve" smooth="yes"/>
      <point x="312.65853638856686" y="617.2249324698809"/>
      <point x="169.99999196729368" y="609.698191639683"/>
      <point x="169.99999521750655" y="502.99999751736806" type="curve" smooth="yes"/>
      <point x="169.99999733990302" y="433.32583180573323"/>
      <point x="244.07076643996825" y="392.99999850737464"/>
      <point x="377.9999960856662" y="392.99999850737464" type="curve" smooth="yes"/>
      <point x="445.4999960856662" y="392.99999850737464"/>
      <point x="445.4999960856662" y="302.99999850737464"/>
      <point x="377.9999960856662" y="302.99999850737464" type="curve" smooth="yes"/>
      <point x="168.77171650095386" y="302.99999850737464"/>
      <point x="79.99999853317834" y="394.15291291093195"/>
      <point x="79.99999521750661" y="502.9999947758112" type="curve" smooth="yes"/>
      <point x="79.99998986317857" y="678.7722136404789"/>
      <point x="278.7956193125999" y="726.22569751287"/>
      <point x="445.9030124097893" y="663.0962386248558" type="curve" smooth="yes"/>
      <point x="509.0473788230526" y="639.2417004765799"/>
      <point x="477.24132795868485" y="555.0492119255622"/>
    </contour>
  </outline>
</glyph>
<glyph name="parenright" format="2">
  <advance width="452"/>
  <unicode hex="0029"/>
  <outline>
    <contour>
      <point x="72.33771020078811" y="790.3582983898854" type="curve" smooth="yes"/>
      <point x="231.01618038233943" y="746.2809459346413"/>
      <point x="382.29373714729525" y="584.789254797268"/>
      <point x="382.2937456397017" y="306.0000005178496" type="curve" smooth="yes"/>
      <point x="382.2937541321081" y="27.21074623843134"/>
      <point x="231.01620475347175" y="-134.2809475879372"/>
      <point x="72.33773725726628" y="-178.3583000431812" type="curve" smooth="yes"/>
      <point x="7.300278396666556" y="-196.42426099065912"/>
      <point x="-16.787669533304012" y="-109.70764917652613"/>
      <point x="48.249789327295716" y="-91.64168822904821" type="curve" smooth="yes"/>
      <point x="177.44282448613683" y="-55.75473371459817"/>
      <point x="292.29375255405984" y="79.01501047239613"/>
      <point x="292.2937456397017" y="305.9999977762928" type="curve" smooth="yes"/>
      <point x="292.29373872534353" y="532.9849850801895"/>
      <point x="177.4427999944609" y="667.7547319561791"/>
      <point x="48.249762649261555" y="703.641686470629" type="curve" smooth="yes"/>
      <point x="-16.787696290180676" y="721.7076471342739"/>
      <point x="7.300251261345878" y="808.4242590535302"/>
    </contour>
  </outline>
</glyph>
<glyph name="asterisk" format="2">
  <advance width="614"/>
  <unicode hex="002A"/>
  <outline>
    <contour>
      <point x="229" y="669" type="curve" smooth="yes"/>
      <point x="301" y="543"/>
      <point x="373" y="418"/>
      <point x="439" y="302" type="curve" smooth="yes"/>
      <point x="473" y="244"/>
      <point x="394" y="199"/>
      <point x="361" y="258" type="curve" smooth="yes"/>
      <point x="289" y="384"/>
      <point x="217" y="509"/>
      <point x="151" y="625" type="curve" smooth="yes"/>
      <point x="117" y="683"/>
      <point x="196" y="728"/>
    </contour>
    <contour>
      <point x="439" y="625" type="curve" smooth="yes"/>
      <point x="373" y="509"/>
      <point x="301" y="384"/>
      <point x="229" y="258" type="curve" smooth="yes"/>
      <point x="196" y="199"/>
      <point x="117" y="244"/>
      <point x="151" y="302" type="curve" smooth="yes"/>
      <point x="217" y="418"/>
      <point x="289" y="543"/>
      <point x="361" y="669" type="curve" smooth="yes"/>
      <point x="394" y="728"/>
      <point x="473" y="683"/>
    </contour>
    <contour>
      <point x="505" y="419" type="curve" smooth="yes"/>
      <point x="336" y="419"/>
      <point x="199" y="419"/>
      <point x="85" y="419" type="curve" smooth="yes"/>
      <point x="17" y="419"/>
      <point x="18" y="509"/>
      <point x="85" y="509" type="curve" smooth="yes"/>
      <point x="254" y="509"/>
      <point x="391" y="509"/>
      <point x="505" y="509" type="curve" smooth="yes"/>
      <point x="573" y="509"/>
      <point x="573" y="419"/>
    </contour>
  </outline>
</glyph>
<glyph name="comma" format="2">
  <advance width="269"/>
  <unicode hex="002C"/>
  <outline>
    <contour>
      <point x="66.0505248623655" y="-91.47653920870668" type="curve" smooth="yes"/>
      <point x="90.5912850334109" y="-48.98141591044052"/>
      <point x="114.52949875353727" y="24.345456124376742"/>
      <point x="88.79177912159486" y="47.682992879685145" type="curve" smooth="yes"/>
      <point x="38.787466647585106" y="93.02413020553519"/>
      <point x="99.24231641538519" y="159.69654683754817"/>
      <point x="149.24662888939494" y="114.35540951169813" type="curve" smooth="yes"/>
      <point x="207.49710130751095" y="61.537111678322184"/>
      <point x="199.52936897751334" y="-40.30866065093997"/>
      <point x="143.98789545516792" y="-136.48505245987036" type="curve" smooth="yes"/>
      <point x="110.23151051679514" y="-194.93808040447217"/>
      <point x="32.294139923992724" y="-149.92956715330848"/>
    </contour>
  </outline>
</glyph>
<glyph name="period" format="2">
  <advance width="260"/>
  <unicode hex="002E"/>
  <outline>
    <contour>
      <point x="89" y="36" type="curve" smooth="yes"/>
      <point x="89" y="66"/>
      <point x="89" y="59"/>
      <point x="89" y="90" type="curve" smooth="yes"/>
      <point x="89" y="157"/>
      <point x="179" y="157"/>
      <point x="179" y="90" type="curve" smooth="yes"/>
      <point x="179" y="59"/>
      <point x="179" y="66"/>
      <point x="179" y="36" type="curve" smooth="yes"/>
      <point x="179" y="-32"/>
      <point x="89" y="-32"/>
    </contour>
  </outline>
</glyph>
<glyph name="slash" format="2">
  <advance width="490"/>
  <unicode hex="002F"/>
  <outline>
    <contour>
      <point x="420.7407488867654" y="715.9206829916694" type="curve" smooth="yes"/>
      <point x="140.7407790438897" y="-134.07930406209024" type="line" smooth="yes"/>
      <point x="119.621814497621" y="-198.19045236325115"/>
      <point x="34.14028342940648" y="-170.03183296822624"/>
      <point x="55.259247975675166" y="-105.92068466706533" type="curve" smooth="yes"/>
      <point x="335.2592178185509" y="744.0793023866944" type="line" smooth="yes"/>
      <point x="356.37818236481957" y="808.1904506878553"/>
      <point x="441.8597134330341" y="780.0318312928304"/>
    </contour>
  </outline>
</glyph>
<glyph name="zero" format="2">
  <advance width="592"/>
  <unicode hex="0030"/>
  <outline>
    <contour>
      <point x="337.86455411148205" y="86.05112686344262" type="curve" smooth="yes"/>
      <point x="364.9161116898581" y="94.31779136222214"/>
      <point x="383.99146899164793" y="111.7220977076151"/>
      <point x="401.34605959139157" y="132.70286093156685" type="curve" smooth="yes"/>
      <point x="439.48169277459" y="178.80678286585817"/>
      <point x="462.0209405841958" y="255.03342921991208"/>
      <point x="462.02093796486633" y="341.02094119413" type="curve" smooth="yes"/>
      <point x="462.0209335219957" y="486.8717789422948"/>
      <point x="400.0830464913395" y="600.0209379347236"/>
      <point x="296.02093191821064" y="600.0209379347236" type="curve" smooth="yes"/>
      <point x="191.08696363201653" y="600.0209379347236"/>
      <point x="130.0209399472007" y="486.9447435836755"/>
      <point x="130.02094439229384" y="341.0209439356868" type="curve" smooth="yes"/>
      <point x="130.02094701162324" y="255.03343196146886"/>
      <point x="152.56481094548374" y="178.8052930779315"/>
      <point x="190.69708375973187" y="132.7013538470604" type="curve" smooth="yes"/>
      <point x="208.05012635682894" y="111.7206054593497"/>
      <point x="227.11910528900725" y="94.31743500362872"/>
      <point x="254.1680405050445" y="86.0507705048492" type="curve" smooth="yes"/>
      <point x="318.7206295883506" y="66.32228240662366"/>
      <point x="292.4159787907164" y="-19.747836371117813"/>
      <point x="227.86338970741028" y="-0.01934827289226604" type="curve" smooth="yes"/>
      <point x="183.05726822527592" y="13.67424708773968"/>
      <point x="150.08985027470118" y="40.58626985768826"/>
      <point x="121.34481730093775" y="75.3405385021891" type="curve" smooth="yes"/>
      <point x="71.73016143039528" y="135.32728753125235"/>
      <point x="40.0209478003553" y="229.14088524921155"/>
      <point x="40.02094439229389" y="341.02094119412993" type="curve" smooth="yes"/>
      <point x="40.02093802564957" y="550.025543853463"/>
      <point x="145.7254873092521" y="690.0209379347236"/>
      <point x="296.02093191821064" y="690.0209379347236" type="curve" smooth="yes"/>
      <point x="445.21675399688564" y="690.0209379347236"/>
      <point x="552.0209315950385" y="550.1300488963494"/>
      <point x="552.0209379648663" y="341.0209439356867" type="curve" smooth="yes"/>
      <point x="552.0209413729277" y="229.14088799076833"/>
      <point x="520.3148610531705" y="135.32575794182316"/>
      <point x="470.69583293999034" y="75.33903141768266" type="curve" smooth="yes"/>
      <point x="441.9482357250071" y="40.584738197189665"/>
      <point x="408.97733813290097" y="13.673890729146244"/>
      <point x="364.1668727501811" y="-0.019704631485701896" type="curve" smooth="yes"/>
      <point x="299.61374912898486" y="-19.746443610509946"/>
      <point x="273.31143049028583" y="66.32438788441837"/>
    </contour>
  </outline>
</glyph>
<glyph name="one" format="2">
  <advance width="344"/>
  <unicode hex="0031"/>
  <outline>
    <contour>
      <point x="51.05957079416339" y="632.7921445950877" type="curve" smooth="yes"/>
      <point x="117.36896322484884" y="654.4117206632963"/>
      <point x="139.2873174344129" y="667.0051872295725"/>
      <point x="171.0044327030809" y="667.0069755795566" type="curve" smooth="yes"/>
      <point x="236.3575125419496" y="667.0106604726595"/>
      <point x="264.0209316305925" y="630.9628887861942"/>
      <point x="264.02093501007744" y="520.0209412093609" type="curve" smooth="yes"/>
      <point x="264.0209395382613" y="371.369434458419"/>
      <point x="264.0209417412068" y="299.05099368684137"/>
      <point x="264.0209458239957" y="165.02094661632" type="curve" smooth="yes"/>
      <point x="264.0209470444211" y="124.95674407482053"/>
      <point x="264.01899468098617" y="68.63112167040451"/>
      <point x="264.0157133483126" y="40.01055193630609" type="curve" smooth="yes"/>
      <point x="264.0079745102651" y="-27.489447620067132"/>
      <point x="174.00797510176747" y="-27.479129169337163"/>
      <point x="174.01571393981496" y="40.02087038703606" type="curve" smooth="yes"/>
      <point x="174.02060383246766" y="82.67168564672559"/>
      <point x="174.02094764269256" y="105.31665017971281"/>
      <point x="174.02094582399573" y="165.02094387476322" type="curve" smooth="yes"/>
      <point x="174.02094308426516" y="254.96099039649692"/>
      <point x="174.0209380486875" y="420.26925050733587"/>
      <point x="174.02093501007747" y="520.0209384678042" type="curve" smooth="yes"/>
      <point x="174.0209348423658" y="525.5265948449183"/>
      <point x="174.252749449332" y="577.0071585908288"/>
      <point x="171.00950729757744" y="577.0069757226206" type="curve" smooth="yes"/>
      <point x="160.77581088496655" y="577.0063987019597"/>
      <point x="100.35294418893098" y="554.2009698721807"/>
      <point x="78.95786504342416" y="547.2252983403515" type="curve" smooth="yes"/>
      <point x="14.782730352372027" y="526.3015776534058"/>
      <point x="-13.115563896888744" y="611.8684239081421"/>
    </contour>
  </outline>
</glyph>
<glyph name="two" format="2">
  <advance width="505"/>
  <unicode hex="0032"/>
  <outline>
    <contour>
      <point x="80.25881362701179" y="656.3458987964148" type="curve" smooth="yes"/>
      <point x="125.25881362701179" y="675.3458987964148"/>
      <point x="178" y="690"/>
      <point x="239.0" y="690.0" type="curve" smooth="yes" identifier="rJ4AotMcT7"/>
      <point x="345" y="690.0"/>
      <point x="456.9790459437186" y="634.9790535816815"/>
      <point x="456.9790459437186" y="501.9790535816814" type="curve" smooth="yes"/>
      <point x="456.97904852871295" y="417.1186936514012"/>
      <point x="414.121072135589" y="361.74740735716273"/>
      <point x="324.4590831555926" y="261.9110049232659" type="curve" smooth="yes"/>
      <point x="260.29000977615533" y="190.4603321621584"/>
      <point x="217.0" y="143.0"/>
      <point x="189" y="115" type="curve" smooth="yes"/>
      <point x="173" y="99"/>
      <point x="175" y="90"/>
      <point x="197" y="90.0" type="curve" smooth="yes"/>
      <point x="227.0" y="90.0"/>
      <point x="273" y="90"/>
      <point x="335.9790610222807" y="89.97905917141094" type="curve" smooth="yes"/>
      <point x="376" y="90"/>
      <point x="381.0" y="90"/>
      <point x="421.97790986032066" y="89.98254959062679" type="curve" smooth="yes"/>
      <point x="489" y="90"/>
      <point x="489" y="0"/>
      <point x="421.98719088139717" y="-0.01744993083237034" type="curve" smooth="yes"/>
      <point x="375.0" y="0.0"/>
      <point x="366" y="0"/>
      <point x="327" y="0" type="curve" smooth="yes"/>
      <point x="269" y="0"/>
      <point x="234" y="0"/>
      <point x="139" y="0" type="curve" smooth="yes"/>
      <point x="46" y="0"/>
      <point x="32" y="77"/>
      <point x="76" y="124" type="curve" smooth="yes"/>
      <point x="136.0" y="188.0"/>
      <point x="193.94276004704244" y="251.27877989300632"/>
      <point x="257.4990252116468" y="322.0471058955057" type="curve" smooth="yes"/>
      <point x="320.7303799204185" y="392.4536521584242"/>
      <point x="366.9790477667063" y="442.13389705190446"/>
      <point x="366.9790459437186" y="501.97905084012456" type="curve" smooth="yes"/>
      <point x="366.9790459437186" y="571.9790508401245"/>
      <point x="301.0" y="600.0"/>
      <point x="242.0" y="600.0" type="curve" smooth="yes" identifier="GD3HhqYVZl"/>
      <point x="198.0" y="600.0"/>
      <point x="154.70870571882804" y="590.621626961127"/>
      <point x="115.70870571882804" y="573.621626961127" type="curve" smooth="yes"/>
      <point x="54" y="546"/>
      <point x="18.21560975054595" y="629.7584797275526"/>
    </contour>
  </outline>
</glyph>
<glyph name="three" format="2">
  <advance width="488"/>
  <unicode hex="0033"/>
  <outline>
    <contour>
      <point x="107.85392896246982" y="105.32937445878297" type="curve" smooth="yes"/>
      <point x="146.24369913208525" y="88.7537181538879"/>
      <point x="189.07685692672658" y="80.71688590315726"/>
      <point x="232.70851349078558" y="81.01847597374798" type="curve" smooth="yes"/>
      <point x="302.6806104298615" y="81.50213603428803"/>
      <point x="365.02223796441973" y="126.04790585858314"/>
      <point x="365.0195468371183" y="196.0178177556531" type="curve" smooth="yes"/>
      <point x="365.01608304972115" y="286.0770650024565"/>
      <point x="277.02733267392205" y="303.4021150145128"/>
      <point x="229.43158088954783" y="304.00853752437104" type="curve" smooth="yes"/>
      <point x="91.70442275210561" y="305.7633338198834"/>
      <point x="95.40298506013241" y="358.9036762523914"/>
      <point x="182.21726159621642" y="457.72418594887756" type="curve" smooth="yes"/>
      <point x="218.2517384718702" y="498.74215572966875"/>
      <point x="231.8196077919341" y="513.654163367271"/>
      <point x="290.3035329166295" y="579.8225650351035" type="curve" smooth="yes"/>
      <point x="296.20991282574613" y="586.5050118338771"/>
      <point x="315.71856947581836" y="590.008394040418"/>
      <point x="309.00652297426205" y="590.0087208356667" type="curve" smooth="yes"/>
      <point x="226.42920325978264" y="590.0127413494897"/>
      <point x="155.59940898968154" y="590.0211507477889"/>
      <point x="91.02108274064801" y="590.0209380872764" type="curve" smooth="yes"/>
      <point x="23.521082741014" y="590.0207158060313"/>
      <point x="23.520786366020587" y="680.0207158055433"/>
      <point x="91.0207863656546" y="680.0209380867884" type="curve" smooth="yes"/>
      <point x="134.3556787579384" y="680.0210807913298"/>
      <point x="185.9529070683086" y="680.0147121608176"/>
      <point x="309.01090488234917" y="680.0087207289939" type="curve" smooth="yes"/>
      <point x="437.17766956133534" y="680.0024805621923"/>
      <point x="470.52086695132056" y="647.8208710385837"/>
      <point x="357.7383342705833" y="520.2193137282093" type="curve" smooth="yes"/>
      <point x="300.3539997178061" y="455.29498298204817"/>
      <point x="286.5519349875727" y="440.1233611824436"/>
      <point x="249.83159763039572" y="398.3246778477402" type="curve" smooth="yes"/>
      <point x="245.45803626003348" y="393.3462620726756"/>
      <point x="223.63971821114663" y="394.08963707316315"/>
      <point x="230.57818734910438" y="394.0012333036781" type="curve" smooth="yes"/>
      <point x="312.7106815008691" y="392.9547745047905"/>
      <point x="455.0135695669674" y="351.42990966731975"/>
      <point x="455.01954677055136" y="196.02127926432715" type="curve" smooth="yes"/>
      <point x="455.02415869558564" y="76.11019659362728"/>
      <point x="353.2454225473695" y="-8.150500640842095"/>
      <point x="233.33059525636972" y="-8.979374079889013" type="curve" smooth="yes"/>
      <point x="176.92843054891597" y="-9.36923626196353"/>
      <point x="121.8038876121072" y="1.2752267846092011"/>
      <point x="72.17785205214754" y="22.70239619932603" type="curve" smooth="yes"/>
      <point x="10.207618357554821" y="49.4594538820677"/>
      <point x="45.8836952678771" y="132.08643214152463"/>
    </contour>
  </outline>
</glyph>
<glyph name="six" format="2">
  <advance width="534"/>
  <unicode hex="0036"/>
  <outline>
    <contour>
      <point x="98.3860184209201" y="345.1599559902225" type="curve" smooth="yes"/>
      <point x="135.91957730506374" y="397.70467005358586"/>
      <point x="201.94933905470714" y="440.0100719781268"/>
      <point x="282.011008092649" y="440.01221508010366" type="curve" smooth="yes"/>
      <point x="405.36203162624366" y="440.01551695758843"/>
      <point x="501.0209380461531" y="349.35245538930104"/>
      <point x="501.0209419553545" y="221.0209457633913" type="curve" smooth="yes"/>
      <point x="501.0209459282888" y="90.59720546415717"/>
      <point x="412.36634116320454" y="-7.9790528049069"/>
      <point x="277.02095028664087" y="-7.9790528049069" type="curve" smooth="yes"/>
      <point x="161.8934655330176" y="-7.9790528049069"/>
      <point x="40.020951930175364" y="79.06689108776496"/>
      <point x="40.020944773065644" y="314.02094160536353" type="curve" smooth="yes"/>
      <point x="40.02093661424719" y="581.8591498005491"/>
      <point x="181.8285332287472" y="687.0227594775608"/>
      <point x="314.02155135374386" y="687.0209379761443" type="curve" smooth="yes"/>
      <point x="358.5009343128672" y="687.0203250900765"/>
      <point x="402.9009779765711" y="676.1605366803504"/>
      <point x="442.56814471711573" y="654.5174153851394" type="curve" smooth="yes"/>
      <point x="501.8220231858767" y="622.1874310608422"/>
      <point x="458.71537742014687" y="543.1822597691609"/>
      <point x="399.4614989513859" y="575.5122440934581" type="curve" smooth="yes"/>
      <point x="373.14102869997316" y="589.8731671693196"/>
      <point x="343.5338452777095" y="597.020531314617"/>
      <point x="314.020311233746" y="597.0209379846881" type="curve" smooth="yes"/>
      <point x="216.73528269158106" y="597.0222784852668"/>
      <point x="130.02093876873272" y="511.1315640947254"/>
      <point x="130.0209447730656" y="314.02094434692026" type="curve" smooth="yes"/>
      <point x="130.02094976505504" y="150.14359856246557"/>
      <point x="196.7210508522581" y="82.0209471950931"/>
      <point x="277.02095028664087" y="82.0209471950931" type="curve" smooth="yes"/>
      <point x="361.6768667186302" y="82.0209471950931"/>
      <point x="411.02094444034793" y="139.44342355100846"/>
      <point x="411.0209419553545" y="221.0209430218344" type="curve" smooth="yes"/>
      <point x="411.0209395895701" y="298.68505958163473"/>
      <point x="356.66342560938165" y="350.01421335423373"/>
      <point x="282.01341722555156" y="350.01221511234763" type="curve" smooth="yes"/>
      <point x="234.06621325976295" y="350.01093165487237"/>
      <point x="194.0990002685396" y="324.3149173219535"/>
      <point x="171.6209627131757" y="292.8470232248898" type="curve" smooth="yes"/>
      <point x="132.38626313917612" y="237.92081500569816"/>
      <point x="59.151318846920525" y="290.23374777103083"/>
    </contour>
  </outline>
</glyph>
<glyph name="eight" format="2">
  <advance width="535"/>
  <unicode hex="0038"/>
  <outline>
    <contour>
      <point x="198.28891965924203" y="-0.41615285593014306" type="curve" smooth="yes"/>
      <point x="105.0608795637095" y="24.772235787174413"/>
      <point x="45.02093596974742" y="101.24024568824065"/>
      <point x="45.019202793680044" y="202.0184254459125" type="curve" smooth="yes"/>
      <point x="45.016994691276714" y="330.4119251685715"/>
      <point x="143.10267717405603" y="404.0052343275645"/>
      <point x="269.0052326444735" y="404.0052343275645" type="curve" smooth="yes"/>
      <point x="333.5433148422345" y="404.0052343275645"/>
      <point x="380.0167272576895" y="437.1541962924457"/>
      <point x="380.01918876827233" y="496.02107654375175" type="curve" smooth="yes"/>
      <point x="380.0218432094272" y="559.5018800325018"/>
      <point x="334.66311972511244" y="599.0209379499545"/>
      <point x="269.02093192582606" y="599.0209379499545" type="curve" smooth="yes"/>
      <point x="202.82314440388393" y="599.0209379499545"/>
      <point x="156.02044323122922" y="557.901338792142"/>
      <point x="156.02093883919812" y="496.02130061693595" type="curve" smooth="yes"/>
      <point x="156.02145020619957" y="432.1736396602475"/>
      <point x="202.74322466464457" y="404.026178278482"/>
      <point x="268.02617661030297" y="404.02617827848206" type="curve" smooth="yes"/>
      <point x="393.9287320807205" y="404.0261782784821"/>
      <point x="490.0215510730233" y="330.41705954232697"/>
      <point x="490.0209427087775" y="202.0207314641335" type="curve" smooth="yes"/>
      <point x="490.02046399874627" y="100.98815000689828"/>
      <point x="428.6632128309816" y="22.42791377304641"/>
      <point x="335.2150960250974" y="-1.5606070863615997" type="curve" smooth="yes"/>
      <point x="269.83491073555274" y="-18.34397300338822"/>
      <point x="247.45708951285056" y="68.8296073826713"/>
      <point x="312.8372748023952" y="85.61297329969791" type="curve" smooth="yes"/>
      <point x="367.36566357902365" y="99.61063784670243"/>
      <point x="400.02066337524803" y="143.0671193476447"/>
      <point x="400.02094270978773" y="202.0211578998653" type="curve" smooth="yes"/>
      <point x="400.0213096002627" y="279.45402829041086"/>
      <point x="343.9551101358955" y="314.0261782784821"/>
      <point x="268.02617661030297" y="314.02617827848206" type="curve" smooth="yes"/>
      <point x="151.63296857779793" y="314.026178278482"/>
      <point x="66.02185056013677" y="382.18635718589564"/>
      <point x="66.02093884208475" y="496.02057979131075" type="curve" smooth="yes"/>
      <point x="66.02005741585006" y="606.0726622125646"/>
      <point x="151.28984152406827" y="689.0209379499545"/>
      <point x="269.02093192582606" y="689.0209379499545" type="curve" smooth="yes"/>
      <point x="385.355972438075" y="689.0209379499545"/>
      <point x="470.02389305014947" y="608.5218182081122"/>
      <point x="470.0191886895906" y="496.0173132060087" type="curve" smooth="yes"/>
      <point x="470.0147181023886" y="389.1034842347338"/>
      <point x="386.21907942502247" y="314.0052343275645"/>
      <point x="269.0052326444735" y="314.0052343275645" type="curve" smooth="yes"/>
      <point x="193.1142635856439" y="314.0052343275645"/>
      <point x="135.01787179045897" y="279.4124223516809"/>
      <point x="135.01920278037045" y="202.01997325960008" type="curve" smooth="yes"/>
      <point x="135.02022120553042" y="142.802080875148"/>
      <point x="166.98207175616696" y="101.26937465647691"/>
      <point x="221.7634545799657" y="86.46851903880469" type="curve" smooth="yes"/>
      <point x="286.9269585010168" y="68.86261784826203"/>
      <point x="263.45242358029316" y="-18.0220540464728"/>
    </contour>
  </outline>
</glyph>
<glyph name="nine" format="2">
  <advance width="534"/>
  <unicode hex="0039"/>
  <outline>
    <contour>
      <point x="468.1261195316824" y="528.8252232613436" type="curve" smooth="yes"/>
      <point x="501.0821684419069" y="364.0450038076833"/>
      <point x="399.69189959197047" y="238.99999948215037"/>
      <point x="251.99999919276385" y="238.99999948215037" type="curve" smooth="yes"/>
      <point x="127.5325174360223" y="238.99999948215037"/>
      <point x="33.000000447833486" y="329.79848925175673"/>
      <point x="32.99999654259235" y="457.99999546120046" type="curve" smooth="yes"/>
      <point x="32.9999925696581" y="588.4237357604345"/>
      <point x="121.65459733474228" y="686.9999940294986"/>
      <point x="256.999988211306" y="686.9999940294986" type="curve" smooth="yes"/>
      <point x="372.1274729649291" y="686.9999940294986"/>
      <point x="493.9999865677715" y="599.9540501368265"/>
      <point x="493.9999937248812" y="364.9999996192283" type="curve" smooth="yes"/>
      <point x="494.00000450453894" y="11.124713553603737"/>
      <point x="249.24415312620405" y="-59.58693982172819"/>
      <point x="91.8385850161211" y="24.28609875876073" type="curve" smooth="yes"/>
      <point x="32.26772890484922" y="56.028233251736175"/>
      <point x="74.59057489548316" y="135.45604140009868"/>
      <point x="134.16143100675504" y="103.71390690712325" type="curve" smooth="yes"/>
      <point x="250.4058020944793" y="41.773476602988254"/>
      <point x="404.00000168568306" y="103.66229093693752"/>
      <point x="403.9999937248812" y="364.99999687767144" type="curve" smooth="yes"/>
      <point x="403.9999887328917" y="528.8773426621261"/>
      <point x="337.2998876456888" y="596.9999940294986"/>
      <point x="256.999988211306" y="596.9999940294986" type="curve" smooth="yes"/>
      <point x="172.34407177931672" y="596.9999940294986"/>
      <point x="122.999994057599" y="539.5775176735833"/>
      <point x="122.9999965425923" y="457.9999982027572" type="curve" smooth="yes"/>
      <point x="122.99999891192878" y="380.21926887478935"/>
      <point x="176.48472800056214" y="328.9999994821504"/>
      <point x="251.99999919276385" y="328.9999994821504" type="curve" smooth="yes"/>
      <point x="346.2356214935295" y="328.9999994821504"/>
      <point x="400.90164592779894" y="406.03585107098314"/>
      <point x="379.8738592364837" y="511.17476851398624" type="curve" smooth="yes"/>
      <point x="366.63601817596566" y="577.3639637353851"/>
      <point x="454.8882784711643" y="595.0144184827425"/>
    </contour>
  </outline>
</glyph>
<glyph name="colon" format="2">
  <advance width="260"/>
  <unicode hex="003A"/>
  <outline>
    <contour>
      <point x="133.4527767010982" y="-4.521157897157359" type="curve" smooth="yes"/>
      <point x="48.52211890608912" y="7.968644663805591"/>
      <point x="48.52211826927762" y="116.03136105455826"/>
      <point x="133.4527753033645" y="128.52116361552112" type="curve" smooth="yes"/>
      <point x="200.23451693415933" y="138.342008016985"/>
      <point x="213.32897613611118" y="49.299685842591884"/>
      <point x="146.54723450531634" y="39.478841441128004" type="curve" smooth="yes"/>
      <point x="143.98295620417485" y="39.10174168927086"/>
      <point x="143.98295746410017" y="84.89826404598027"/>
      <point x="146.5472357882159" y="84.52116429412314" type="curve" smooth="yes"/>
      <point x="213.32897743167626" y="74.70031997878488"/>
      <point x="200.23451834455858" y="-14.34200221249562"/>
    </contour>
    <contour>
      <point x="133.45276573487118" y="355.4788366197291" type="curve" smooth="yes"/>
      <point x="48.52210793986203" y="367.96863918069204"/>
      <point x="48.52210730305047" y="476.0313555714447"/>
      <point x="133.45276433713738" y="488.5211581324076" type="curve" smooth="yes"/>
      <point x="200.2345059679322" y="498.34200253387166"/>
      <point x="213.32896516988427" y="409.29968035947854"/>
      <point x="146.54722353908946" y="399.4788359580145" type="curve" smooth="yes"/>
      <point x="143.98294523794794" y="399.10173620615745"/>
      <point x="143.9829464978732" y="444.89825856286666"/>
      <point x="146.54722482198892" y="444.5211588110096" type="curve" smooth="yes"/>
      <point x="213.32896646544927" y="434.70031449567125"/>
      <point x="200.23450737833153" y="345.65799230439075"/>
    </contour>
  </outline>
</glyph>
<glyph name="less" format="2">
  <advance width="447"/>
  <unicode hex="003C"/>
  <outline>
    <contour>
      <point x="380.131804729299" y="437.40052509250813" type="curve" smooth="yes"/>
      <point x="103.13181400489935" y="271.4005276208327" type="line"/>
      <point x="103.43719623475243" y="348.4148119768966" type="line"/>
      <point x="380.43719716383555" y="179.41481455091377" type="line" smooth="yes"/>
      <point x="438.05941649995884" y="144.2590207356733"/>
      <point x="391.18502474630486" y="67.42939495417556"/>
      <point x="333.56280541018157" y="102.58518876941605" type="curve" smooth="yes"/>
      <point x="56.56280448109851" y="271.5851861953989" type="line" smooth="yes"/>
      <point x="27.67870492040953" y="289.2076148417367"/>
      <point x="27.845242359643034" y="331.2066588176485"/>
      <point x="56.86818671095158" y="348.5994705514628" type="curve" smooth="yes"/>
      <point x="333.8681774353512" y="514.5994680231382" type="line" smooth="yes"/>
      <point x="391.76738463332373" y="549.2971884935992"/>
      <point x="438.03101192727155" y="472.09824556296905"/>
    </contour>
  </outline>
</glyph>
<glyph name="question" format="2">
  <advance width="511"/>
  <unicode hex="003F"/>
  <outline>
    <contour>
      <point x="70.76894009513195" y="652.582563232833" type="curve" smooth="yes"/>
      <point x="129.77037674930543" y="677.0737259272627"/>
      <point x="188.69890280733654" y="688.0209379651853"/>
      <point x="241.02093219998176" y="688.0209379651853" type="curve" smooth="yes"/>
      <point x="377.878880106334" y="688.0209379651853"/>
      <point x="472.02397837143394" y="612.6244392672486"/>
      <point x="472.01848992487174" y="509.01611275902013" type="curve" smooth="yes"/>
      <point x="472.0147810966064" y="439.0025878895744"/>
      <point x="425.2262742777174" y="372.8246677334942"/>
      <point x="338.3741967775361" y="336.49438648628546" type="curve" smooth="yes"/>
      <point x="277.0092180743304" y="310.82537545990226"/>
      <point x="271.02094289104633" y="299.55398965812594"/>
      <point x="271.02094391252143" y="266.02094507800206" type="curve" smooth="yes"/>
      <point x="271.02094596868903" y="198.5209450780021"/>
      <point x="181.02094596868906" y="198.52094233644524"/>
      <point x="181.02094391252146" y="266.0209423364452" type="curve" smooth="yes"/>
      <point x="181.02094209896651" y="325.55643790691767"/>
      <point x="194.6941648972069" y="373.94959019095495"/>
      <point x="303.6432467211795" y="419.52306290704297" type="curve" smooth="yes"/>
      <point x="350.1492615400776" y="438.9765595496985"/>
      <point x="382.0165041133648" y="471.5312759508961"/>
      <point x="382.01849005114815" y="509.0208803313432" type="curve" smooth="yes"/>
      <point x="382.0215287817999" y="566.3846159466701"/>
      <point x="316.79363701181614" y="598.0209379651853"/>
      <point x="241.02093219998176" y="598.0209379651853" type="curve" smooth="yes"/>
      <point x="199.35515426822965" y="598.0209379651853"/>
      <point x="152.25774373333155" y="588.9624437680275"/>
      <point x="105.2729309150295" y="569.4593136723134" type="curve" smooth="yes"/>
      <point x="42.93049374463979" y="543.5813205573903"/>
      <point x="8.426502924742238" y="626.7045701179098"/>
    </contour>
    <contour>
      <point x="182.02095125292152" y="36.026555127236264" type="curve" smooth="yes"/>
      <point x="182.02269540319296" y="50.02226205946105"/>
      <point x="182.0226945966859" y="75.02392190116254"/>
      <point x="182.02094956340497" y="90.01570841991942" type="curve" smooth="yes"/>
      <point x="182.01309261149865" y="157.51570796264764"/>
      <point x="272.01309200180293" y="157.52618389852267"/>
      <point x="272.02094895370925" y="90.02618435579448" type="curve" smooth="yes"/>
      <point x="272.0226958998688" y="75.01796407195242"/>
      <point x="272.02269661624285" y="50.02638810364665"/>
      <point x="272.0209505540608" y="36.0153392934117" type="curve" smooth="yes"/>
      <point x="272.01253867869235" y="-31.484660182442767"/>
      <point x="182.01253937755308" y="-31.4734443486182"/>
    </contour>
  </outline>
</glyph>
<glyph name="at" format="2">
  <advance width="956"/>
  <unicode hex="0040"/>
  <outline>
    <contour>
      <point x="675.0209362133162" y="428.020942610601" type="curve" smooth="yes"/>
      <point x="675.0209373092086" y="392.04492400190765"/>
      <point x="675.0209398488403" y="308.67372529614477"/>
      <point x="675.0209412090419" y="264.0209451084638" type="curve" smooth="yes"/>
      <point x="675.0209449356624" y="141.68320510649636"/>
      <point x="591.6151738164418" y="57.02094620508649"/>
      <point x="482.0209483980129" y="57.02094620508649" type="curve" smooth="yes"/>
      <point x="371.2631570020737" y="57.02094620508649"/>
      <point x="288.02094936412215" y="144.80544836707463"/>
      <point x="288.02094564122524" y="267.0209423212144" type="curve" smooth="yes"/>
      <point x="288.02094187201925" y="390.75667677601894"/>
      <point x="374.87036613419747" y="477.0207955304976"/>
      <point x="482.0178402297992" y="477.0157051403864" type="curve" smooth="yes"/>
      <point x="590.3325986137431" y="477.01055929462916"/>
      <point x="675.0034839686664" y="393.6155831849685"/>
      <point x="675.0034877341059" y="270.00349172464723" type="curve" smooth="yes"/>
      <point x="675.0034899589327" y="196.96673099672248"/>
      <point x="701.4868039372756" y="162.01322917944862"/>
      <point x="739.012733242725" y="162.01570989056722" type="curve" smooth="yes"/>
      <point x="792.7823726510387" y="162.01926441792438"/>
      <point x="822.0209387662745" y="225.7122684757854"/>
      <point x="822.0209361371619" y="312.0209416358252" type="curve" smooth="yes"/>
      <point x="822.0209309157912" y="483.42842386436433"/>
      <point x="691.6457066178066" y="599.0209379499545"/>
      <point x="500.02093161359323" y="599.0209379499545" type="curve" smooth="yes"/>
      <point x="300.1604141573107" y="599.0209379499545"/>
      <point x="157.02094324061332" y="456.3283867597804"/>
      <point x="157.02094922047988" y="260.0209451693873" type="curve" smooth="yes"/>
      <point x="157.02095530257625" y="60.35750111685048"/>
      <point x="295.4566553589419" y="-63.97905058119969"/>
      <point x="488.0209547340552" y="-63.979050581199715" type="curve"/>
      <point x="488.0209547340552" y="-63.979050581199715" type="line"/>
      <point x="541.5269315498658" y="-63.979050581199715"/>
      <point x="599.6327055811721" y="-53.64932421313823"/>
      <point x="659.5898592878297" y="-33.36039407937838" type="curve" smooth="yes"/>
      <point x="723.5283167699486" y="-11.724228642608537"/>
      <point x="752.3765373523083" y="-96.97550528543373"/>
      <point x="688.4380798701894" y="-118.61167072220357" type="curve" smooth="yes"/>
      <point x="618.4169569105374" y="-142.30615226091007"/>
      <point x="550.5080534383447" y="-153.97905058119971"/>
      <point x="488.0209547340552" y="-153.97905058119971" type="curve"/>
      <point x="488.0209547340552" y="-153.97905058119971"/>
      <point x="488.0209547340552" y="-153.97905058119971"/>
      <point x="488.0209547340552" y="-153.97905058119971" type="curve"/>
      <point x="246.56975739221525" y="-153.9790505811997"/>
      <point x="67.02095684665703" y="9.668318455876658"/>
      <point x="67.02094922047993" y="260.02094242783045" type="curve" smooth="yes"/>
      <point x="67.02094173746751" y="505.6737475564428"/>
      <point x="249.92192186726857" y="689.0209379499545"/>
      <point x="500.02093161359323" y="689.0209379499545" type="curve" smooth="yes"/>
      <point x="744.2916526076193" y="689.0209379499545"/>
      <point x="912.0209294813002" y="530.5199837986437"/>
      <point x="912.0209361371619" y="312.020944377382" type="curve" smooth="yes"/>
      <point x="912.0209408659789" y="156.78303976296993"/>
      <point x="835.7307031692857" y="72.02210338882789"/>
      <point x="739.0186828354816" y="72.01571008722084" type="curve" smooth="yes"/>
      <point x="665.5694451150015" y="72.01085460878151"/>
      <point x="585.0034920887441" y="127.04915046761181"/>
      <point x="585.0034877341059" y="270.0034889830905" type="curve" smooth="yes"/>
      <point x="585.0034855920333" y="340.3235843414798"/>
      <point x="543.6313564701046" y="387.01277788784006"/>
      <point x="482.0135644861777" y="387.01570524195296" type="curve" smooth="yes"/>
      <point x="421.3023399903142" y="387.0185895266215"/>
      <point x="378.02094350554154" y="337.1313047894365"/>
      <point x="378.02094564122524" y="267.02094506277115" type="curve" smooth="yes"/>
      <point x="378.02094776333627" y="197.35615176396578"/>
      <point x="418.88722947097045" y="147.0209462050865"/>
      <point x="482.0209483980129" y="147.0209462050865" type="curve" smooth="yes"/>
      <point x="544.3665999528737" y="147.0209462050865"/>
      <point x="585.0209433290313" y="194.42579644520214"/>
      <point x="585.0209412090419" y="264.020942366907" type="curve" smooth="yes"/>
      <point x="585.0209391820489" y="330.5632053725007"/>
      <point x="585.0209378464318" y="374.4089210408359"/>
      <point x="585.0209362133162" y="428.0209398690442" type="curve" smooth="yes"/>
      <point x="585.0209341571485" y="495.5209398690441"/>
      <point x="675.0209341571485" y="495.52094261060097"/>
    </contour>
  </outline>
</glyph>
<glyph name="C" format="2">
  <advance width="600"/>
  <unicode hex="0043"/>
  <outline>
    <contour>
      <point x="539.6205577819701" y="46.3381116683966" type="curve" smooth="yes"/>
      <point x="483.01505382973033" y="9.372650325125287"/>
      <point x="412.54558048699056" y="-7.373039993507636"/>
      <point x="352.4731863742362" y="-7.976780324666031" type="curve" smooth="yes"/>
      <point x="183.23300458586186" y="-9.677680129099251"/>
      <point x="45.02095100048533" y="123.58681551456478"/>
      <point x="45.02094440752477" y="340.02094120936084" type="curve" smooth="yes"/>
      <point x="45.02093782115224" y="556.238794995907"/>
      <point x="187.18640231946603" y="688.8742312097204"/>
      <point x="356.2482061948544" y="688.0203640286717" type="curve" smooth="yes"/>
      <point x="415.1789111645855" y="687.7227273432924"/>
      <point x="482.47222330716374" y="672.8604820906343"/>
      <point x="539.0777294765214" y="637.0422519451456" type="curve" smooth="yes"/>
      <point x="596.1175534228184" y="600.9491988161092"/>
      <point x="547.9934825841032" y="524.8961002210465"/>
      <point x="490.9536586378062" y="560.9891533500829" type="curve" smooth="yes"/>
      <point x="449.58699973362644" y="587.1647078013905"/>
      <point x="398.8595437500411" y="597.8040024035129"/>
      <point x="355.79365605755635" y="598.021511901699" type="curve" smooth="yes"/>
      <point x="230.941065843265" y="598.6520950778463"/>
      <point x="135.02093954347114" y="499.6984019988801"/>
      <point x="135.02094440752472" y="340.02094395091757" type="curve" smooth="yes"/>
      <point x="135.0209492642859" y="180.5828823518931"/>
      <point x="226.89647631009134" y="80.7656922338205"/>
      <point x="351.5687129196524" y="82.01867471485224" type="curve" smooth="yes"/>
      <point x="395.46893402861855" y="82.4598812694055"/>
      <point x="449.0442044240165" y="94.6793713763703"/>
      <point x="490.41086170795165" y="121.69330931462889" type="curve" smooth="yes"/>
      <point x="546.9272599426258" y="158.60058137014272"/>
      <point x="596.1369560166443" y="83.24538372391044"/>
    </contour>
  </outline>
</glyph>
<glyph name="D" format="2">
  <advance width="660"/>
  <unicode hex="0044"/>
  <outline>
    <contour>
      <point x="80.01571763432165" y="45.02094509342783" type="curve" smooth="yes"/>
      <point x="80.01938976845088" y="76.59255092694725"/>
      <point x="80.02095166840357" y="99.1603519004434"/>
      <point x="80.02094868739948" y="197.02094338737535" type="curve" smooth="yes"/>
      <point x="80.02093957933872" y="496.020938833345" type="line" smooth="yes"/>
      <point x="80.02093480697815" y="652.6882937361081"/>
      <point x="112.97956987293034" y="680.0109897103464"/>
      <point x="173.01098623754046" y="680.0109897103464" type="curve" smooth="yes"/>
      <point x="231.49682495922255" y="680.0109897103464"/>
      <point x="253.14377820695458" y="680.0167942589142"/>
      <point x="312.0177652706325" y="680.0209379755732" type="curve" smooth="yes"/>
      <point x="508.304985980289" y="680.0347532217787"/>
      <point x="615.0218042089496" y="537.2952146443753"/>
      <point x="615.0218101877794" y="341.02181660030834" type="curve" smooth="yes"/>
      <point x="615.0218162105981" y="143.30434102274646"/>
      <point x="489.24747032411443" y="0.02440473010147101"/>
      <point x="303.0217861207861" y="0.020947081002624657" type="curve" smooth="yes"/>
      <point x="274.5771047891675" y="0.02041894909002575"/>
      <point x="253.468205003841" y="0.018957354222807903"/>
      <point x="225.02085051662033" y="0.015711378463890924" type="curve" smooth="yes"/>
      <point x="157.52085095604107" y="0.008009313804560169"/>
      <point x="157.51058153649527" y="90.00800872791024"/>
      <point x="225.01058109707452" y="90.01571079256956" type="curve" smooth="yes"/>
      <point x="251.01782224719756" y="90.01867834002172"/>
      <point x="277.0153178038491" y="90.02046423486242"/>
      <point x="303.02011509219227" y="90.02094706548965" type="curve" smooth="yes"/>
      <point x="440.68587337666725" y="90.02350310327309"/>
      <point x="525.0218146400971" y="194.86084622467087"/>
      <point x="525.0218101877794" y="341.0218138587515" type="curve" smooth="yes"/>
      <point x="525.0218057503254" y="486.69483493355096"/>
      <point x="457.7073799035461" y="590.0311917971538"/>
      <point x="312.024099723335" y="590.0209381984915" type="curve" smooth="yes"/>
      <point x="234.4589531764464" y="590.015478945502"/>
      <point x="217.42984262832255" y="590.0109897103464"/>
      <point x="173.01098623754046" y="590.0109897103464" type="curve" smooth="yes"/>
      <point x="169.9187682723119" y="590.0109897103464"/>
      <point x="170.02093933351438" y="504.09087626464446"/>
      <point x="170.02093957933866" y="496.0209415749017" type="curve" smooth="yes"/>
      <point x="170.02094868739943" y="197.02094612893214" type="line" smooth="yes"/>
      <point x="170.02095137014848" y="108.95149117956244"/>
      <point x="170.01902175573912" y="73.42328426982147"/>
      <point x="170.01571702554745" y="45.01047707760563" type="curve" smooth="yes"/>
      <point x="170.00786601368083" y="-22.48952246581372"/>
      <point x="80.00786662245503" y="-22.479054449991523"/>
    </contour>
  </outline>
</glyph>
<glyph name="E" format="2">
  <advance width="523"/>
  <unicode hex="0045"/>
  <outline>
    <contour>
      <point x="423.01088470132447" y="590.0157023562717" type="curve" smooth="yes"/>
      <point x="363.3129708215635" y="590.0220821716588"/>
      <point x="346.41449558266504" y="590.0209380870324"/>
      <point x="294.02093172782475" y="590.0209380870324" type="curve" smooth="yes"/>
      <point x="250.15655268656315" y="590.0209380870324"/>
      <point x="237.09113095746753" y="590.0209380870324"/>
      <point x="206.0209330681414" y="590.0209380870324" type="curve" smooth="yes"/>
      <point x="168.36782396727153" y="590.0209380870324"/>
      <point x="170.0209359442596" y="581.1035482916463"/>
      <point x="170.0209370738604" y="544.02094084382" type="curve" smooth="yes"/>
      <point x="170.0209382093524" y="506.7449382886656"/>
      <point x="170.01745205039848" y="450.8617735694926"/>
      <point x="170.01395890703486" y="426.0076353948537" type="curve" smooth="yes"/>
      <point x="170.01198986368874" y="411.99765346694636"/>
      <point x="176.6596146777749" y="394.9999984769129"/>
      <point x="188.99999805806397" y="394.9999984769129" type="curve" smooth="yes"/>
      <point x="242.61201688627256" y="394.9999984769129"/>
      <point x="298.11815644537273" y="394.9999984769129"/>
      <point x="338.99999577343334" y="394.9999984769129" type="curve" smooth="yes"/>
      <point x="345.3352716046334" y="394.9999984769129"/>
      <point x="345.35621555523204" y="305.0209424278305"/>
      <point x="339.02093972403196" y="305.0209424278305" type="curve" smooth="yes"/>
      <point x="285.40892089582366" y="305.0209424278305"/>
      <point x="232.5380548946149" y="305.0209424278305"/>
      <point x="190.0209419934317" y="305.0209424278305" type="curve" smooth="yes"/>
      <point x="177.2453469248349" y="305.0209424278305"/>
      <point x="170.0209442817126" y="307.40111559908013"/>
      <point x="170.0209445979106" y="297.0209446058451" type="curve" smooth="yes"/>
      <point x="170.02094675065382" y="226.35055615047926"/>
      <point x="170.02094900716972" y="152.27350837401238"/>
      <point x="170.0209499287154" y="122.02094727124744" type="curve" smooth="yes"/>
      <point x="170.0209509219027" y="89.41653026680228"/>
      <point x="174.62352590308834" y="90.02094707324616"/>
      <point x="204.02095107103074" y="90.02094707324613" type="curve" smooth="yes"/>
      <point x="240.57460027208197" y="90.02094707324612"/>
      <point x="253.6802047560666" y="90.02094707324613"/>
      <point x="288.0209497916376" y="90.02094707324613" type="curve" smooth="yes"/>
      <point x="319.0911476809638" y="90.02094707324613"/>
      <point x="377.2365407202105" y="90.01999202502701"/>
      <point x="423.01991963145696" y="90.01571088878023" type="curve" smooth="yes"/>
      <point x="490.51991933635225" y="90.00939906332532"/>
      <point x="490.51150356907897" y="0.009399456798305481"/>
      <point x="423.0115038641837" y="0.01571128225322127" type="curve" smooth="yes"/>
      <point x="354.78440517084374" y="0.02209109763978267"/>
      <point x="334.32223877963565" y="0.02094707324612544"/>
      <point x="288.0209497916376" y="0.020947073246134096" type="curve" smooth="yes"/>
      <point x="236.84584091016563" y="0.020947073246142752"/>
      <point x="228.55005466786716" y="0.020947073246122477"/>
      <point x="204.02095107103074" y="0.020947073246134096" type="curve" smooth="yes"/>
      <point x="125.0106108652674" y="0.020947073246174928"/>
      <point x="80.0209525980672" y="34.391294483298644"/>
      <point x="80.02094992871545" y="122.02094452969071" type="curve" smooth="yes"/>
      <point x="80.02094855541378" y="167.10377854432068"/>
      <point x="80.0209460424958" y="249.59800824373784"/>
      <point x="80.02094459791067" y="297.02094186428826" type="curve" smooth="yes"/>
      <point x="80.02094271352207" y="358.88176953722996"/>
      <point x="113.88453870365741" y="395.0209424278305"/>
      <point x="190.0209419934317" y="395.0209424278305" type="curve" smooth="yes"/>
      <point x="253.38060060858734" y="395.0209424278305"/>
      <point x="303.0449211153386" y="395.0209424278305"/>
      <point x="339.02093972403196" y="395.0209424278305" type="curve" smooth="yes"/>
      <point x="496.22790845720243" y="395.0209424278305"/>
      <point x="496.2069645066038" y="304.9999984769129"/>
      <point x="338.99999577343334" y="304.9999984769129" type="curve" smooth="yes"/>
      <point x="278.0772471050144" y="304.9999984769129"/>
      <point x="224.9760166667574" y="304.9999984769129"/>
      <point x="188.99999805806397" y="304.9999984769129" type="curve" smooth="yes"/>
      <point x="128.44835671003153" y="304.9999984769129"/>
      <point x="80.00429811825883" y="357.27627755116964"/>
      <point x="80.01395979592462" y="426.02028451176983" type="curve" smooth="yes"/>
      <point x="80.01889699435121" y="461.1490493854092"/>
      <point x="80.02093867876144" y="491.3351471088993"/>
      <point x="80.02093707386047" y="544.0209381022632" type="curve" smooth="yes"/>
      <point x="80.02093431974546" y="634.4332004529863"/>
      <point x="114.21771283509963" y="680.0209380870324"/>
      <point x="206.0209330681414" y="680.0209380870324" type="curve" smooth="yes"/>
      <point x="252.32222205613968" y="680.0209380870324"/>
      <point x="264.58600741162104" y="680.0209380870324"/>
      <point x="294.02093172782475" y="680.0209380870324" type="curve" smooth="yes"/>
      <point x="329.17931354995693" y="680.0209380870324"/>
      <point x="382.960581444143" y="680.0199829785813"/>
      <point x="423.02050284946097" y="680.015701842334" type="curve" smooth="yes"/>
      <point x="490.52050246400773" y="680.0084882312316"/>
      <point x="490.51088431587124" y="590.0084887451693"/>
    </contour>
  </outline>
</glyph>
<glyph name="F" format="2">
  <advance width="503"/>
  <unicode hex="0046"/>
  <outline>
    <contour>
      <point x="80.02094995917719" y="116.0209446210759" type="curve" smooth="yes"/>
      <point x="80.02094364941277" y="323.15829009370003"/>
      <point x="80.02331047254451" y="442.798244761096"/>
      <point x="80.02093674980878" y="550.0199431511854" type="curve" smooth="yes"/>
      <point x="80.01903428095329" y="635.9549762337513"/>
      <point x="112.98834203750988" y="680.0139567700598"/>
      <point x="210.013951538043" y="680.0139567700598" type="curve" smooth="yes"/>
      <point x="262.4075153928832" y="680.0139567700598"/>
      <point x="365.02676997673336" y="680.0209380870324"/>
      <point x="423.0209296107337" y="680.0209380870324" type="curve" smooth="yes"/>
      <point x="490.5209296107337" y="680.0209380870324"/>
      <point x="490.5209296107337" y="590.0209380870324"/>
      <point x="423.0209296107337" y="590.0209380870324" type="curve" smooth="yes"/>
      <point x="336.5971368046881" y="590.0209380870324"/>
      <point x="245.17233336017514" y="590.0139567700598"/>
      <point x="210.013951538043" y="590.0139567700598" type="curve" smooth="yes"/>
      <point x="168.80392233084498" y="590.0139567700598"/>
      <point x="170.02012868544924" y="586.5214251951802"/>
      <point x="170.02093672775376" y="550.0219356121273" type="curve" smooth="yes"/>
      <point x="170.02252959993388" y="478.07146814515784"/>
      <point x="170.0209457250482" y="255.0192010780391"/>
      <point x="170.02094995917713" y="116.02094736263268" type="curve" smooth="yes"/>
      <point x="170.02095201534473" y="48.52094736263271"/>
      <point x="80.02095201534479" y="48.52094462107593"/>
    </contour>
    <contour>
      <point x="170.02094998963886" y="115.02094737786358" type="curve" smooth="yes"/>
      <point x="170.02095535690137" y="-61.17588282629545"/>
      <point x="80.00018603786049" y="-64.43468660764958"/>
      <point x="80.00018072427068" y="110.00017529446785" type="curve" smooth="yes"/>
      <point x="80.00017925477886" y="158.24074570157956"/>
      <point x="80.00017832817277" y="188.6594285378085"/>
      <point x="80.00017728209386" y="223.0001735733795" type="curve" smooth="yes"/>
      <point x="80.00017439924936" y="317.6383795297984"/>
      <point x="144.85828374179124" y="375.0132634217523"/>
      <point x="234.016201487763" y="375.0191973035403" type="curve" smooth="yes"/>
      <point x="277.3538052642936" y="375.0220816263719"/>
      <point x="370.95283938874405" y="375.0207670957239"/>
      <point x="402.02146752813684" y="375.01919734576677" type="curve" smooth="yes"/>
      <point x="469.52146744197984" y="375.0157868918565"/>
      <point x="469.51692017009947" y="285.0157870067325"/>
      <point x="402.01692025625647" y="285.0191974606428" type="curve" smooth="yes"/>
      <point x="355.71797053386433" y="285.02153672628435"/>
      <point x="298.60455820993707" y="285.02349576532106"/>
      <point x="234.02219141420295" y="285.01919750286925" type="curve" smooth="yes"/>
      <point x="193.27463586361227" y="285.0164855600167"/>
      <point x="170.0001759645567" y="266.2523703085723"/>
      <point x="170.00017728209383" y="223.00017631493617" type="curve" smooth="yes"/>
      <point x="170.0001788409769" y="171.82506743346423"/>
      <point x="170.00017853441116" y="181.8890214647588"/>
      <point x="170.00018072427062" y="110.00017803602464" type="curve" smooth="yes"/>
      <point x="170.00018095171566" y="102.5336029492533"/>
      <point x="80.0209502193812" y="107.47894959916397"/>
      <point x="80.02094998963892" y="115.02094463630677" type="curve" smooth="yes"/>
      <point x="80.02094793347139" y="182.52094463630675"/>
      <point x="170.02094793347135" y="182.52094737786354"/>
    </contour>
  </outline>
</glyph>
<glyph name="G" format="2">
  <advance width="653"/>
  <unicode hex="0047"/>
  <outline>
    <contour>
      <point x="517.7068298970978" y="568.480201785022" type="curve" smooth="yes"/>
      <point x="464.174106437406" y="590.7899152775467"/>
      <point x="414.0377065387261" y="601.4246672194637"/>
      <point x="369.42631906458564" y="601.02276394863" type="curve" smooth="yes"/>
      <point x="222.4570929191045" y="599.6987205587216"/>
      <point x="135.02094038194744" y="485.4228515628168"/>
      <point x="135.02094478068105" y="341.0209439356868" type="curve" smooth="yes"/>
      <point x="135.0209492203549" y="195.27504991387642"/>
      <point x="216.12737112231585" y="80.02094722555493"/>
      <point x="361.02094997440804" y="80.02094722555483" type="curve" smooth="yes"/>
      <point x="417.7569808397742" y="80.02094722555478"/>
      <point x="497.92574779647737" y="102.75817256107132"/>
      <point x="505.2646215130756" y="125.07148712914108" type="curve" smooth="yes"/>
      <point x="515.5422143777807" y="156.3197646508062"/>
      <point x="513.0083134802874" y="195.34892280042783"/>
      <point x="513.009595828055" y="249.01067468509936" type="curve" smooth="yes"/>
      <point x="513.0099243864962" y="262.759691908207"/>
      <point x="514.8707927652213" y="275.01570689702726"/>
      <point x="506.0157030966857" y="275.01570689702726" type="curve" smooth="yes"/>
      <point x="457.2775041619506" y="275.01570689702726"/>
      <point x="409.90953493287327" y="275.01570689702726"/>
      <point x="387.01570490915935" y="275.01570689702726" type="curve" smooth="yes"/>
      <point x="319.51570490915935" y="275.01570689702726"/>
      <point x="319.51570490915935" y="365.01570689702726"/>
      <point x="387.01570490915935" y="365.01570689702726" type="curve" smooth="yes"/>
      <point x="421.13244416347396" y="365.01570689702726"/>
      <point x="473.3102316342371" y="365.01570689702726"/>
      <point x="506.0157030966857" y="365.01570689702726" type="curve" smooth="yes"/>
      <point x="564.260761047457" y="365.01570689702726"/>
      <point x="603.0117569216858" y="339.44378040171176"/>
      <point x="603.0095958023572" y="249.00852396703684" type="curve" smooth="yes"/>
      <point x="603.0078003435443" y="173.874876311633"/>
      <point x="605.1491247250137" y="140.7040319107622"/>
      <point x="590.7591166853578" y="96.95225358274763" type="curve" smooth="yes"/>
      <point x="573.8152800271149" y="45.435744109327196"/>
      <point x="492.0118999134406" y="-9.979052774445247"/>
      <point x="361.02094997440804" y="-9.979052774445165" type="curve" smooth="yes"/>
      <point x="165.99286362289752" y="-9.97905277444505"/>
      <point x="45.02095075652279" y="144.84563080525774"/>
      <point x="45.0209447806811" y="341.02094119412993" type="curve" smooth="yes"/>
      <point x="45.02093888661072" y="534.5118574711425"/>
      <point x="171.68455615507762" y="689.2449637996988"/>
      <point x="368.6155434162881" y="691.0191118903556" type="curve" smooth="yes"/>
      <point x="423.9682806258785" y="691.5177838078572"/>
      <point x="485.9059319540762" y="679.2360500543501"/>
      <point x="552.328048403506" y="651.5546938336138" type="curve" smooth="yes"/>
      <point x="614.6339174399499" y="625.5887799538076"/>
      <point x="580.0126989335416" y="542.5142879052158"/>
    </contour>
  </outline>
</glyph>
<glyph name="J" format="2">
  <advance width="448"/>
  <unicode hex="004A"/>
  <anchor x="293" y="-8" name="below"/>
  <anchor x="333" y="679" name="above"/>
  <outline>
    <contour>
      <point x="83" y="113" type="curve" smooth="yes"/>
      <point x="125" y="93"/>
      <point x="158.72304194170758" y="84.97922530222192"/>
      <point x="187.97931840995963" y="84.97905924684044" type="curve" smooth="yes"/>
      <point x="252.763259445905" y="84.97869154037394"/>
      <point x="286.97905813795876" y="127.41576042135117"/>
      <point x="286.97905580570745" y="203.97905537892407" type="curve" smooth="yes"/>
      <point x="286.97905338976335" y="283.2898236753619"/>
      <point x="287" y="371"/>
      <point x="286.97904782473114" y="465.97905138843583" type="curve" smooth="yes"/>
      <point x="287" y="526"/>
      <point x="287" y="579"/>
      <point x="286.9842786698102" y="639.9880543214597" type="curve" smooth="yes"/>
      <point x="287" y="707"/>
      <point x="376.9899306912966" y="707.480517635426"/>
      <point x="376.9842783542653" y="639.9805178720846" type="curve" smooth="yes"/>
      <point x="376.9791763578468" y="579.0526653513566"/>
      <point x="376.97904567198793" y="536.6494425853585"/>
      <point x="376.97904782473114" y="465.9790541299927" type="curve" smooth="yes"/>
      <point x="376.9790502406753" y="386.6682858335549"/>
      <point x="376.9790522054302" y="322.16919053721335"/>
      <point x="376.97905580570745" y="203.97905812048086" type="curve" smooth="yes"/>
      <point x="376.979059802609" y="72.76851865457903"/>
      <point x="299.00244961239594" y="-5.021570909592446"/>
      <point x="187.97880757939734" y="-5.020940751709858" type="curve" smooth="yes"/>
      <point x="147.27219339425457" y="-5.020709705481029"/>
      <point x="100.76845313810723" y="4.945265693318411"/>
      <point x="49.59700981603257" y="29.37219787098517" type="curve" smooth="yes"/>
      <point x="-11.318517551177841" y="58.45051497453571"/>
      <point x="27" y="140"/>
    </contour>
  </outline>
</glyph>
<glyph name="M" format="2">
  <advance width="808"/>
  <unicode hex="004D"/>
  <outline>
    <contour>
      <point x="80.01606787526379" y="40.020303851826164" type="curve" smooth="yes"/>
      <point x="80.01989499541831" y="80.60363398478765"/>
      <point x="80.02095242138464" y="111.44144229613828"/>
      <point x="80.0209511852623" y="152.02094407276454" type="curve" smooth="yes"/>
      <point x="80.02094809683881" y="253.40790560635503"/>
      <point x="80.02111889744732" y="375.9326961964335"/>
      <point x="80.02111429503086" y="527.0211128941123" type="curve" smooth="yes"/>
      <point x="80.02110793776083" y="735.7179746760911"/>
      <point x="180.72165200962064" y="757.0866476773956"/>
      <point x="262.0660817530443" y="542.9819865570297" type="curve" smooth="yes"/>
      <point x="308.14062032937557" y="421.7103334238273"/>
      <point x="357.1943996278419" y="286.5324437240346"/>
      <point x="401.3295247164415" y="164.28443324712907" type="curve" smooth="yes"/>
      <point x="404.5700348379013" y="155.30868174572328"/>
      <point x="403.30249640275434" y="154.64963927862007"/>
      <point x="406.5575525069471" y="163.92237422822362" type="curve" smooth="yes"/>
      <point x="449.5183981938443" y="286.3056826917237"/>
      <point x="500.97372946043714" y="424.48264747354716"/>
      <point x="545.9049337990889" y="543.8712857628226" type="curve" smooth="yes"/>
      <point x="627.3485019489622" y="760.2784985663451"/>
      <point x="727.9998063603382" y="737.7370955741789"/>
      <point x="727.9998127493011" y="527.9998226036721" type="curve" smooth="yes"/>
      <point x="727.9998172774855" y="379.34831585273014"/>
      <point x="728.0191941663013" y="256.770889369392"/>
      <point x="728.019197204911" y="157.01920140892386" type="curve" smooth="yes"/>
      <point x="728.0191982781466" y="121.78695519224117"/>
      <point x="728.0188622863851" y="75.24708485587804"/>
      <point x="728.0157099304096" y="40.011685209935855" type="curve" smooth="yes"/>
      <point x="728.0096710028067" y="-27.48831451992603"/>
      <point x="638.009671362991" y="-27.480262616455583"/>
      <point x="638.0157102905938" y="40.0197371134063" type="curve" smooth="yes"/>
      <point x="638.0195354304043" y="82.77516542053041"/>
      <point x="638.0191985071995" y="114.2675968024"/>
      <point x="638.019197204911" y="157.01919866736708" type="curve" smooth="yes"/>
      <point x="638.0191926767267" y="305.6707054183089"/>
      <point x="637.9998157879108" y="428.248131901647"/>
      <point x="637.9998127493011" y="527.9998198621151" type="curve" smooth="yes"/>
      <point x="637.9998123932004" y="539.6899121696867"/>
      <point x="634.6766875521071" y="524.2327963968772"/>
      <point x="630.1372806262627" y="512.1709427364971" type="curve" smooth="yes"/>
      <point x="585.4561836012913" y="393.4468753628257"/>
      <point x="534.1990651365057" y="255.81460329862696"/>
      <point x="491.4773588598773" y="134.11253543327493" type="curve" smooth="yes"/>
      <point x="431.4148721281748" y="-36.98851537803969"/>
      <point x="376.47154752704034" y="-31.89854360695796"/>
      <point x="316.6774641244749" y="133.72255114647942" type="curve" smooth="yes"/>
      <point x="272.74410360920155" y="255.41170249192547"/>
      <point x="223.7974658472071" y="390.30039850109836"/>
      <point x="177.93355791026806" y="511.01765593921925" type="curve" smooth="yes"/>
      <point x="173.40647067241528" y="522.933290260833"/>
      <point x="170.02111394122767" y="538.6357879928689"/>
      <point x="170.0211142950308" y="527.021115635669" type="curve" smooth="yes"/>
      <point x="170.02111738345425" y="425.6341541020785"/>
      <point x="170.0209465828459" y="303.10936351200013"/>
      <point x="170.02095118526225" y="152.02094681432132" type="curve" smooth="yes"/>
      <point x="170.02095220295126" y="118.61218683489417"/>
      <point x="170.01921831067403" y="73.42372843597326"/>
      <point x="170.01606747507827" y="40.01181660321327" type="curve" smooth="yes"/>
      <point x="170.00970203861863" y="-27.48818309664761"/>
      <point x="80.00970243880414" y="-27.479695848034716"/>
    </contour>
  </outline>
</glyph>
<glyph name="N" format="2">
  <advance width="688"/>
  <unicode hex="004E"/>
  <outline>
    <contour>
      <point x="170.02093540608007" y="640.0209393816563" type="curve" smooth="yes"/>
      <point x="170.02093733612574" y="576.6612807665009"/>
      <point x="170.02093883250475" y="527.5380546436245"/>
      <point x="170.02094012765002" y="485.0209417424414" type="curve" smooth="yes"/>
      <point x="170.02094409908997" y="354.6462595920251"/>
      <point x="170.02094724085856" y="251.5080827936008"/>
      <point x="170.0209499058691" y="164.02094663155088" type="curve" smooth="yes"/>
      <point x="170.02095103245162" y="127.03742158743536"/>
      <point x="170.0199123072703" y="76.99960259346999"/>
      <point x="170.01676473005898" y="40.012928845512675" type="curve" smooth="yes"/>
      <point x="170.01102045950253" y="-27.487070910067743"/>
      <point x="80.01102078539532" y="-27.479411882659164"/>
      <point x="80.01676505595175" y="40.020587872921254" type="curve" smooth="yes"/>
      <point x="80.02059581981422" y="85.03527811807069"/>
      <point x="80.02095127697831" y="119.0100857798746"/>
      <point x="80.02094990586914" y="164.0209438899941" type="curve" smooth="yes"/>
      <point x="80.02094593442926" y="294.3956260404103"/>
      <point x="80.0209427926606" y="397.5338028388346"/>
      <point x="80.02094012765008" y="485.02093900088454" type="curve" smooth="yes"/>
      <point x="80.02093819760447" y="548.3805976160401"/>
      <point x="80.0209367012255" y="597.5038237389165"/>
      <point x="80.02093540608013" y="640.0209366400995" type="curve" smooth="yes"/>
      <point x="80.0209333499126" y="707.5209366400995"/>
      <point x="170.02093334991255" y="707.5209393816563"/>
    </contour>
    <contour>
      <point x="526.7941700070056" y="13.276649126866811" type="curve" smooth="yes"/>
      <point x="495.7114829846796" y="55.388674967507235"/>
      <point x="465.32217717506825" y="97.5281904228661"/>
      <point x="434.6757217287083" y="139.43787104284712" type="curve" smooth="yes"/>
      <point x="348.4310117181264" y="257.3793490722639"/>
      <point x="261.599473137509" y="376.38590980336926"/>
      <point x="175.61683081763334" y="494.5185787153393" type="curve" smooth="yes"/>
      <point x="146.6415258931135" y="534.3281264440258"/>
      <point x="117.58679234348241" y="573.5598745559854"/>
      <point x="88.5675220301261" y="613.5864526167811" type="curve" smooth="yes"/>
      <point x="48.94720986535731" y="668.2351567548142"/>
      <point x="121.81214871606807" y="721.0622396411725"/>
      <point x="161.43246088083686" y="666.4135355031394" type="curve" smooth="yes"/>
      <point x="191.10777601654118" y="625.4820680702284"/>
      <point x="220.05194158364515" y="586.406037396647"/>
      <point x="248.38315669305257" y="547.4814130295289" type="curve" smooth="yes"/>
      <point x="334.2716493723601" y="429.4780975314261"/>
      <point x="421.17400611020736" y="310.3744654824971"/>
      <point x="507.3242795202231" y="192.5621315159392" type="curve" smooth="yes"/>
      <point x="537.3040963979888" y="151.56409333851244"/>
      <point x="567.4367526131006" y="109.76533959416153"/>
      <point x="599.2058361158043" y="66.72335727009896" type="curve" smooth="yes"/>
      <point x="639.2908672232284" y="12.4146076884998"/>
      <point x="566.8792011144296" y="-41.032100454732344"/>
    </contour>
    <contour>
      <point x="608.0167397816036" y="640.0205821283188" type="curve" smooth="yes"/>
      <point x="608.01988961198" y="603.040205788045"/>
      <point x="608.0209313856323" y="553.0044663143998"/>
      <point x="608.0209325122146" y="516.0209412702844" type="curve" smooth="yes"/>
      <point x="608.0209363723055" y="389.301624039973"/>
      <point x="608.0209389422824" y="304.93425382329207"/>
      <point x="608.0209419858163" y="205.02094600708523" type="curve" smooth="yes"/>
      <point x="608.0209430318954" y="170.6802009715142"/>
      <point x="608.020945643508" y="84.94600175778477"/>
      <point x="608.0209470120036" y="40.02094852017884" type="curve" smooth="yes"/>
      <point x="608.0209490681711" y="-27.47905147982113"/>
      <point x="518.0209490681711" y="-27.479054221377844"/>
      <point x="518.0209470120036" y="40.02094577862213" type="curve" smooth="yes"/>
      <point x="518.0209449726506" y="106.96895429034755"/>
      <point x="518.0209435446993" y="153.8458343840565"/>
      <point x="518.0209419858163" y="205.02094326552833" type="curve" smooth="yes"/>
      <point x="518.0209399434715" y="272.06715976354826"/>
      <point x="518.0209351025055" y="430.98671272636113"/>
      <point x="518.0209325122146" y="516.0209385287275" type="curve" smooth="yes"/>
      <point x="518.0209311411048" y="561.031796638847"/>
      <point x="518.0205736141553" y="595.0058903379801"/>
      <point x="518.0167401080743" y="640.0129163130701" type="curve" smooth="yes"/>
      <point x="518.0109907466378" y="707.5129160682171"/>
      <point x="608.0109904201672" y="707.5205818834658"/>
    </contour>
  </outline>
</glyph>
<glyph name="P" format="2">
  <advance width="555"/>
  <unicode hex="0050"/>
  <outline>
    <contour>
      <point x="225.01281998161983" y="343.0171032916223" type="curve" smooth="yes"/>
      <point x="243.61678921580068" y="343.018874216778"/>
      <point x="278.27054782113163" y="343.0203350135545"/>
      <point x="307.01999006130654" y="343.0209432097662" type="curve" smooth="yes"/>
      <point x="380.29198566223795" y="343.022493283321"/>
      <point x="430.019533830441" y="392.00017996252603"/>
      <point x="430.01744372227427" y="466.01617926558265" type="curve" smooth="yes"/>
      <point x="430.0153167934583" y="541.3360905827739"/>
      <point x="378.70440449284484" y="590.0120633596833"/>
      <point x="295.01099601251997" y="590.0097679968002" type="curve" smooth="yes"/>
      <point x="267.97613456952064" y="590.0090265427403"/>
      <point x="233.04279105968655" y="590.0087207823303"/>
      <point x="206.0087160073195" y="590.0087207823303" type="curve" smooth="yes"/>
      <point x="168.31792553867862" y="590.0087207823303"/>
      <point x="170.0209360040526" y="587.1406586382175"/>
      <point x="170.02093713478388" y="550.0209407524349" type="curve" smooth="yes"/>
      <point x="170.02094022320736" y="448.6339792188442"/>
      <point x="170.02094567700794" y="269.5962665131748"/>
      <point x="170.0209484665518" y="178.0209464183187" type="curve" smooth="yes"/>
      <point x="170.02094973052252" y="136.52723539321343"/>
      <point x="170.02060932222258" y="81.51090307504602"/>
      <point x="170.01746188239952" y="40.01404334609898" type="curve" smooth="yes"/>
      <point x="170.01234216517665" y="-27.485956459741722"/>
      <point x="80.01234242405573" y="-27.479130170111254"/>
      <point x="80.01746214127859" y="40.02086963572945" type="curve" smooth="yes"/>
      <point x="80.02129273793263" y="90.52468891869839"/>
      <point x="80.0209500048694" y="127.52095652882298"/>
      <point x="80.02094846655186" y="178.0209436767619" type="curve" smooth="yes"/>
      <point x="80.0209443095306" y="314.4879006940199"/>
      <point x="80.0209417372004" y="398.93252131319906"/>
      <point x="80.02093713478394" y="550.0209380108779" type="curve" smooth="yes"/>
      <point x="80.0209343806689" y="640.4332003616006"/>
      <point x="114.2054957742777" y="680.0087207823303"/>
      <point x="206.0087160073195" y="680.0087207823303" type="curve" smooth="yes"/>
      <point x="238.959965859162" y="680.0087207823303"/>
      <point x="262.0563193196943" y="680.0088642206218"/>
      <point x="295.0085276860839" y="680.0097679629522" type="curve" smooth="yes"/>
      <point x="431.24186102654267" y="680.0135042779435"/>
      <point x="520.0139815427442" y="588.6219552351365"/>
      <point x="520.0174436863904" y="466.0187207395438" type="curve" smooth="yes"/>
      <point x="520.0209442590539" y="342.0546178583309"/>
      <point x="429.7399183159202" y="253.02353933722597"/>
      <point x="307.02189401694204" y="253.02094322990536" type="curve" smooth="yes"/>
      <point x="267.80523066632855" y="253.0201135989901"/>
      <point x="250.39876985642888" y="253.0195193906154"/>
      <point x="225.02138714593877" y="253.01710369937953" type="curve" smooth="yes"/>
      <point x="157.5213874517567" y="253.01067832614035"/>
      <point x="157.51282028743776" y="343.01067791838307"/>
    </contour>
  </outline>
</glyph>
<glyph name="Q" format="2">
  <advance width="732"/>
  <unicode hex="0051"/>
  <outline>
    <contour>
      <point x="525.9030747035973" y="-52.896150830682245" type="curve" smooth="yes"/>
      <point x="493.7530578803188" y="-1.65706400615813"/>
      <point x="454.40964648362655" y="64.82466292720184"/>
      <point x="422.68047041433476" y="116.46233906681275" type="curve" smooth="yes"/>
      <point x="417.3984348714144" y="125.05859256320285"/>
      <point x="493.99109205761897" y="172.22113345785976"/>
      <point x="499.2907299096188" y="163.6357206961738" type="curve" smooth="yes"/>
      <point x="513.2521267785708" y="141.01825923992874"/>
      <point x="529.7719564592442" y="141.98839760479507"/>
      <point x="547.8778970909177" y="168.43151035701817" type="curve" smooth="yes"/>
      <point x="580.5225148445072" y="216.10786838623395"/>
      <point x="597.0160774421263" y="274.77580564671524"/>
      <point x="597.0174463260348" y="341.0183818185637" type="curve" smooth="yes"/>
      <point x="597.0205623061715" y="491.8058593025372"/>
      <point x="506.02695185334835" y="600.0209379347236"/>
      <point x="368.02093188774893" y="600.0209379347236" type="curve" smooth="yes"/>
      <point x="228.95452758598333" y="600.0209379347236"/>
      <point x="135.0209407562608" y="492.8848701057131"/>
      <point x="135.02094538230048" y="341.0209439356868" type="curve" smooth="yes"/>
      <point x="135.02095044255515" y="174.90258656968734"/>
      <point x="246.10960586217544" y="66.4308569014272"/>
      <point x="389.2269594334744" y="81.76485911982712" type="curve" smooth="yes"/>
      <point x="456.34282732057545" y="88.95584498834324"/>
      <point x="465.930808478597" y="-0.5319788611248093"/>
      <point x="398.81494059149594" y="-7.722964729640928" type="curve" smooth="yes"/>
      <point x="206.08130294374507" y="-28.37299740215381"/>
      <point x="45.02095219685689" y="117.31225390857382"/>
      <point x="45.02094538230053" y="341.02094119412993" type="curve" smooth="yes"/>
      <point x="45.02093916813521" y="545.0199535654397"/>
      <point x="181.21284752525742" y="690.0209379347236"/>
      <point x="368.02093188774893" y="690.0209379347236" type="curve" smooth="yes"/>
      <point x="553.8712259403648" y="690.0209379347236"/>
      <point x="687.0216425427856" y="544.0793814031246"/>
      <point x="687.0174463068186" y="341.0165219942805" type="curve" smooth="yes"/>
      <point x="687.015674994709" y="255.29977376288107"/>
      <point x="664.3797307328606" y="179.2769328964023"/>
      <point x="622.1381597855659" y="117.58454993142504" type="curve" smooth="yes"/>
      <point x="563.449981009792" y="31.872453544916123"/>
      <point x="467.96063149107744" y="43.04977170342158"/>
      <point x="422.7064813713524" y="116.36149012782876" type="curve" smooth="yes"/>
      <point x="309.84224090124263" y="299.2015477941151"/>
      <point x="386.8720500703086" y="346.6504805875506"/>
      <point x="499.36142129458017" y="163.57955218581404" type="curve" smooth="yes"/>
      <point x="531.3796793839742" y="111.4714092525103"/>
      <point x="570.2799073182501" y="45.713193488929036"/>
      <point x="602.1388241638268" y="-5.061952768656511" type="curve" smooth="yes"/>
      <point x="638.0144727103461" y="-62.238764863828685"/>
      <point x="561.7787232501166" y="-110.07296292585443"/>
    </contour>
  </outline>
</glyph>
<glyph name="R" format="2">
  <advance width="595"/>
  <unicode hex="0052"/>
  <outline>
    <contour>
      <point x="80.01571737249105" y="40.02159950625535" type="curve" smooth="yes"/>
      <point x="80.02209570313005" y="88.76617825637702"/>
      <point x="80.02095036539045" y="125.68574970800371"/>
      <point x="80.02094928901886" y="161.02094393568672" type="curve" smooth="yes"/>
      <point x="80.0209474957407" y="219.8907925680941"/>
      <point x="80.02094144160687" y="418.63627887054946"/>
      <point x="80.0209385055623" y="515.0209385439584" type="curve" smooth="yes"/>
      <point x="80.02093505196693" y="628.3957889682135"/>
      <point x="105.76102404641017" y="680.0139567700598"/>
      <point x="197.0139524366644" y="680.0139567700598" type="curve" smooth="yes"/>
      <point x="227.47532677087386" y="680.0139567700598"/>
      <point x="254.1480114296381" y="680.0139567700598"/>
      <point x="280.0139511725021" y="680.0139567700598" type="curve" smooth="yes"/>
      <point x="413.729654783396" y="680.0139567700598"/>
      <point x="500.0202837567721" y="592.2407291982083"/>
      <point x="500.020934666677" y="476.0211925399101" type="curve" smooth="yes"/>
      <point x="500.0216059383705" y="356.1660718901207"/>
      <point x="411.876723205861" y="273.02094291521837"/>
      <point x="292.02094196296997" y="273.02094291521837" type="curve" smooth="yes"/>
      <point x="255.0209425265122" y="273.02094291521837" type="line" smooth="yes"/>
      <point x="248.08230709234076" y="273.02094291521837"/>
      <point x="248.1367830921137" y="362.99999896430074"/>
      <point x="254.9999985759136" y="362.99999896430074" type="curve" smooth="yes"/>
      <point x="338.4777766820879" y="362.99999896430074"/>
      <point x="393.14598546575945" y="316.1633146939857"/>
      <point x="432.78568601683094" y="259.9349806974067" type="curve" smooth="yes"/>
      <point x="475.65210305424523" y="199.12959667814664"/>
      <point x="512.6305596135375" y="134.19503760874193"/>
      <point x="557.7864181794041" y="64.4818289245563" type="curve" smooth="yes"/>
      <point x="594.4829768298672" y="7.8283861058438475"/>
      <point x="518.945053071584" y="-41.10035876144032"/>
      <point x="482.2484944211208" y="15.553084057272134" type="curve" smooth="yes"/>
      <point x="435.6210355737503" y="87.5382012109764"/>
      <point x="400.7396455618086" y="149.1931787495583"/>
      <point x="359.22722739366566" y="208.0779352263804" type="curve" smooth="yes"/>
      <point x="335.3692180088161" y="241.92017170988925"/>
      <point x="305.24290116589447" y="272.99999896430074"/>
      <point x="254.9999985759136" y="272.99999896430074" type="curve" smooth="yes"/>
      <point x="89.98587940316523" y="272.99999896430074"/>
      <point x="88.19348138483261" y="363.02094291521837"/>
      <point x="255.0209425265122" y="363.02094291521837" type="curve" smooth="yes"/>
      <point x="292.02094196296997" y="363.02094291521837" type="line" smooth="yes"/>
      <point x="362.09861743406253" y="363.02094291521837"/>
      <point x="410.0213271494474" y="405.9433992442433"/>
      <point x="410.02093466808856" y="476.0206884775714" type="curve" smooth="yes"/>
      <point x="410.02054446229516" y="545.6916769908241"/>
      <point x="360.1734967892323" y="590.0139567700598"/>
      <point x="280.0139511725021" y="590.0139567700598" type="curve" smooth="yes"/>
      <point x="241.46812808999346" y="590.0139567700598"/>
      <point x="217.4548721006947" y="590.0139567700598"/>
      <point x="197.0139524366644" y="590.0139567700598" type="curve" smooth="yes"/>
      <point x="163.19829627011808" y="590.0139567700598"/>
      <point x="170.0209372257612" y="557.0343322803153"/>
      <point x="170.02093850556224" y="515.0209412855152" type="curve" smooth="yes"/>
      <point x="170.0209428809012" y="371.38703211490434"/>
      <point x="170.02094661664808" y="248.74970475976664"/>
      <point x="170.0209492890188" y="161.0209466772435" type="curve" smooth="yes"/>
      <point x="170.02095017255456" y="132.0161799665218"/>
      <point x="170.02095223168405" y="80.02163443894102"/>
      <point x="170.0157166019888" y="40.00982281708681" type="curve" smooth="yes"/>
      <point x="170.00688408511243" y="-27.49017660503649"/>
      <point x="80.00688485561469" y="-27.478399915867946"/>
    </contour>
  </outline>
</glyph>
<glyph name="S" format="2">
  <advance width="521"/>
  <unicode hex="0053"/>
  <outline>
    <contour>
      <point x="120.28204351548081" y="115.13658909089128" type="curve" smooth="yes"/>
      <point x="167.8499326612011" y="94.00418713654983"/>
      <point x="215.7428965871786" y="83.02048600551902"/>
      <point x="258.02045957804046" y="83.02094717718498" type="curve" smooth="yes"/>
      <point x="328.38440997292054" y="83.0217147204853"/>
      <point x="384.02094556851875" y="112.65776074898159"/>
      <point x="384.0209434251335" y="183.0209436006075" type="curve" smooth="yes"/>
      <point x="384.020941173794" y="256.9280591307213"/>
      <point x="307.7939026718051" y="281.9206656060399"/>
      <point x="247.99299541953428" y="306.36702220073477" type="curve" smooth="yes"/>
      <point x="149.6918154529555" y="346.5521265672074"/>
      <point x="63.02094206569131" y="388.14879895218144"/>
      <point x="63.020938536024055" y="504.02093871149805" type="curve" smooth="yes"/>
      <point x="63.020935091482656" y="617.0985613132985"/>
      <point x="147.45377601483213" y="687.13451475571"/>
      <point x="270.6977047148045" y="688.019777108423" type="curve" smooth="yes"/>
      <point x="317.5922093916841" y="688.3566207970124"/>
      <point x="371.1827239834154" y="679.299783417436"/>
      <point x="427.00580570540495" y="658.0789445881792" type="curve" smooth="yes"/>
      <point x="490.1006690046395" y="634.0937778126299"/>
      <point x="458.12044663724043" y="549.9672934136506"/>
      <point x="395.0255833380059" y="573.9524601891999" type="curve" smooth="yes"/>
      <point x="350.8812964044798" y="590.7336691327364"/>
      <point x="308.4278240707936" y="598.2884711536456"/>
      <point x="271.34415892361545" y="598.0220988219477" type="curve" smooth="yes"/>
      <point x="200.9877296773897" y="597.5167278982841"/>
      <point x="153.02093656963393" y="568.5737177060952"/>
      <point x="153.020938536024" y="504.0209414530548" type="curve" smooth="yes"/>
      <point x="153.02094060620695" y="436.06084561980146"/>
      <point x="224.39432312076778" y="413.24380301062143"/>
      <point x="282.04888637408374" y="389.67486271584977" type="curve" smooth="yes"/>
      <point x="380.8584438939369" y="349.281935767361"/>
      <point x="474.02093970522566" y="305.1383140986862"/>
      <point x="474.0209434251335" y="183.0209463421644" type="curve" smooth="yes"/>
      <point x="474.0209471201183" y="61.72175831194297"/>
      <point x="379.32195251418625" y="-6.97772964850574"/>
      <point x="258.02144131508953" y="-6.979052817460534" type="curve" smooth="yes"/>
      <point x="204.34391128725935" y="-6.979638342126512"/>
      <point x="144.1367770229931" y="6.057185623375264"/>
      <point x="83.74240664427006" y="32.88785087977914" type="curve" smooth="yes"/>
      <point x="22.05585298593597" y="60.292578533187196"/>
      <point x="58.59548985714672" y="142.54131674429934"/>
    </contour>
  </outline>
</glyph>
<glyph name="T" format="2">
  <advance width="498"/>
  <unicode hex="0054"/>
  <outline>
    <contour>
      <point x="423.0" y="590.0" type="curve" smooth="yes"/>
      <point x="312.0" y="590.0"/>
      <point x="200" y="590.0"/>
      <point x="75.0" y="590.0" type="curve" smooth="yes"/>
      <point x="8" y="590"/>
      <point x="8" y="680.0"/>
      <point x="75.0" y="680.0" type="curve" smooth="yes"/>
      <point x="153" y="680"/>
      <point x="295" y="648"/>
      <point x="295.0" y="533.0" type="curve" smooth="yes"/>
      <point x="295.0" y="437.0"/>
      <point x="294.0" y="289.0"/>
      <point x="294.0" y="202.0" type="curve" smooth="yes"/>
      <point x="294.0" y="99.0"/>
      <point x="294" y="78"/>
      <point x="294.0" y="40.0" type="curve" smooth="yes"/>
      <point x="294.0" y="-28.0"/>
      <point x="204" y="-27"/>
      <point x="204.0" y="40.0" type="curve" smooth="yes"/>
      <point x="204" y="82"/>
      <point x="204.0" y="134.0"/>
      <point x="204.0" y="201.0" type="curve" smooth="yes"/>
      <point x="204.0" y="261.0"/>
      <point x="205" y="414"/>
      <point x="205.0" y="504.0" type="curve" smooth="yes"/>
      <point x="205" y="576"/>
      <point x="200" y="590.0"/>
      <point x="75.0" y="590.0" type="curve" smooth="yes"/>
      <point x="8" y="590"/>
      <point x="8" y="680.0"/>
      <point x="75.0" y="680.0" type="curve" smooth="yes"/>
      <point x="170" y="680"/>
      <point x="349.0" y="680.0"/>
      <point x="423.0" y="680.0" type="curve" smooth="yes"/>
      <point x="490.0" y="680.0"/>
      <point x="490.0" y="590.0"/>
    </contour>
  </outline>
</glyph>
<glyph name="U" format="2">
  <advance width="668"/>
  <unicode hex="0055"/>
  <outline>
    <contour>
      <point x="160.01569891452337" y="640.0224363855334" type="curve" smooth="yes"/>
      <point x="160.02093682922478" y="605.0219203072454"/>
      <point x="160.02093848254074" y="539.026694379788"/>
      <point x="160.02093954887692" y="504.02094145305483" type="curve" smooth="yes"/>
      <point x="160.02094285222415" y="395.5784488232691"/>
      <point x="160.02094452115688" y="340.79061905148853"/>
      <point x="160.02094673784796" y="268.02094504754035" type="curve" smooth="yes"/>
      <point x="160.02095007093564" y="158.60213307391186"/>
      <point x="231.27698936546213" y="80.02129115109835"/>
      <point x="335.02011140202103" y="80.01920188718634" type="curve" smooth="yes"/>
      <point x="442.3267902153654" y="80.01704085745094"/>
      <point x="508.0209434098312" y="158.273298680877"/>
      <point x="508.02094006672655" y="268.02094230598345" type="curve" smooth="yes"/>
      <point x="508.0209378500356" y="340.79061630993164"/>
      <point x="508.0209361811028" y="395.57844608171234"/>
      <point x="508.0209328777555" y="504.02093871149805" type="curve" smooth="yes"/>
      <point x="508.02093167714054" y="543.4348006146939"/>
      <point x="508.0215907517536" y="600.6010020575803"/>
      <point x="508.0156932512161" y="640.0089676607639" type="curve" smooth="yes"/>
      <point x="508.00559170763904" y="707.5089669049033"/>
      <point x="598.0055906998248" y="707.5224356296727"/>
      <point x="598.0156922434019" y="640.0224363855333" type="curve" smooth="yes"/>
      <point x="598.0209301581032" y="605.0219203072453"/>
      <point x="598.0209318114194" y="539.026694379788"/>
      <point x="598.0209328777555" y="504.0209414530548" type="curve" smooth="yes"/>
      <point x="598.0209350944467" y="431.2512674491066"/>
      <point x="598.0209367633792" y="376.4634376773261"/>
      <point x="598.0209400667266" y="268.0209450475404" type="curve" smooth="yes"/>
      <point x="598.0209449464512" y="107.82904676277077"/>
      <point x="491.64727070157295" y="-9.983952417007808"/>
      <point x="335.0182989088303" y="-9.980798094562935" type="curve" smooth="yes"/>
      <point x="182.8317607396327" y="-9.97773323748278"/>
      <point x="70.02095162733909" y="107.50841985669098"/>
      <point x="70.02094673784802" y="268.0209423059835" type="curve" smooth="yes"/>
      <point x="70.02094343450078" y="376.4634349357692"/>
      <point x="70.02094176556803" y="431.2512647075498"/>
      <point x="70.02093954887698" y="504.020938711498" type="curve" smooth="yes"/>
      <point x="70.02093834826204" y="543.4348006146939"/>
      <point x="70.02159742287506" y="600.6010020575802"/>
      <point x="70.01569992233752" y="640.0089676607638" type="curve" smooth="yes"/>
      <point x="70.00559837876031" y="707.5089669049032"/>
      <point x="160.00559737094616" y="707.5224356296728"/>
    </contour>
  </outline>
</glyph>
<glyph name="V" format="2">
  <advance width="620"/>
  <unicode hex="0056"/>
  <outline>
    <contour>
      <point x="590.7088639639296" y="625.7892313366137" type="curve" smooth="yes"/>
      <point x="568.5556910701575" y="559.3191591836895"/>
      <point x="549.8486156293992" y="502.093207114865"/>
      <point x="528.2464901010696" y="443.4636140497436" type="curve" smooth="yes"/>
      <point x="500.7939066897497" y="368.9554925280346"/>
      <point x="460.22153892732445" y="253.4241141019038"/>
      <point x="419.1728407869697" y="143.29034359806317" type="curve" smooth="yes"/>
      <point x="341.9942858937875" y="-63.77993237903374"/>
      <point x="281.76610565835114" y="-90.07387076114782"/>
      <point x="203.61616152143273" y="129.95993385761852" type="curve" smooth="yes"/>
      <point x="161.33110442555176" y="249.0149388749941"/>
      <point x="123.72224604492544" y="354.1439605932768"/>
      <point x="89.52991090724143" y="452.20498835573153" type="curve" smooth="yes"/>
      <point x="70.15245658317093" y="507.77805988731484"/>
      <point x="51.80276992606809" y="571.3502578590809"/>
      <point x="30.457192368791247" y="622.762146771067" type="curve" smooth="yes"/>
      <point x="4.5742414968043725" y="685.1025257734304"/>
      <point x="87.69474683328892" y="719.6131269360797"/>
      <point x="113.5776977052758" y="657.2727479337162" type="curve" smooth="yes"/>
      <point x="136.24539563036416" y="602.6764661283636"/>
      <point x="156.26424431487035" y="534.1699859797162"/>
      <point x="174.5119691957499" y="481.8368929359058" type="curve" smooth="yes"/>
      <point x="208.63272643825346" y="383.981145156178"/>
      <point x="246.2291967494466" y="278.8877336936282"/>
      <point x="288.4257347262817" y="160.08195724269956" type="curve" smooth="yes"/>
      <point x="314.0487488391055" y="87.9394964474964"/>
      <point x="309.53555333052793" y="106.83046461201864"/>
      <point x="334.84007815233315" y="174.72257461035449" type="curve" smooth="yes"/>
      <point x="376.94235705285166" y="287.6831052041352"/>
      <point x="417.0348335319099" y="401.9465856914395"/>
      <point x="443.79642690338295" y="474.5793146831334" type="curve" smooth="yes"/>
      <point x="465.0858340088141" y="532.3601693287669"/>
      <point x="483.49353425556154" y="588.7378306072137"/>
      <point x="505.32601161034836" y="654.2456633681695" type="curve" smooth="yes"/>
      <point x="526.6683356340152" y="718.2828026333555"/>
      <point x="612.0511879875964" y="689.8263706017997"/>
    </contour>
  </outline>
</glyph>
<glyph name="W" format="2">
  <advance width="888"/>
  <unicode hex="0057"/>
  <outline>
    <contour>
      <point x="123.00398985259281" y="653.3274860379095" type="curve" smooth="yes"/>
      <point x="135.87930109837683" y="611.7449533158599"/>
      <point x="162.2180640430124" y="531.2375452072382"/>
      <point x="175.14517750372116" y="487.8778569184077" type="curve" smooth="yes"/>
      <point x="210.27789604971233" y="370.0368764455813"/>
      <point x="239.28574218935938" y="275.03199567944085"/>
      <point x="275.08140754200866" y="157.08987939536306" type="curve" smooth="yes"/>
      <point x="278.2619463122525" y="146.61041296303037"/>
      <point x="270.6426108970074" y="144.98034132664662"/>
      <point x="273.566561466488" y="155.77013197224176" type="curve" smooth="yes"/>
      <point x="305.7038154787395" y="274.36113906238575"/>
      <point x="342.1930781445527" y="428.31352150113423"/>
      <point x="371.34547136619597" y="544.916431125374" type="curve" smooth="yes"/>
      <point x="421.3905963451975" y="745.085492399149"/>
      <point x="464.8235103797718" y="738.1015633274841"/>
      <point x="514.6853350645081" y="537.8942923478022" type="curve" smooth="yes"/>
      <point x="544.0230927016131" y="420.09610846011583"/>
      <point x="582.4594196678469" y="266.02023584219006"/>
      <point x="612.6161083460809" y="148.17718946000772" type="curve" smooth="yes"/>
      <point x="615.2418753963044" y="137.91650097428402"/>
      <point x="612.837141006333" y="152.09483673898612"/>
      <point x="616.0324927651606" y="162.36749978695582" type="curve" smooth="yes"/>
      <point x="652.6069811668098" y="279.94998330042245"/>
      <point x="684.7967118783807" y="388.1514557193703"/>
      <point x="719.89683905544" y="505.87833634963556" type="curve" smooth="yes"/>
      <point x="732.7793503028362" y="549.0866659431388"/>
      <point x="751.9846657540174" y="611.170317526574"/>
      <point x="765.0288735983218" y="653.3209624511076" type="curve" smooth="yes"/>
      <point x="784.9841462463957" y="717.8038058556988"/>
      <point x="870.9612707858506" y="691.1967756582669"/>
      <point x="851.0059981377767" y="626.7139322536757" type="curve" smooth="yes"/>
      <point x="838.0603174995741" y="584.8816650588878"/>
      <point x="818.9302297131023" y="523.0455069724403"/>
      <point x="806.1450243240553" y="480.16354414999637" type="curve" smooth="yes"/>
      <point x="770.9189430246103" y="362.0142096107699"/>
      <point x="738.6767306538195" y="253.64041321258222"/>
      <point x="701.9709974972699" y="135.6359939481664" type="curve" smooth="yes"/>
      <point x="643.5399257469755" y="-52.212717845253785"/>
      <point x="573.4412734106121" y="-61.76503980578377"/>
      <point x="525.4257826317523" y="125.86470188400428" type="curve" smooth="yes"/>
      <point x="495.205831808254" y="243.9549572352531"/>
      <point x="456.7523463239205" y="398.09879771260523"/>
      <point x="427.353044479984" y="516.1440964576444" type="curve" smooth="yes"/>
      <point x="424.74049336957694" y="526.6341202667741"/>
      <point x="461.2801581526935" y="533.5750726622964"/>
      <point x="458.6580028733583" y="523.0870508819776" type="curve" smooth="yes"/>
      <point x="429.34242595119036" y="405.83144375397745"/>
      <point x="392.7505946566337" y="251.48470444300187"/>
      <point x="360.4334488600424" y="132.22987125670284" type="curve" smooth="yes"/>
      <point x="307.0720958838847" y="-64.68105917695299"/>
      <point x="247.00451554565728" y="-60.29558086558732"/>
      <point x="188.960493274967" y="130.9520117354168" type="curve" smooth="yes"/>
      <point x="153.1076628510098" y="249.08247958165063"/>
      <point x="124.0855310962328" y="344.13485360673064"/>
      <point x="88.89670619375576" y="462.1640241295355" type="curve" smooth="yes"/>
      <point x="76.15035607512159" y="504.9174021086264"/>
      <point x="50.08882710650291" y="584.5351068085082"/>
      <point x="37.030904059653686" y="626.7074086668738" type="curve" smooth="yes"/>
      <point x="17.065846031376843" y="691.1872230115781"/>
      <point x="103.03893182431597" y="717.8073003826138"/>
    </contour>
  </outline>
</glyph>
<glyph name="X" format="2">
  <advance width="617"/>
  <unicode hex="0058"/>
  <outline>
    <contour>
      <point x="138.93050724626676" y="665.750832661593" type="curve" smooth="yes"/>
      <point x="161.8440356508754" y="632.8833677957787"/>
      <point x="186.40960669557555" y="598.7671122030562"/>
      <point x="209.66526564807364" y="566.1397678223636" type="curve" smooth="yes"/>
      <point x="253.34930039871213" y="504.85171536775374"/>
      <point x="301.92305439257535" y="433.85255870844134"/>
      <point x="345.7311235862189" y="372.034508170501" type="curve" smooth="yes"/>
      <point x="391.96019665612823" y="306.80015230958486"/>
      <point x="434.6384972050317" y="251.42066713114988"/>
      <point x="479.6865312004891" y="188.1099230015991" type="curve" smooth="yes"/>
      <point x="508.24671878262984" y="147.9712850204782"/>
      <point x="537.5379216374405" y="106.31792796764468"/>
      <point x="566.4534163992819" y="66.43448859257964" type="curve" smooth="yes"/>
      <point x="606.0737285640506" y="11.78578445454648"/>
      <point x="533.2087897133398" y="-41.04129843181184"/>
      <point x="493.58847754857106" y="13.607405706221321" type="curve" smooth="yes"/>
      <point x="464.49658647497233" y="53.73415032866013"/>
      <point x="435.0897743400539" y="95.54846753679034"/>
      <point x="406.3553579648703" y="135.93196758086935" type="curve" smooth="yes"/>
      <point x="361.12933952003425" y="199.49285199256397"/>
      <point x="318.3497991489441" y="255.01592863072125"/>
      <point x="272.30028647579365" y="319.99690483154825" type="curve" smooth="yes"/>
      <point x="229.40173994295472" y="380.5315178921944"/>
      <point x="180.9812438223" y="451.3224701499154"/>
      <point x="136.3766087128794" y="513.9021112455664" type="curve" smooth="yes"/>
      <point x="112.93191553636069" y="546.7946678371646"/>
      <point x="88.20067282146276" y="581.1459424824236"/>
      <point x="65.10089120982234" y="614.2805713847042" type="curve" smooth="yes"/>
      <point x="26.49819525215574" y="669.6527834120375"/>
      <point x="100.32781128860016" y="721.1230446889263"/>
    </contour>
    <contour>
      <point x="558.414053139705" y="613.5532123405837" type="curve" smooth="yes"/>
      <point x="534.4720195001543" y="580.6329147073387"/>
      <point x="510.31903136974324" y="546.8111014916576"/>
      <point x="486.56162500816055" y="513.7573178348739" type="curve" smooth="yes"/>
      <point x="441.30073171076276" y="450.7856385027327"/>
      <point x="391.451185627806" y="382.6000524500922"/>
      <point x="345.37458070776535" y="319.4951343834277" type="curve" smooth="yes"/>
      <point x="298.13896353405147" y="254.80287338137907"/>
      <point x="256.12823478073034" y="195.80782545031565"/>
      <point x="212.4449323350667" y="135.59570333471424" type="curve" smooth="yes"/>
      <point x="182.6676594296112" y="94.55135247129054"/>
      <point x="152.62700372335368" y="52.46751850039179"/>
      <point x="124.45342418611088" y="13.607407161095892" type="curve" smooth="yes"/>
      <point x="84.83311420365399" y="-41.041298559113315"/>
      <point x="11.968173243375034" y="11.785781417495869"/>
      <point x="51.58848322583193" y="66.43448713770508" type="curve" smooth="yes"/>
      <point x="80.53291275125306" y="106.3578398846789"/>
      <point x="110.60834538161073" y="148.48889911910942"/>
      <point x="139.59696496357782" y="188.4461872477542" type="curve" smooth="yes"/>
      <point x="184.40817958093436" y="250.2129991788089"/>
      <point x="226.63466714917007" y="309.49431316902144"/>
      <point x="272.68824528014517" y="372.5676945449979" type="curve" smooth="yes"/>
      <point x="318.60009902375253" y="435.4469751214817"/>
      <point x="368.3811821413272" y="503.5380429836366"/>
      <point x="413.4802409148901" y="566.2845612330561" type="curve" smooth="yes"/>
      <point x="437.3467534978423" y="599.4901448541062"/>
      <point x="461.57581673347255" y="633.4171791200923"/>
      <point x="485.62780449775187" y="666.488663681172" type="curve" smooth="yes"/>
      <point x="525.3293930031931" y="721.0783501626369"/>
      <point x="598.1156416451462" y="668.1428988220486"/>
    </contour>
  </outline>
</glyph>
<glyph name="Y" format="2">
  <advance width="582"/>
  <unicode hex="0059"/>
  <outline>
    <contour>
      <point x="541.4038902660275" y="618.2526272630292" type="curve" smooth="yes"/>
      <point x="520.1736798086832" y="579.8336252620392"/>
      <point x="500.0798837879821" y="541.8733259630384"/>
      <point x="479.4582193682782" y="504.34836570766566" type="curve" smooth="yes"/>
      <point x="439.4657588110194" y="431.57463307472733"/>
      <point x="410.6513164967288" y="380.5885223283038"/>
      <point x="371.69788353607123" y="307.79029921966406" type="curve" smooth="yes"/>
      <point x="353.1362373404095" y="273.10131911410656"/>
      <point x="336.0209444226035" y="234.525940017453"/>
      <point x="336.0209458392266" y="188.02094626600996" type="curve" smooth="yes"/>
      <point x="336.0209463871728" y="170.03293696166335"/>
      <point x="336.02094721342155" y="142.9087821146744"/>
      <point x="336.0209481847807" y="111.020947438787" type="curve" smooth="yes"/>
      <point x="336.02095332726543" y="-57.79686428860481"/>
      <point x="246.00000947134538" y="-60.925929430524405"/>
      <point x="246.00000411233518" y="115.00000068538918" type="curve" smooth="yes"/>
      <point x="246.0000032904159" y="141.98201464190927"/>
      <point x="246.00000243101903" y="170.1943534673969"/>
      <point x="246.00000185816626" y="188.99999955830478" type="curve" smooth="yes"/>
      <point x="245.99999879496752" y="289.5588792919713"/>
      <point x="215.17077779011083" y="301.91623023540205"/>
      <point x="164.03898517252256" y="390.52345817203786" type="curve" smooth="yes"/>
      <point x="120.80626891363414" y="465.44223077445844"/>
      <point x="95.66656327153478" y="516.1816276295941"/>
      <point x="40.40872141754111" y="618.6598012786425" type="curve" smooth="yes"/>
      <point x="8.372252306917375" y="678.0728860910308"/>
      <point x="87.58969872343519" y="720.7881782385291"/>
      <point x="119.62616783405892" y="661.3750934261408" type="curve" smooth="yes"/>
      <point x="174.38368159740304" y="559.8248009109695"/>
      <point x="199.14975845100204" y="509.7469825768722"/>
      <point x="241.99102724010763" y="435.50655652568" type="curve" smooth="yes"/>
      <point x="306.1984513193894" y="324.2403252952073"/>
      <point x="335.99999801163386" y="315.2742106830051"/>
      <point x="336.00000185816623" y="189.00000229986145" type="curve" smooth="yes"/>
      <point x="336.0000027118403" y="160.97553791238883"/>
      <point x="336.00000288749845" y="155.2090175481024"/>
      <point x="336.00000411233515" y="115.00000342694597" type="curve" smooth="yes"/>
      <point x="336.00000433977965" y="107.53342834017462"/>
      <point x="246.02094840303596" y="103.85604941194455"/>
      <point x="246.02094818478074" y="111.02094469723028" type="curve" smooth="yes"/>
      <point x="246.02094673724662" y="158.54068865859693"/>
      <point x="246.02094665578454" y="161.214934110349"/>
      <point x="246.02094583922664" y="188.02094352445323" type="curve" smooth="yes"/>
      <point x="246.02094390947062" y="251.37109699078508"/>
      <point x="267.0589043761717" y="302.99747363086806"/>
      <point x="292.34399830323935" y="350.25158627569357" type="curve" smooth="yes"/>
      <point x="331.4763254501991" y="423.3841362432888"/>
      <point x="360.40752068689085" y="474.58556676768734"/>
      <point x="400.5836471792381" y="547.6935137867287" type="curve" smooth="yes"/>
      <point x="421.4116254885271" y="585.5939006007557"/>
      <point x="441.60949734664945" y="623.7409761751604"/>
      <point x="462.6309861307175" y="661.782267441754" type="curve" smooth="yes"/>
      <point x="495.2782162647611" y="720.8619455432365"/>
      <point x="574.0511204000711" y="677.3323053645117"/>
    </contour>
  </outline>
</glyph>
<glyph name="Z" format="2">
  <advance width="595"/>
  <unicode hex="005A"/>
  <outline>
    <contour>
      <point x="105" y="680" type="curve" smooth="yes"/>
      <point x="157" y="680"/>
      <point x="288" y="680"/>
      <point x="357" y="680" type="curve" smooth="yes"/>
      <point x="562" y="680"/>
      <point x="571" y="639"/>
      <point x="460" y="487" type="curve" smooth="yes"/>
      <point x="376" y="372"/>
      <point x="296" y="263"/>
      <point x="212" y="147" type="curve" smooth="yes"/>
      <point x="164" y="80"/>
      <point x="159" y="90"/>
      <point x="275" y="90" type="curve" smooth="yes"/>
      <point x="334" y="90"/>
      <point x="457" y="90"/>
      <point x="490" y="90" type="curve" smooth="yes"/>
      <point x="558" y="90"/>
      <point x="558" y="0"/>
      <point x="490" y="0" type="curve" smooth="yes"/>
      <point x="440" y="0"/>
      <point x="363" y="0"/>
      <point x="275" y="0" type="curve" smooth="yes"/>
      <point x="22" y="0"/>
      <point x="34" y="54"/>
      <point x="140" y="199" type="curve" smooth="yes"/>
      <point x="224" y="315"/>
      <point x="304" y="425"/>
      <point x="388" y="541" type="curve" smooth="yes"/>
      <point x="431" y="600"/>
      <point x="438" y="590"/>
      <point x="357" y="590" type="curve" smooth="yes"/>
      <point x="255" y="590"/>
      <point x="182" y="590"/>
      <point x="105" y="590" type="curve" smooth="yes"/>
      <point x="38" y="590"/>
      <point x="38" y="680"/>
    </contour>
  </outline>
</glyph>
<glyph name="backslash" format="2">
  <advance width="490"/>
  <unicode hex="005C"/>
  <outline>
    <contour>
      <point x="349.420184558344" y="-134.07930641110954" type="curve" smooth="yes"/>
      <point x="69.42016293050739" y="715.9206806426502" type="line" smooth="yes"/>
      <point x="48.30119486070975" y="780.0318277831192"/>
      <point x="133.78272438133513" y="808.1904518761827"/>
      <point x="154.90169245113276" y="744.0793047357137" type="curve" smooth="yes"/>
      <point x="434.90171407896935" y="-105.92068231804605" type="line" smooth="yes"/>
      <point x="456.0206821487669" y="-170.03182945851506"/>
      <point x="370.53915262814155" y="-198.19045355157857"/>
    </contour>
  </outline>
</glyph>
<glyph name="bracketright" format="2">
  <advance width="430"/>
  <unicode hex="005D"/>
  <outline>
    <contour>
      <point x="85.00001303762545" y="-67.99999447119387" type="curve" smooth="yes"/>
      <point x="272.0000101894526" y="-67.99999447119387" type="line"/>
      <point x="227.00001018945264" y="-112.99999584197226" type="line"/>
      <point x="226.9999847234366" y="722.9999914250197" type="line"/>
      <point x="271.99998472343657" y="677.9999927957981" type="line"/>
      <point x="84.9999875716094" y="677.9999927957981" type="line" smooth="yes"/>
      <point x="17.499987571609395" y="677.9999927957981"/>
      <point x="17.499987571609424" y="767.9999927957981"/>
      <point x="84.99998757160942" y="767.9999927957981" type="curve" smooth="yes"/>
      <point x="271.99998472343657" y="767.9999927957981" type="line" smooth="yes"/>
      <point x="296.8527979305" y="767.9999927957981"/>
      <point x="316.9999839663766" y="747.8528073736398"/>
      <point x="316.99998472343657" y="722.9999941665765" type="curve" smooth="yes"/>
      <point x="317.0000101894526" y="-112.99999310041548" type="line" smooth="yes"/>
      <point x="317.00001094651265" y="-137.8528073781233"/>
      <point x="296.8528244671604" y="-157.99999447119387"/>
      <point x="272.0000101894526" y="-157.99999447119387" type="curve" smooth="yes"/>
      <point x="85.00001303762545" y="-157.99999447119387" type="line" smooth="yes"/>
      <point x="17.50001303762545" y="-157.99999447119384"/>
      <point x="17.50001303762545" y="-67.99999447119386"/>
    </contour>
  </outline>
</glyph>
<glyph name="asciicircum" format="2">
  <advance width="560"/>
  <unicode hex="005E"/>
  <outline>
    <contour>
      <point x="71.58427852431834" y="322.78811131266696" type="curve" smooth="yes"/>
      <point x="236.5842657456177" y="659.7881061798635" type="line" smooth="yes"/>
      <point x="252.93424958223076" y="693.1817116086164"/>
      <point x="300.43130315401527" y="693.4642656149254"/>
      <point x="317.1774244782874" y="660.2675447590711" type="curve" smooth="yes"/>
      <point x="487.1774321546462" y="323.26754989187464" type="line" smooth="yes"/>
      <point x="517.5787582033124" y="263.00139542286365"/>
      <point x="437.22388557796444" y="222.46629402464205"/>
      <point x="406.82255952929825" y="282.732448493653" type="curve" smooth="yes"/>
      <point x="236.82255185293943" y="619.7324433608494" type="line"/>
      <point x="317.4157105856091" y="620.2118819400571" type="line"/>
      <point x="152.4157233643097" y="283.2118870728607" type="line" smooth="yes"/>
      <point x="122.73355518445499" y="222.58830344286716"/>
      <point x="41.90211034446361" y="262.16452768267345"/>
    </contour>
  </outline>
</glyph>
<glyph name="underscore" format="2">
  <advance width="535"/>
  <unicode hex="005F"/>
  <outline>
    <contour>
      <point x="537.0000058867315" y="-122.99999500427435" type="curve" smooth="yes"/>
      <point x="-1.9999859038289938" y="-122.99999500427435" type="line" smooth="yes"/>
      <point x="-69.499985903829" y="-122.99999500427434"/>
      <point x="-69.49998590382897" y="-32.99999500427434"/>
      <point x="-1.9999859038289773" y="-32.99999500427435" type="curve" smooth="yes"/>
      <point x="537.0000058867315" y="-32.99999500427435" type="line" smooth="yes"/>
      <point x="604.5000058867315" y="-32.999995004274375"/>
      <point x="604.5000058867315" y="-122.99999500427438"/>
    </contour>
  </outline>
</glyph>
<glyph name="grave" format="2">
  <advance width="408"/>
  <unicode hex="0060"/>
  <outline>
    <contour>
      <point x="211.85618955152148" y="574.6878642162618" type="curve" smooth="yes"/>
      <point x="120.8561877085861" y="680.6878626017896" type="line" smooth="yes"/>
      <point x="76.88799212057133" y="731.9035611397777"/>
      <point x="145.1755901712221" y="790.5278219237974"/>
      <point x="189.1437857592369" y="739.3121233858093" type="curve" smooth="yes"/>
      <point x="280.14378760217227" y="633.3121250002815" type="line" smooth="yes"/>
      <point x="324.11198319018706" y="582.0964264622934"/>
      <point x="255.82438513953625" y="523.4721656782737"/>
    </contour>
  </outline>
</glyph>
<glyph name="b" format="2">
  <advance width="584"/>
  <unicode hex="0062"/>
  <outline>
    <contour>
      <point x="66.01676431660337" y="44.02010189333208" type="curve" smooth="yes"/>
      <point x="66.02165350404715" y="109.82156164702076"/>
      <point x="66.02095134691889" y="97.7140709090921"/>
      <point x="66.02094670738626" y="250.0209425801392" type="curve" smooth="yes"/>
      <point x="66.02094210458796" y="401.1218946941923"/>
      <point x="167.21686893622993" y="508.02094070674207"/>
      <point x="305.0209372642463" y="508.02094070674207" type="curve" smooth="yes"/>
      <point x="441.6844956057058" y="508.02094070674207"/>
      <point x="546.0209362231703" y="399.19744794226784"/>
      <point x="546.0209408282701" y="248.02094535215772" type="curve" smooth="yes"/>
      <point x="546.0209454472661" y="96.38825475057432"/>
      <point x="438.24292604456724" y="-10.983473567805351"/>
      <point x="306.0113862283024" y="-10.991269985698942" type="curve" smooth="yes"/>
      <point x="164.71870655934643" y="-10.999600651571356"/>
      <point x="77.44060693473627" y="103.19604423832553"/>
      <point x="71.1019464608776" y="196.9644437558101" type="curve" smooth="yes"/>
      <point x="57.08971039790273" y="404.24876742403916"/>
      <point x="66.0209404607665" y="455.0853769963922"/>
      <point x="66.0209358325445" y="607.0209371427183" type="curve" smooth="yes"/>
      <point x="66.0209348675216" y="638.7007664502962"/>
      <point x="66.02061751811428" y="657.2459810869984"/>
      <point x="66.01848976241368" y="695.0159586562895" type="curve" smooth="yes"/>
      <point x="66.01468717848843" y="762.515958549181"/>
      <point x="156.01468703567713" y="762.5210286610813"/>
      <point x="156.01848961960238" y="695.0210287681898" type="curve" smooth="yes"/>
      <point x="156.0199174371021" y="669.6757154302078"/>
      <point x="156.02093518497168" y="628.279496334867"/>
      <point x="156.02093583254444" y="607.0209398842752" type="curve" smooth="yes"/>
      <point x="156.02094040283592" y="456.9871264046042"/>
      <point x="147.06016700989437" y="407.7242982964975"/>
      <point x="160.89701474903322" y="203.0345105697311" type="curve" smooth="yes"/>
      <point x="164.69499961229144" y="146.8505639002298"/>
      <point x="221.3466378081654" y="79.00373830752008"/>
      <point x="306.00607979687106" y="79.00872985786654" type="curve" smooth="yes"/>
      <point x="391.70924891722456" y="79.01378294673019"/>
      <point x="456.02094382197794" y="149.74331425613428"/>
      <point x="456.0209408282701" y="248.02094261060094" type="curve" smooth="yes"/>
      <point x="456.02093782109813" y="346.7405745985918"/>
      <point x="394.2634845813901" y="418.02094070674207"/>
      <point x="305.0209372642463" y="418.02094070674207" type="curve" smooth="yes"/>
      <point x="214.9435942196764" y="418.02094070674207"/>
      <point x="156.02094369870989" y="348.78996181793497"/>
      <point x="156.0209467073862" y="250.020945321696" type="curve" smooth="yes"/>
      <point x="156.0209498207163" y="147.8163470015441"/>
      <point x="156.0200449276144" y="88.16908338201631"/>
      <point x="156.01676406816722" y="44.01341470325491" type="curve" smooth="yes"/>
      <point x="156.01174867560937" y="-23.486585110417963"/>
      <point x="66.0117489240455" y="-23.47989792034079"/>
    </contour>
  </outline>
</glyph>
<glyph name="c" format="2">
  <advance width="475"/>
  <unicode hex="0063"/>
  <outline>
    <contour>
      <point x="420.05852880487396" y="31.31732320649982" type="curve" smooth="yes"/>
      <point x="381.3808736794096" y="3.8699286856038033"/>
      <point x="324.8314579471727" y="-10.328757441902324"/>
      <point x="278.65026277177344" y="-10.974652158782149" type="curve" smooth="yes"/>
      <point x="150.32942851551672" y="-12.76935990934897"/>
      <point x="39.02095125425555" y="87.00603123614965"/>
      <point x="39.02094634946081" y="248.02094261060094" type="curve" smooth="yes"/>
      <point x="39.020941513590145" y="406.77321040519894"/>
      <point x="147.7767528113779" y="507.020940721973"/>
      <point x="275.0209369215517" y="507.020940721973" type="curve" smooth="yes"/>
      <point x="322.5562565874431" y="507.020940721973"/>
      <point x="380.2584618824357" y="494.32889435246636"/>
      <point x="420.2838390678497" y="465.55315009233436" type="curve" smooth="yes"/>
      <point x="475.09000635105787" y="426.15094168055873"/>
      <point x="422.5537284686903" y="353.0760519696146"/>
      <point x="367.74756118548214" y="392.4782603813902" type="curve" smooth="yes"/>
      <point x="343.8964828733178" y="409.62569478681365"/>
      <point x="303.34718171102253" y="417.020940721973"/>
      <point x="275.0209369215517" y="417.020940721973" type="curve" smooth="yes"/>
      <point x="192.34377535899242" y="417.020940721973"/>
      <point x="129.02094320734415" y="351.170546920684"/>
      <point x="129.02094634946076" y="248.02094535215772" type="curve" smooth="yes"/>
      <point x="129.02094954274105" y="143.19173770590496"/>
      <point x="193.847999607193" y="77.84809714805172"/>
      <point x="277.3916370551956" y="79.01654664035358" type="curve" smooth="yes"/>
      <point x="305.1451351097496" y="79.40470978122265"/>
      <point x="344.7287954447549" y="88.21904638088955"/>
      <point x="367.97289344183537" y="104.71409826391354" type="curve" smooth="yes"/>
      <point x="423.0204747348956" y="143.77832478619254"/>
      <point x="475.10611009793416" y="70.38154972877882"/>
    </contour>
  </outline>
</glyph>
<glyph name="e" format="2">
  <advance width="548"/>
  <unicode hex="0065"/>
  <outline>
    <contour>
      <point x="170" y="294" type="curve" smooth="yes"/>
      <point x="227" y="294"/>
      <point x="301" y="294"/>
      <point x="367" y="294" type="curve" smooth="yes"/>
      <point x="400" y="294"/>
      <point x="417" y="289"/>
      <point x="412" y="314" type="curve" smooth="yes"/>
      <point x="399" y="379"/>
      <point x="349" y="418"/>
      <point x="282" y="418" type="curve" smooth="yes"/>
      <point x="191" y="418"/>
      <point x="129" y="350"/>
      <point x="129" y="248" type="curve" smooth="yes"/>
      <point x="129" y="140"/>
      <point x="197" y="79"/>
      <point x="291" y="79" type="curve" smooth="yes"/>
      <point x="334" y="79"/>
      <point x="382" y="92"/>
      <point x="429" y="119" type="curve" smooth="yes"/>
      <point x="488" y="152"/>
      <point x="532" y="74"/>
      <point x="473" y="41" type="curve" smooth="yes"/>
      <point x="410" y="5"/>
      <point x="348" y="-11"/>
      <point x="291" y="-11" type="curve" smooth="yes"/>
      <point x="151" y="-11"/>
      <point x="39" y="86"/>
      <point x="39" y="248" type="curve" smooth="yes"/>
      <point x="39" y="403"/>
      <point x="145" y="508"/>
      <point x="282" y="508" type="curve" smooth="yes"/>
      <point x="393" y="508"/>
      <point x="479" y="439"/>
      <point x="500" y="330" type="curve" smooth="yes"/>
      <point x="516" y="246"/>
      <point x="480" y="204"/>
      <point x="367" y="204" type="curve" smooth="yes"/>
      <point x="281" y="204"/>
      <point x="226" y="204"/>
      <point x="170" y="204" type="curve" smooth="yes"/>
      <point x="102" y="204"/>
      <point x="102" y="294"/>
    </contour>
  </outline>
</glyph>
<glyph name="f" format="2">
  <advance width="364"/>
  <unicode hex="0066"/>
  <outline>
    <contour>
      <point x="317.69989355013826" y="635.8547557102864" type="curve" smooth="yes"/>
      <point x="259.93944993495853" y="665.0697076974026"/>
      <point x="208.0209322072136" y="645.0335305552668"/>
      <point x="208.0209340657634" y="584.0209402345852" type="curve" smooth="yes"/>
      <point x="208.0209375526931" y="469.55179011601507"/>
      <point x="208.0209429089638" y="293.71579900223236"/>
      <point x="208.0209459153809" y="195.0209461593939" type="curve" smooth="yes"/>
      <point x="208.02094721052623" y="152.50383325821073"/>
      <point x="208.01978926918426" y="74.35679370879387"/>
      <point x="208.0169362244755" y="40.01319458239166" type="curve" smooth="yes"/>
      <point x="208.01132875985107" y="-27.486805184692344"/>
      <point x="118.01132907040574" y="-27.4793285651931"/>
      <point x="118.01693653503018" y="40.020671201890906" type="curve" smooth="yes"/>
      <point x="118.02118818634007" y="91.20003329362044"/>
      <point x="118.0209478454266" y="131.6612848026814"/>
      <point x="118.02094591538096" y="195.02094341783712" type="curve" smooth="yes"/>
      <point x="118.02094389794303" y="261.2495231292956"/>
      <point x="118.0209392620401" y="413.43724122145545"/>
      <point x="118.02093406576347" y="584.0209374930284" type="curve" smooth="yes"/>
      <point x="118.02093020668349" y="710.7070586043458"/>
      <point x="238.38763353955022" y="776.8278997743623"/>
      <point x="358.32101969502475" y="716.1661752639292" type="curve" smooth="yes"/>
      <point x="418.5545843602568" y="685.7003306552643"/>
      <point x="377.9334582153703" y="605.3889111016216"/>
    </contour>
    <contour>
      <point x="309.0139545156782" y="408.0139595420783" type="curve" smooth="yes"/>
      <point x="267.5864854211536" y="408.0139595420783"/>
      <point x="252.47981746753806" y="408.0131408736442"/>
      <point x="222.01482789633602" y="408.00959652351696" type="curve" smooth="yes"/>
      <point x="184.0042178280172" y="408.0051743027148"/>
      <point x="149.0059272224693" y="408.005057937939"/>
      <point x="111.00421978964704" y="408.009596539908" type="curve" smooth="yes"/>
      <point x="90.42691023775028" y="408.01205411942095"/>
      <point x="79.76001676222668" y="408.0139595420783"/>
      <point x="57.013958353857696" y="408.0139595420783" type="curve" smooth="yes"/>
      <point x="-10.486041646142304" y="408.0139595420783"/>
      <point x="-10.48604164614229" y="498.0139595420783"/>
      <point x="57.01395835385771" y="498.0139595420783" type="curve" smooth="yes"/>
      <point x="78.01741010989754" y="498.0139595420783"/>
      <point x="92.01411491064044" y="498.01186519901745"/>
      <point x="111.01496862705156" y="498.0095958980329" type="curve" smooth="yes"/>
      <point x="152.3340107742628" y="498.00466110171146"/>
      <point x="180.67563520653687" y="498.00478765868866"/>
      <point x="222.00435713910926" y="498.0095959144239" type="curve" smooth="yes"/>
      <point x="247.01143392673353" y="498.0125052814394"/>
      <point x="275.0083659582804" y="498.0139595420783"/>
      <point x="309.0139545156782" y="498.0139595420783" type="curve" smooth="yes"/>
      <point x="376.5139545156782" y="498.0139595420783"/>
      <point x="376.5139545156782" y="408.0139595420783"/>
    </contour>
  </outline>
</glyph>
<glyph name="i" format="2">
  <advance width="231"/>
  <unicode hex="0069"/>
  <outline>
    <contour>
      <point x="70" y="40" type="curve" smooth="yes"/>
      <point x="70" y="83"/>
      <point x="70" y="127"/>
      <point x="70" y="165" type="curve" smooth="yes"/>
      <point x="70" y="233"/>
      <point x="70" y="265"/>
      <point x="70" y="333" type="curve" smooth="yes"/>
      <point x="70" y="371"/>
      <point x="70" y="408"/>
      <point x="70" y="458" type="curve" smooth="yes"/>
      <point x="70" y="525"/>
      <point x="160" y="525"/>
      <point x="160" y="458" type="curve" smooth="yes"/>
      <point x="160" y="406"/>
      <point x="160" y="379"/>
      <point x="160" y="333" type="curve" smooth="yes"/>
      <point x="160" y="287"/>
      <point x="160" y="211"/>
      <point x="160" y="165" type="curve" smooth="yes"/>
      <point x="160" y="119"/>
      <point x="160" y="86"/>
      <point x="160" y="40" type="curve" smooth="yes"/>
      <point x="160" y="-28"/>
      <point x="70" y="-28"/>
    </contour>
    <contour>
      <point x="70" y="636" type="curve" smooth="yes"/>
      <point x="70" y="657"/>
      <point x="70" y="664"/>
      <point x="70" y="685" type="curve" smooth="yes"/>
      <point x="70" y="746"/>
      <point x="160" y="746"/>
      <point x="160" y="685" type="curve" smooth="yes"/>
      <point x="160" y="664"/>
      <point x="160" y="657"/>
      <point x="160" y="636" type="curve" smooth="yes"/>
      <point x="160" y="574"/>
      <point x="70" y="574"/>
    </contour>
  </outline>
</glyph>
<glyph name="j" format="2">
  <advance width="245"/>
  <unicode hex="006A"/>
  <outline>
    <contour>
      <point x="174.01605043819248" y="458.0197955339903" type="curve" smooth="yes"/>
      <point x="174.01890557505894" y="423.6819045892505"/>
      <point x="174.02094110576445" y="340.1613406738839"/>
      <point x="174.02094299866914" y="278.02094489523165" type="curve" smooth="yes"/>
      <point x="174.02094471722742" y="221.60400662250782"/>
      <point x="174.02094767134253" y="124.6261310282912"/>
      <point x="174.02095198488294" y="-16.979050611661403" type="curve" smooth="yes"/>
      <point x="174.0209561605185" y="-154.05707935167368"/>
      <point x="65.37886234942219" y="-192.69372437408921"/>
      <point x="-30.982921346449388" y="-156.04910282972958" type="curve" smooth="yes"/>
      <point x="-94.07490986415212" y="-132.05637507980364"/>
      <point x="-62.084606197584215" y="-47.933723722866645"/>
      <point x="1.0073823201185217" y="-71.92645147279258" type="curve" smooth="yes"/>
      <point x="46.361568171055055" y="-89.17381772335449"/>
      <point x="84.02095395021144" y="-81.4969789571721"/>
      <point x="84.020951984883" y="-16.97905335321828" type="curve" smooth="yes"/>
      <point x="84.02094909030788" y="78.04424107056633"/>
      <point x="84.0209455596912" y="193.9475489912568"/>
      <point x="84.0209429986692" y="278.0209421536748" type="curve" smooth="yes"/>
      <point x="84.02094017783334" y="370.62352012967136"/>
      <point x="84.02030551838213" y="406.8414565168267"/>
      <point x="84.01605074930617" y="458.01231218804105" type="curve" smooth="yes"/>
      <point x="84.01043823984433" y="525.5123119547058"/>
      <point x="174.01043792873062" y="525.519795300655"/>
    </contour>
    <contour>
      <point x="84.02093208930621" y="639.0237414740037" type="curve" smooth="yes"/>
      <point x="84.02180395130166" y="653.0185761179392"/>
      <point x="84.02197799034639" y="668.0246541467044"/>
      <point x="84.02093081813476" y="682.0175697564036" type="curve" smooth="yes"/>
      <point x="84.01587939596823" y="749.5175695673898"/>
      <point x="174.0158791439498" y="749.5243047969453"/>
      <point x="174.02093056611633" y="682.0243049859591" type="curve" smooth="yes"/>
      <point x="174.02197836232384" y="668.0230511849547"/>
      <point x="174.02180429618102" y="653.0213085569815"/>
      <point x="174.02093191465468" y="639.018134578214" type="curve" smooth="yes"/>
      <point x="174.01672674281244" y="571.5181347092027"/>
      <point x="84.01672691746397" y="571.5237416049924"/>
    </contour>
  </outline>
</glyph>
<glyph name="k" format="2">
  <advance width="501"/>
  <unicode hex="006B"/>
  <outline>
    <contour>
      <point x="160.017441731001" y="695.0199470184729" type="curve" smooth="yes"/>
      <point x="160.0196426275765" y="655.4117902240832"/>
      <point x="160.0209353037177" y="601.6312970540624"/>
      <point x="160.02093651031817" y="562.0209405696643" type="curve" smooth="yes"/>
      <point x="160.0209412983158" y="404.8402490051437"/>
      <point x="160.02094517744075" y="277.49609197610056"/>
      <point x="160.02094839039742" y="172.02094650970392" type="curve" smooth="yes"/>
      <point x="160.0209495982048" y="132.3709697662322"/>
      <point x="160.01966236601712" y="79.66713763996646"/>
      <point x="160.01746168360947" y="40.014959006246215" type="curve" smooth="yes"/>
      <point x="160.01371545660746" y="-27.485040889796622"/>
      <point x="70.01371559521701" y="-27.480045920460626"/>
      <point x="70.01746182221902" y="40.01995397558221" type="curve" smooth="yes"/>
      <point x="70.02014552830012" y="88.37531527537381"/>
      <point x="70.02094986330421" y="123.66826764738428"/>
      <point x="70.02094839039748" y="172.02094376814713" type="curve" smooth="yes"/>
      <point x="70.0209436023998" y="329.20163533266776"/>
      <point x="70.02093972327482" y="456.54579236171094"/>
      <point x="70.02093651031822" y="562.0209378281075" type="curve" smooth="yes"/>
      <point x="70.02093503667464" y="610.3978023811469"/>
      <point x="70.02012986583846" y="646.6407679801654"/>
      <point x="70.01744186994588" y="695.0149460109147" type="curve" smooth="yes"/>
      <point x="70.0136911142772" y="762.5149459067061"/>
      <point x="160.0136909753323" y="762.5199469142642"/>
    </contour>
    <contour>
      <point x="441.1292278032015" y="422.1024153672352" type="curve" smooth="yes"/>
      <point x="387.8010292279115" y="381.8547604791887"/>
      <point x="327.5780414997671" y="339.6652207228914"/>
      <point x="267.61515159193067" y="295.7182781593736" type="curve" smooth="yes"/>
      <point x="220.3780899998898" y="261.098124997218"/>
      <point x="221.07785234431392" y="272.6662863141286"/>
      <point x="266.97312885057744" y="236.27421178718652" type="curve" smooth="yes"/>
      <point x="329.74848118897165" y="186.4972962816853"/>
      <point x="396.5639053748299" y="125.98219817242894"/>
      <point x="454.34934292322305" y="73.26532176357793" type="curve" smooth="yes"/>
      <point x="504.2159048444892" y="27.772728936255717"/>
      <point x="443.55911440805966" y="-38.71602029209917"/>
      <point x="393.6925524867935" y="6.776572535223046" type="curve" smooth="yes"/>
      <point x="337.45106163241127" y="58.08492716933001"/>
      <point x="272.1528817988753" y="117.30676956744695"/>
      <point x="211.0547997524481" y="165.75371497332895" type="curve" smooth="yes"/>
      <point x="101.8597782624731" y="252.3385154699964"/>
      <point x="102.0253437629818" y="285.9406372464234"/>
      <point x="214.41276896919504" y="368.3096446106537" type="curve" smooth="yes"/>
      <point x="275.13412174053997" y="412.8124663846366"/>
      <point x="334.25194214229924" y="454.1955830638145"/>
      <point x="386.9126424454164" y="493.9394661985577" type="curve" smooth="yes"/>
      <point x="440.7904305689083" y="534.6019052168965"/>
      <point x="495.0070159266934" y="462.764854385574"/>
    </contour>
  </outline>
</glyph>
<glyph name="l" format="2">
  <advance width="231"/>
  <unicode hex="006C"/>
  <outline>
    <contour>
      <point x="70.01571465882495" y="40.0208313699568" type="curve" smooth="yes"/>
      <point x="70.02145278594081" y="90.45153733546115"/>
      <point x="70.02094768749184" y="127.5959773744931"/>
      <point x="70.02094615145947" y="178.0209436767619" type="curve" smooth="yes"/>
      <point x="70.02094291359616" y="284.31372592971985"/>
      <point x="70.02093912695592" y="408.62179121406416"/>
      <point x="70.02093430184195" y="567.0209377519532" type="curve" smooth="yes"/>
      <point x="70.020932953446" y="611.2861650138267"/>
      <point x="70.02130421201903" y="647.4325353958767"/>
      <point x="70.0174398927137" y="695.0137918325523" type="curve" smooth="yes"/>
      <point x="70.01195786950153" y="762.5137916099407"/>
      <point x="160.01195757268593" y="762.5211009742236"/>
      <point x="160.0174395958981" y="695.0211011968353" type="curve" smooth="yes"/>
      <point x="160.02055806112355" y="656.623525360224"/>
      <point x="160.02093321370043" y="602.7425155001446"/>
      <point x="160.02093430184192" y="567.0209404935099" type="curve" smooth="yes"/>
      <point x="160.02093753970527" y="460.7281582405519"/>
      <point x="160.0209413263454" y="336.4200929562076"/>
      <point x="160.0209461514594" y="178.0209464183187" type="curve" smooth="yes"/>
      <point x="160.02094741797742" y="136.4436123038631"/>
      <point x="160.02044538387477" y="81.5926576420705"/>
      <point x="160.01571407623533" y="40.01059095338535" type="curve" smooth="yes"/>
      <point x="160.0080337638067" y="-27.48940860967243"/>
      <point x="70.00803434639631" y="-27.479168193100982"/>
    </contour>
  </outline>
</glyph>
<glyph name="o" format="2">
  <advance width="577"/>
  <unicode hex="006F"/>
  <outline>
    <contour>
      <point x="213.51066049982106" y="-0.5831525400901398" type="curve" smooth="yes"/>
      <point x="156.86979074415913" y="18.702792798207145"/>
      <point x="115.83954922211828" y="46.66561185643931"/>
      <point x="83.5780843960577" y="95.06034135525613" type="curve" smooth="yes"/>
      <point x="55.84632994987101" y="136.66014973924194"/>
      <point x="39.02094891397757" y="189.33282413974794"/>
      <point x="39.02094709577349" y="249.0209425953701" type="curve" smooth="yes"/>
      <point x="39.02094254119544" y="398.53891817168676"/>
      <point x="145.73770264723913" y="508.02094070674207"/>
      <point x="288.02093746986304" y="508.02094070674207" type="curve" smooth="yes"/>
      <point x="431.3665809382233" y="508.02094070674207"/>
      <point x="538.0209363163204" y="398.3895150014366"/>
      <point x="538.0209408663472" y="249.02094533692687" type="curve" smooth="yes"/>
      <point x="538.0209426508613" y="190.43880383820863"/>
      <point x="521.6598231394695" y="138.0771240154339"/>
      <point x="493.38727856249204" y="95.94591569272589" type="curve" smooth="yes"/>
      <point x="460.6656872195162" y="47.18482247849712"/>
      <point x="422.3125509994261" y="19.74833425230982"/>
      <point x="362.50204461437255" y="-0.5891671442059945" type="curve" smooth="yes"/>
      <point x="298.59551259940895" y="-22.319449374780675"/>
      <point x="269.62180295864266" y="62.889259978504136"/>
      <point x="333.52833497360626" y="84.61954220907882" type="curve" smooth="yes"/>
      <point x="373.6736183232092" y="98.27023345937229"/>
      <point x="396.69162205396475" y="113.36714600773911"/>
      <point x="418.6546120954928" y="146.095976138674" type="curve" smooth="yes"/>
      <point x="437.6598557472353" y="174.41722884146074"/>
      <point x="448.02094206592534" y="209.64111706206387"/>
      <point x="448.02094086634725" y="249.0209425953701" type="curve" smooth="yes"/>
      <point x="448.0209378623136" y="347.63755224580603"/>
      <point x="382.6610709247168" y="418.02094070674207"/>
      <point x="288.02093746986304" y="418.02094070674207" type="curve" smooth="yes"/>
      <point x="194.31679613955117" y="418.02094070674207"/>
      <point x="129.02094409624345" y="347.48970402301734"/>
      <point x="129.02094709577344" y="249.02094533692687" type="curve" smooth="yes"/>
      <point x="129.02094832288068" y="208.73739253930103"/>
      <point x="139.74763609986078" y="173.0572902143892"/>
      <point x="158.46381652753405" y="144.98155050660552" type="curve" smooth="yes"/>
      <point x="179.6997730444117" y="113.1259488833105"/>
      <point x="205.23613832808996" y="97.30840983672464"/>
      <point x="242.5197227435668" y="84.61352760496297" type="curve" smooth="yes"/>
      <point x="306.4172328523567" y="62.85673092215376"/>
      <point x="277.40817060861093" y="-22.339949222899346"/>
    </contour>
  </outline>
</glyph>
<glyph name="p" format="2">
  <advance width="584"/>
  <unicode hex="0070"/>
  <outline>
    <contour>
      <point x="66.01572244727683" y="-124.97905231732408" type="curve" smooth="yes"/>
      <point x="66.02145487105864" y="-75.69386344885241"/>
      <point x="66.02095554980407" y="-40.25850869268533"/>
      <point x="66.02095404866603" y="9.020946250779112" type="curve" smooth="yes"/>
      <point x="66.02095107936512" y="106.49734412024928"/>
      <point x="66.02094869991754" y="184.60999965524212"/>
      <point x="66.02094670738626" y="250.0209425801392" type="curve" smooth="yes"/>
      <point x="66.02094210458796" y="401.1218946941923"/>
      <point x="167.21686893622993" y="508.02094070674207"/>
      <point x="305.0209372642463" y="508.02094070674207" type="curve" smooth="yes"/>
      <point x="441.6844956057058" y="508.02094070674207"/>
      <point x="546.0209362231703" y="399.19744794226784"/>
      <point x="546.0209408282701" y="248.02094535215772" type="curve" smooth="yes"/>
      <point x="546.0209454472661" y="96.38825475057432"/>
      <point x="438.24292604456724" y="-10.983473567805351"/>
      <point x="306.0113862283024" y="-10.991269985698942" type="curve" smooth="yes"/>
      <point x="168.92738859808222" y="-10.999352506204517"/>
      <point x="65.99474282536502" y="99.2164617821412"/>
      <point x="66.00174825909892" y="246.00389301626112" type="curve" smooth="yes"/>
      <point x="66.00640054584646" y="343.48496941812834"/>
      <point x="66.00637881648437" y="379.1135380499587"/>
      <point x="65.99999681133562" y="450.9960016633063" type="curve" smooth="yes"/>
      <point x="65.99400389840257" y="518.4960013972692"/>
      <point x="155.99400354368643" y="518.5039919478465"/>
      <point x="155.9999964566195" y="451.00399221388363" type="curve" smooth="yes"/>
      <point x="156.0042790622928" y="402.76770294301883"/>
      <point x="156.0048700452818" y="311.4136801896308"/>
      <point x="156.0017481566034" y="245.9995977640721" type="curve" smooth="yes"/>
      <point x="155.99720772795166" y="150.86232520958097"/>
      <point x="217.1578893504776" y="79.00349133744417"/>
      <point x="306.00607979687106" y="79.00872985786654" type="curve" smooth="yes"/>
      <point x="391.70924891722456" y="79.01378294673019"/>
      <point x="456.02094382197794" y="149.74331425613428"/>
      <point x="456.0209408282701" y="248.02094261060094" type="curve" smooth="yes"/>
      <point x="456.02093782109813" y="346.7405745985918"/>
      <point x="394.2634845813901" y="418.02094070674207"/>
      <point x="305.0209372642463" y="418.02094070674207" type="curve" smooth="yes"/>
      <point x="214.9435942196764" y="418.02094070674207"/>
      <point x="156.02094369870989" y="348.78996181793497"/>
      <point x="156.0209467073862" y="250.020945321696" type="curve" smooth="yes"/>
      <point x="156.02094967668714" y="152.5445474522259"/>
      <point x="156.0209520561347" y="74.43189191723307"/>
      <point x="156.02095404866597" y="9.020948992335882" type="curve" smooth="yes"/>
      <point x="156.02095528951043" y="-31.713570761405926"/>
      <point x="156.0204602742269" y="-84.25026090276354"/>
      <point x="156.01572183850263" y="-124.9895203331463" type="curve" smooth="yes"/>
      <point x="156.007870826636" y="-192.48951987656565"/>
      <point x="66.00787143541021" y="-192.47905186074343"/>
    </contour>
  </outline>
</glyph>
<glyph name="q" format="2">
  <advance width="584"/>
  <unicode hex="0071"/>
  <outline>
    <contour>
      <point x="429.0034994250405" y="-124.99972737783307" type="curve" smooth="yes"/>
      <point x="429.0009781303607" y="-89.80520722334244"/>
      <point x="429.00000615927405" y="-43.19703781825931"/>
      <point x="429.0000050871108" y="-7.999997441213761" type="curve" smooth="yes"/>
      <point x="429.0000038168722" y="33.699478673408215"/>
      <point x="429.0000032408748" y="149.68380845392625"/>
      <point x="429.000870809867" y="220.00142832527504" type="curve" smooth="yes"/>
      <point x="429.0025633112171" y="357.18091217480656"/>
      <point x="372.2842970499653" y="418.0181568779117"/>
      <point x="280.0204739334898" y="418.02268609020587" type="curve" smooth="yes"/>
      <point x="192.57944287691274" y="418.0269785526194"/>
      <point x="129.02094417984054" y="346.4953749033134"/>
      <point x="129.0209471795432" y="248.02094535215772" type="curve" smooth="yes"/>
      <point x="129.0209501867152" y="149.30131336416687"/>
      <point x="189.77840341119236" y="79.02094724078573"/>
      <point x="279.0209507283361" y="79.02094724078572" type="curve" smooth="yes"/>
      <point x="367.34233891401027" y="79.0209472407857"/>
      <point x="429.0209442422083" y="149.44796472480388"/>
      <point x="429.0209412395036" y="248.02094261060094" type="curve" smooth="yes"/>
      <point x="429.0209378990403" y="357.681890213755"/>
      <point x="429.02169942583765" y="394.6590223837056"/>
      <point x="429.01744428559937" y="458.0144277886035" type="curve" smooth="yes"/>
      <point x="429.0129107818894" y="525.5144276363616"/>
      <point x="519.0129105789001" y="525.520472307975"/>
      <point x="519.0174440826102" y="458.02047246021687" type="curve" smooth="yes"/>
      <point x="519.0202994685434" y="415.5062136498649"/>
      <point x="519.0209389979059" y="321.6082561426671"/>
      <point x="519.0209412395036" y="248.02094535215772" type="curve" smooth="yes"/>
      <point x="519.0209458492732" y="96.69114142880127"/>
      <point x="414.61245504366343" y="-10.979052759214298"/>
      <point x="279.0209507283361" y="-10.979052759214284" type="curve" smooth="yes"/>
      <point x="142.28717486955128" y="-10.97905275921427"/>
      <point x="39.02095178700901" y="96.76676577566192"/>
      <point x="39.02094717954326" y="248.02094261060094" type="curve" smooth="yes"/>
      <point x="39.02094256746889" y="399.426411435919"/>
      <point x="145.58338915979036" y="508.02928568777077"/>
      <point x="280.0248920149794" y="508.02268598176454" type="curve" smooth="yes"/>
      <point x="413.36774560311" y="508.0161402082272"/>
      <point x="519.003316864237" y="418.25683073489034"/>
      <point x="519.000870803017" y="220.00031791782035" type="curve" smooth="yes"/>
      <point x="518.9995779382996" y="115.21191424530875"/>
      <point x="519.0000031941813" y="54.141208942130284"/>
      <point x="519.0000050871108" y="-7.99999469965687" type="curve" smooth="yes"/>
      <point x="519.0000063907024" y="-50.79438025157945"/>
      <point x="519.0004336733733" y="-82.20195854729536"/>
      <point x="519.003499194095" y="-124.99327988204121" type="curve" smooth="yes"/>
      <point x="519.0083348159388" y="-192.49327970883203"/>
      <point x="429.0083350468844" y="-192.4997272046239"/>
    </contour>
  </outline>
</glyph>
<glyph name="r" format="2">
  <advance width="389"/>
  <unicode hex="0072"/>
  <outline>
    <contour>
      <point x="322.88769370792926" y="411.42994402323905" type="curve" smooth="yes"/>
      <point x="200.73252753594764" y="428.20901831635103"/>
      <point x="156.02076748427712" y="355.24054254415705"/>
      <point x="156.0207703543755" y="261.02077062123215" type="curve" smooth="yes"/>
      <point x="156.02077150497948" y="223.2486664468125"/>
      <point x="156.02182052390756" y="163.45674406930235"/>
      <point x="156.02182142054662" y="134.02181975309858" type="curve" smooth="yes"/>
      <point x="156.02182757601304" y="-68.05022537252582"/>
      <point x="66.00483385404685" y="-67.09911670391871"/>
      <point x="66.00105213299972" y="130.00018561556254" type="curve" smooth="yes"/>
      <point x="66.00034619116722" y="166.7931274882773"/>
      <point x="66.00035051086385" y="239.6605019110388"/>
      <point x="66.00104774750068" y="274.00196046963043" type="curve" smooth="yes"/>
      <point x="66.00240471854087" y="340.8377552057853"/>
      <point x="66.00698919306467" y="387.1684107827383"/>
      <point x="66.00086791096635" y="453.99674768787963" type="curve" smooth="yes"/>
      <point x="65.99468510649994" y="521.4967474047162"/>
      <point x="155.99468472894864" y="521.5049911440047"/>
      <point x="156.00086753341503" y="454.0049914271682" type="curve" smooth="yes"/>
      <point x="156.00591981690877" y="398.8473139940321"/>
      <point x="156.00216772346812" y="329.16396604984794"/>
      <point x="156.00104772895102" y="274.00013319437954" type="curve" smooth="yes"/>
      <point x="156.00000869614112" y="222.82396100987722"/>
      <point x="156.00000011100667" y="184.8313229342011"/>
      <point x="156.00105211643358" y="130.00191243493822" type="curve" smooth="yes"/>
      <point x="156.00122431491877" y="121.02710946319462"/>
      <point x="66.02182170083225" y="124.8205830662276"/>
      <point x="66.02182142054664" y="134.0218170115418" type="curve" smooth="yes"/>
      <point x="66.02182008436128" y="177.88619605280346"/>
      <point x="66.02077112648138" y="235.6740274962777"/>
      <point x="66.02077035437554" y="261.0207678796753" type="curve" smooth="yes"/>
      <point x="66.02076603969505" y="402.6633724375103"/>
      <point x="151.4964968557424" y="525.8170813511513"/>
      <point x="335.1349789245441" y="500.5927389818029" type="curve" smooth="yes"/>
      <point x="402.0070751434669" y="491.40727506934167"/>
      <point x="389.7597899268521" y="402.24448011077783"/>
    </contour>
  </outline>
</glyph>
<glyph name="t" format="2">
  <advance width="336"/>
  <unicode hex="0074"/>
  <outline>
    <contour>
      <point x="118.01571470665799" y="40.02064603790602" type="curve" smooth="yes"/>
      <point x="118.02039193880108" y="82.67124863708267"/>
      <point x="118.02094888009292" y="90.69519049929224"/>
      <point x="118.02094661600103" y="165.02094387476322" type="curve" smooth="yes"/>
      <point x="118.0209439011772" y="254.14335360993576"/>
      <point x="118.02094052719886" y="364.9045249486181"/>
      <point x="118.02093753840202" y="463.0209393359637" type="curve" smooth="yes"/>
      <point x="118.02093564547275" y="525.1621429777502"/>
      <point x="118.02079283123521" y="542.9358382966623"/>
      <point x="118.01866485283713" y="588.0165457061637" type="curve" smooth="yes"/>
      <point x="118.01547859978196" y="655.5165456309621"/>
      <point x="208.01547849951322" y="655.5207939683689"/>
      <point x="208.0186647525684" y="588.0207940435705" type="curve" smooth="yes"/>
      <point x="208.020092719508" y="557.7696599862214"/>
      <point x="208.02093626816335" y="504.72041819214246"/>
      <point x="208.02093753840197" y="463.02094207752043" type="curve" smooth="yes"/>
      <point x="208.02094199235316" y="316.80634527331523"/>
      <point x="208.02094257032854" y="297.83253871347296"/>
      <point x="208.02094661600097" y="165.02094661632" type="curve" smooth="yes"/>
      <point x="208.02094813530618" y="115.14510263608594"/>
      <point x="208.01885279361414" y="68.63120331499299"/>
      <point x="208.01571416548012" y="40.01077628543614" type="curve" smooth="yes"/>
      <point x="208.00831185112773" y="-27.48922330868048"/>
      <point x="118.0083123923056" y="-27.479353556210597"/>
    </contour>
    <contour>
      <point x="279.0130820947639" y="408.01308687745666" type="curve" smooth="yes"/>
      <point x="257.2309637018428" y="408.01308687745666"/>
      <point x="242.70979400162776" y="408.0118537467539"/>
      <point x="222.01450050765519" y="408.0095964866422" type="curve" smooth="yes"/>
      <point x="185.00440392749908" y="408.0055597516828"/>
      <point x="148.00560950292385" y="408.0050514904097"/>
      <point x="111.00406644023053" y="408.0095965584578" type="curve" smooth="yes"/>
      <point x="90.29288381807402" y="408.0121406073432"/>
      <point x="82.60063991675317" y="408.01308687745666"/>
      <point x="57.01308547601723" y="408.01308687745666" type="curve" smooth="yes"/>
      <point x="-10.486914523982769" y="408.01308687745666"/>
      <point x="-10.486914523982755" y="498.01308687745666"/>
      <point x="57.013085476017245" y="498.01308687745666" type="curve" smooth="yes"/>
      <point x="78.01653723205706" y="498.01308687745666"/>
      <point x="94.01442200989611" y="498.0116841528328"/>
      <point x="111.0151215500037" y="498.0095958794831" type="curve" smooth="yes"/>
      <point x="151.3474205861376" y="498.00464167950975"/>
      <point x="181.66306158860075" y="498.00519584286974"/>
      <point x="222.0046841013257" y="498.0095959512987" type="curve" smooth="yes"/>
      <point x="241.0099018604334" y="498.01166887285336"/>
      <point x="259.00979470805936" y="498.01308687745666"/>
      <point x="279.0130820947639" y="498.01308687745666" type="curve" smooth="yes"/>
      <point x="346.5130820947639" y="498.01308687745666"/>
      <point x="346.5130820947639" y="408.01308687745666"/>
    </contour>
  </outline>
</glyph>
<glyph name="u" format="2">
  <advance width="568"/>
  <unicode hex="0075"/>
  <outline>
    <contour>
      <point x="147.0174496673544" y="458.01978911120455" type="curve" smooth="yes"/>
      <point x="147.0213760613014" y="382.47950482821653"/>
      <point x="147.0209457312638" y="282.56515435241016"/>
      <point x="147.02094803247195" y="207.02094597662344" type="curve" smooth="yes"/>
      <point x="147.0209505896685" y="123.0731361889619"/>
      <point x="185.4174397586301" y="79.02094724078573"/>
      <point x="258.02095092633743" y="79.02094724078572" type="curve" smooth="yes"/>
      <point x="346.70209286628267" y="79.0209472407857"/>
      <point x="413.02094448844093" y="145.3646257772338"/>
      <point x="413.0209420924324" y="224.0209429761418" type="curve" smooth="yes"/>
      <point x="413.02094112107324" y="255.90877765202922"/>
      <point x="413.02093896405097" y="326.71965171874393"/>
      <point x="413.02093755363285" y="373.020940706742" type="curve" smooth="yes"/>
      <point x="413.0209372871319" y="381.7696549498276"/>
      <point x="502.9999933365333" y="381.7487137404668"/>
      <point x="502.9999936030342" y="372.9999994973813" type="curve" smooth="yes"/>
      <point x="502.9999956444284" y="305.9849759621205"/>
      <point x="502.99999846152605" y="213.50512505370273"/>
      <point x="503.0000003046174" y="153.00000284817287" type="curve" smooth="yes"/>
      <point x="503.00000127597656" y="121.1121681722855"/>
      <point x="502.9996846876717" y="63.61473000831858"/>
      <point x="502.99825851401016" y="34.996015433260474" type="curve" smooth="yes"/>
      <point x="502.9948947458097" y="-32.50398448292518"/>
      <point x="412.99489485756214" y="-32.49949945865793"/>
      <point x="412.9982586257626" y="35.00050045752773" type="curve" smooth="yes"/>
      <point x="413.00038393179005" y="77.64855113054976"/>
      <point x="413.0000017521512" y="105.48025614524934"/>
      <point x="413.0000003046174" y="153.00000010661608" type="curve" smooth="yes"/>
      <point x="412.99999755801383" y="243.16566813587607"/>
      <point x="412.99999497289946" y="328.02997349495774"/>
      <point x="412.9999936030342" y="372.99999675582444" type="curve" smooth="yes"/>
      <point x="412.9999876824543" y="567.3611703941974"/>
      <point x="503.02093163305267" y="567.3821170866718"/>
      <point x="503.02093755363285" y="373.02094344829896" type="curve" smooth="yes"/>
      <point x="503.0209385000852" y="341.95074555897276"/>
      <point x="503.02094064489853" y="271.5406896790653"/>
      <point x="503.0209420924324" y="224.0209457176987" type="curve" smooth="yes"/>
      <point x="503.0209459116247" y="98.64426402166065"/>
      <point x="399.3770136228508" y="-10.979052759214298"/>
      <point x="258.02095092633743" y="-10.979052759214284" type="curve" smooth="yes"/>
      <point x="138.77084758134308" y="-10.97905275921427"/>
      <point x="57.0209522326263" y="69.13801124241687"/>
      <point x="57.020948032472" y="207.02094323506665" type="curve" smooth="yes"/>
      <point x="57.02094521633705" y="299.46920070900603"/>
      <point x="57.02225476718445" y="365.5716558258702"/>
      <point x="57.01744978892906" y="458.0151111376158" type="curve" smooth="yes"/>
      <point x="57.0139413087375" y="525.5151110464349"/>
      <point x="147.01394118716286" y="525.5197890200236"/>
    </contour>
  </outline>
</glyph>
<glyph name="v" format="2">
  <advance width="489"/>
  <unicode hex="0076"/>
  <outline>
    <contour>
      <point x="106.06745415185193" y="474.03917819068494" type="curve" smooth="yes"/>
      <point x="130.23174277627115" y="410.62066402495583"/>
      <point x="143.16673927644055" y="375.27844683925946"/>
      <point x="156.87792812943673" y="340.5434381518494" type="curve" smooth="yes"/>
      <point x="187.91551123987838" y="261.9149012294787"/>
      <point x="205.89452515104657" y="212.2221246392484"/>
      <point x="238.51969543861236" y="134.42364752664164" type="curve" smooth="yes"/>
      <point x="247.15498840049892" y="113.83179663561258"/>
      <point x="244.3255395789508" y="113.63431148270004"/>
      <point x="252.13675234065212" y="133.48781212377634" type="curve" smooth="yes"/>
      <point x="283.16329272672425" y="212.34694171572153"/>
      <point x="304.6534143861876" y="267.49971714870526"/>
      <point x="335.0395850166412" y="346.22482733196966" type="curve" smooth="yes"/>
      <point x="348.26713076943156" y="380.4950224647169"/>
      <point x="363.9884221249957" y="416.1692310862514"/>
      <point x="383.4742699810856" y="472.6846577420536" type="curve" smooth="yes"/>
      <point x="405.47639040448314" y="536.498110061093"/>
      <point x="490.5609934965356" y="507.161949496563"/>
      <point x="468.5588730731381" y="443.3484971775236" type="curve" smooth="yes"/>
      <point x="448.06174408562964" y="383.9000195694008"/>
      <point x="432.9163260189569" y="349.86581594171054"/>
      <point x="419.0022939744966" y="313.81705813292615" type="curve" smooth="yes"/>
      <point x="388.53714722239636" y="234.88733500405218"/>
      <point x="366.99486974399133" y="179.60071740190537"/>
      <point x="335.8876888633466" y="100.5366265370392" type="curve" smooth="yes"/>
      <point x="278.5557437116642" y="-45.18207868168308"/>
      <point x="218.90264722143525" y="-51.51972887819109"/>
      <point x="155.52220201234087" y="99.61824442660522" type="curve" smooth="yes"/>
      <point x="122.6318371860416" y="178.0491084683894"/>
      <point x="104.45383211404878" y="228.23077648168132"/>
      <point x="73.16395920821829" y="307.4984474958169" type="curve" smooth="yes"/>
      <point x="59.209563847225176" y="342.849579282302"/>
      <point x="45.70881941021891" y="379.6808094542923"/>
      <point x="21.96569992952241" y="441.9939767288923" type="curve" smooth="yes"/>
      <point x="-2.068201166821982" y="505.07029239563946"/>
      <point x="82.03355305550754" y="537.115493857432"/>
    </contour>
  </outline>
</glyph>
<glyph name="x" format="2">
  <advance width="499"/>
  <unicode hex="0078"/>
  <outline>
    <contour>
      <point x="126.27299189161644" y="485.9825483992553" type="curve" smooth="yes"/>
      <point x="149.3941245492724" y="456.83378348008614"/>
      <point x="174.54026275835116" y="424.75792379932665"/>
      <point x="195.59513945070185" y="397.5755439940455" type="curve" smooth="yes"/>
      <point x="229.5300528505991" y="353.76471013480676"/>
      <point x="315.97251439877704" y="243.8032686753391"/>
      <point x="391.6762095955823" y="145.47057107987513" type="curve" smooth="yes"/>
      <point x="413.2566636693455" y="117.43938635512058"/>
      <point x="432.5562566722328" y="91.62868535173642"/>
      <point x="451.30175578531066" y="67.94626366271109" type="curve" smooth="yes"/>
      <point x="493.194966543006" y="15.019815714531902"/>
      <point x="422.62636927876713" y="-40.83779862906186"/>
      <point x="380.7331585210718" y="12.08864931911733" type="curve" smooth="yes"/>
      <point x="361.49230187100386" y="36.39688875815691"/>
      <point x="341.38703481656233" y="63.258338071129806"/>
      <point x="320.36219244490616" y="90.56783018442371" type="curve" smooth="yes"/>
      <point x="241.85856725118427" y="192.53740004826915"/>
      <point x="157.1612993057729" y="300.2230222834284"/>
      <point x="124.44325320757017" y="342.4628495938944" type="curve" smooth="yes"/>
      <point x="103.59987016741871" y="369.3721857302677"/>
      <point x="78.65079056670388" y="401.1963826964281"/>
      <point x="55.761906848816146" y="430.05235184956507" type="curve" smooth="yes"/>
      <point x="13.814259436548568" y="482.9356656316654"/>
      <point x="84.32534447934887" y="538.8658621813556"/>
    </contour>
    <contour>
      <point x="446.40549054692747" y="430.2192638604627" type="curve" smooth="yes"/>
      <point x="424.33753271973814" y="402.13229348430275"/>
      <point x="401.39138359255435" y="372.8212164832726"/>
      <point x="379.22614945517444" y="344.99116815076076" type="curve" smooth="yes"/>
      <point x="311.5101763297226" y="259.9688853594287"/>
      <point x="242.66812588026565" y="169.54214133490044"/>
      <point x="190.16500582117214" y="103.91456012963282" type="curve" smooth="yes"/>
      <point x="166.79776907064908" y="74.70610117211493"/>
      <point x="141.45146846055815" y="43.276249310886584"/>
      <point x="117.60330130668271" y="12.472871322304371" type="curve" smooth="yes"/>
      <point x="76.28118756603854" y="-40.900651289616846"/>
      <point x="5.116490750143569" y="14.19550036457538"/>
      <point x="46.438604490787746" y="67.5690229764966" type="curve" smooth="yes"/>
      <point x="70.60113321166159" y="98.77844467111515"/>
      <point x="96.21210532970994" y="130.54432456871396"/>
      <point x="119.88736412292995" y="160.1378033421467" type="curve" smooth="yes"/>
      <point x="173.52374333957007" y="227.1819300270888"/>
      <point x="242.54926935643357" y="317.8457266372023"/>
      <point x="308.82620004909904" y="401.06118797973903" type="curve" smooth="yes"/>
      <point x="330.85703709482266" y="428.72249108116694"/>
      <point x="353.70222920009775" y="457.9059503861376"/>
      <point x="375.63637976261384" y="485.8226177053302" type="curve" smooth="yes"/>
      <point x="417.33889514626446" y="538.8994507935654"/>
      <point x="488.1080059305781" y="483.296096948698"/>
    </contour>
  </outline>
</glyph>
<glyph name="z" format="2">
  <advance width="474"/>
  <unicode hex="007A"/>
  <outline>
    <contour>
      <point x="90.02050371172093" y="498.019195510768" type="curve" smooth="yes"/>
      <point x="156.15220042568004" y="498.0172717617097"/>
      <point x="205.78203855680533" y="498.0183941217941"/>
      <point x="273.018655526749" y="498.0191955266112" type="curve" smooth="yes"/>
      <point x="463.2096191667845" y="498.0214624454614"/>
      <point x="482.7470259528897" y="464.22495552788934"/>
      <point x="357.16654335352973" y="317.71438731411143" type="curve" smooth="yes"/>
      <point x="302.32741697946113" y="253.7354042818156"/>
      <point x="247.2459587791766" y="189.9086466730629"/>
      <point x="192.3748577928021" y="124.95917785997204" type="curve" smooth="yes"/>
      <point x="155.86346389153138" y="81.74160801201297"/>
      <point x="154.69844651100397" y="90.0208563374859"/>
      <point x="211.02052725848827" y="90.01920172458439" type="curve" smooth="yes"/>
      <point x="277.0861088079312" y="90.01726087008957"/>
      <point x="324.15067338311525" y="90.0172798978397"/>
      <point x="388.01784847227566" y="90.01920172363" type="curve" smooth="yes"/>
      <point x="455.5178484417162" y="90.02123286448285"/>
      <point x="455.52055662952" y="0.021232905228844093"/>
      <point x="388.0205566600795" y="0.01920176437599963" type="curve" smooth="yes"/>
      <point x="335.8842973376428" y="0.017632933319407244"/>
      <point x="264.94875287366193" y="0.017617398791245933"/>
      <point x="211.0178832655952" y="0.019201763421605733" type="curve" smooth="yes"/>
      <point x="23.75988020282632" y="0.0247029718938506"/>
      <point x="2.2331383020639795" y="39.352315699117895"/>
      <point x="123.62515046232991" y="183.04082506435515" type="curve" smooth="yes"/>
      <point x="178.6663727476749" y="248.19166195286832"/>
      <point x="233.8242995776124" y="312.1082674987039"/>
      <point x="288.83344811718257" y="376.28560973109967" type="curve" smooth="yes"/>
      <point x="322.9044414946767" y="416.0351034105414"/>
      <point x="324.62006397695995" y="408.0198105662924"/>
      <point x="273.0197282519253" y="408.01919553300417" type="curve" smooth="yes"/>
      <point x="218.2425791498323" y="408.01854263473047"/>
      <point x="143.8948648013981" y="408.0176282854461"/>
      <point x="90.01788564145205" y="408.0191955488474" type="curve" smooth="yes"/>
      <point x="22.51788567001161" y="408.0211591015491"/>
      <point x="22.52050374028049" y="498.02115906346967"/>
    </contour>
  </outline>
</glyph>
<glyph name="braceleft" format="2">
  <advance width="466"/>
  <unicode hex="007B"/>
  <outline>
    <contour>
      <point x="367.0" y="674.0" type="curve" smooth="yes"/>
      <point x="328.0" y="687.0"/>
      <point x="291.0" y="690.0"/>
      <point x="264.0" y="683.0" type="curve" smooth="yes"/>
      <point x="233.0" y="675.0"/>
      <point x="216.0" y="654.0"/>
      <point x="216.0" y="619.0" type="curve" smooth="yes"/>
      <point x="216.0" y="557.0"/>
      <point x="274.0" y="465.0"/>
      <point x="274.0" y="389.0" type="curve" smooth="yes"/>
      <point x="274.0" y="299.0"/>
      <point x="139" y="259"/>
      <point x="73.0" y="259.0" type="curve" smooth="yes"/>
      <point x="6" y="259"/>
      <point x="6" y="349"/>
      <point x="73.0" y="349.0" type="curve" smooth="yes"/>
      <point x="139.0" y="349.0"/>
      <point x="274" y="310"/>
      <point x="274.0" y="220.0" type="curve" smooth="yes"/>
      <point x="274" y="140"/>
      <point x="216.0" y="51.0"/>
      <point x="216.0" y="-10.0" type="curve" smooth="yes"/>
      <point x="216.0" y="-42.0"/>
      <point x="230.0" y="-63.0"/>
      <point x="258.0" y="-72.0" type="curve" smooth="yes"/>
      <point x="287.0" y="-82.0"/>
      <point x="325" y="-80"/>
      <point x="367.0" y="-65.0" type="curve" smooth="yes"/>
      <point x="430.0" y="-43.0"/>
      <point x="459" y="-129"/>
      <point x="395.0" y="-151.0" type="curve" smooth="yes"/>
      <point x="331" y="-173"/>
      <point x="275.0" y="-173.0"/>
      <point x="230.0" y="-158.0" type="curve" smooth="yes"/>
      <point x="167.0" y="-137.0"/>
      <point x="126.0" y="-84.0"/>
      <point x="126.0" y="-10.0" type="curve" smooth="yes"/>
      <point x="126.0" y="74.0"/>
      <point x="184.0" y="161.0"/>
      <point x="184.0" y="220.0" type="curve" smooth="yes"/>
      <point x="184.0" y="259.0"/>
      <point x="139" y="259"/>
      <point x="73.0" y="259.0" type="curve" smooth="yes"/>
      <point x="6" y="259"/>
      <point x="6" y="349"/>
      <point x="73.0" y="349.0" type="curve" smooth="yes"/>
      <point x="139" y="349"/>
      <point x="184" y="350"/>
      <point x="184.0" y="389.0" type="curve" smooth="yes"/>
      <point x="184.0" y="444.0"/>
      <point x="126.0" y="534.0"/>
      <point x="126.0" y="619.0" type="curve" smooth="yes"/>
      <point x="126.0" y="696.0"/>
      <point x="171.0" y="751.0"/>
      <point x="240.0" y="769.0" type="curve" smooth="yes"/>
      <point x="282.0" y="780.0"/>
      <point x="336.0" y="779.0"/>
      <point x="395.0" y="760.0" type="curve" smooth="yes"/>
      <point x="459.0" y="739.0"/>
      <point x="431.0" y="653.0"/>
    </contour>
  </outline>
</glyph>
<glyph name="bar" format="2">
  <advance width="315"/>
  <unicode hex="007C"/>
  <outline>
    <contour>
      <point x="203" y="730" type="curve" smooth="yes"/>
      <point x="203" y="687"/>
      <point x="203" y="661"/>
      <point x="203" y="603" type="curve" smooth="yes"/>
      <point x="203" y="431"/>
      <point x="203" y="196"/>
      <point x="203" y="33" type="curve" smooth="yes"/>
      <point x="203" y="-45"/>
      <point x="203" y="-68"/>
      <point x="203" y="-120" type="curve" smooth="yes"/>
      <point x="203" y="-187"/>
      <point x="113" y="-187"/>
      <point x="113" y="-120" type="curve" smooth="yes"/>
      <point x="113" y="-68"/>
      <point x="113" y="-42"/>
      <point x="113" y="33" type="curve" smooth="yes"/>
      <point x="113" y="197"/>
      <point x="113" y="432"/>
      <point x="113" y="603" type="curve" smooth="yes"/>
      <point x="113" y="657"/>
      <point x="113" y="685"/>
      <point x="113" y="730" type="curve" smooth="yes"/>
      <point x="113" y="798"/>
      <point x="203" y="798"/>
    </contour>
  </outline>
</glyph>
<glyph name="braceright" format="2">
  <advance width="466"/>
  <unicode hex="007D"/>
  <outline>
    <contour>
      <point x="99.49216616194674" y="-65.3693790584228" type="curve" smooth="yes"/>
      <point x="141.03759756657084" y="-79.47914806873766"/>
      <point x="178.9860700162665" y="-81.77243750037238"/>
      <point x="207.94717651789998" y="-72.23646338310104" type="curve" smooth="yes"/>
      <point x="235.5075749015852" y="-63.16169803759584"/>
      <point x="250.02095191392715" y="-42.399710632915884"/>
      <point x="250.02095092633746" y="-9.979053459834311" type="curve" smooth="yes"/>
      <point x="250.02094905513036" y="51.44905150781669"/>
      <point x="192.02094724196405" y="139.9717904692964"/>
      <point x="192.0209448035274" y="220.02094303706536" type="curve" smooth="yes"/>
      <point x="192.0209426711361" y="290.02322256141576"/>
      <point x="233.61747579894873" y="349.02094312845054"/>
      <point x="340.02094067596136" y="349.02094312845054" type="curve" smooth="yes"/>
      <point x="480.5263663869339" y="349.02094312845054"/>
      <point x="482.51264280363495" y="258.99999917753297"/>
      <point x="339.99999672536273" y="258.99999917753297" type="curve" smooth="yes"/>
      <point x="233.70285556379696" y="258.99999917753297"/>
      <point x="192.002745908187" y="319.07599885623955"/>
      <point x="192.01134068457554" y="389.016872407232" type="curve" smooth="yes"/>
      <point x="192.0206318379144" y="464.62458474772694"/>
      <point x="250.02093365838573" y="556.8943597435702"/>
      <point x="250.02093176590196" y="619.0209369599479" type="curve" smooth="yes"/>
      <point x="250.02093070455908" y="653.8627673834432"/>
      <point x="233.45094730942017" y="674.1450991453646"/>
      <point x="202.26715574549834" y="682.583063860821" type="curve" smooth="yes"/>
      <point x="174.75811216875374" y="690.0266852876994"/>
      <point x="137.62961922858057" y="686.8610325063847"/>
      <point x="98.98901228169429" y="674.2436913370026" type="curve" smooth="yes"/>
      <point x="34.823144030046905" y="653.2915708831623"/>
      <point x="6.886983424926598" y="738.8460618853588"/>
      <point x="71.05285167657398" y="759.7981823391991" type="curve" smooth="yes"/>
      <point x="130.19566573054024" y="779.1101218142169"/>
      <point x="183.66971684122996" y="780.8519203829655"/>
      <point x="225.7747037348939" y="769.4588095412252" type="curve" smooth="yes"/>
      <point x="294.7948896249052" y="750.782764583692"/>
      <point x="340.0209294167944" y="696.1375920382949"/>
      <point x="340.02093176590193" y="619.0209397015046" type="curve" smooth="yes"/>
      <point x="340.0209343534819" y="534.0756981962043"/>
      <point x="282.0181352933907" y="444.303167985841"/>
      <point x="282.01134000502844" y="389.00581263874676" type="curve" smooth="yes"/>
      <point x="282.00774570930764" y="359.756862909899"/>
      <point x="295.54702408858094" y="348.99999917753297"/>
      <point x="339.99999672536273" y="348.99999917753297" type="curve" smooth="yes"/>
      <point x="345.35481320173426" y="348.99999917753297"/>
      <point x="345.30033720196144" y="259.02094312845054"/>
      <point x="340.02094067596136" y="259.02094312845054" type="curve" smooth="yes"/>
      <point x="295.81124301380873" y="259.02094312845054"/>
      <point x="282.02094391753775" y="249.10627318793303"/>
      <point x="282.02094480352736" y="220.0209457786221" type="curve" smooth="yes"/>
      <point x="282.0209465958709" y="161.18177948492024"/>
      <point x="340.0209483806096" y="73.5922645624733"/>
      <point x="340.02095092633743" y="-9.979050718277541" type="curve" smooth="yes"/>
      <point x="340.0209531663947" y="-83.51579269244048"/>
      <point x="298.6074058555395" y="-137.1381967943912"/>
      <point x="236.09473395544782" y="-157.72163759652793" type="curve" smooth="yes"/>
      <point x="191.32171344299232" y="-172.4639736579886"/>
      <point x="134.7777654639919" y="-172.40201083903966"/>
      <point x="70.54974805819528" y="-150.58872213443834" type="curve" smooth="yes"/>
      <point x="6.6352407511836375" y="-128.8819085566247"/>
      <point x="35.5776588549351" y="-43.66256548060914"/>
    </contour>
  </outline>
</glyph>
<glyph name="asciitilde" format="2">
  <advance width="639"/>
  <unicode hex="007E"/>
  <outline>
    <contour>
      <point x="576.9999925901814" y="386.99999928414906" type="curve" smooth="yes"/>
      <point x="576.9999964235287" y="261.1586211001565"/>
      <point x="521.7116638968653" y="174.000000472157"/>
      <point x="427.99999929176454" y="174.000000472157" type="curve" smooth="yes"/>
      <point x="308.0766123613006" y="174.000000472157"/>
      <point x="270.5984317126357" y="338.9999979590633"/>
      <point x="209.99999758590698" y="338.9999979590633" type="curve" smooth="yes"/>
      <point x="167.5809320827496" y="338.9999979590633"/>
      <point x="153.0000024779694" y="274.40306308862733"/>
      <point x="153.0000042570284" y="216.00000188862802" type="curve" smooth="yes"/>
      <point x="153.000006313196" y="148.50000188862805"/>
      <point x="63.00000631319604" y="148.49999914707126"/>
      <point x="63.00000425702844" y="215.99999914707124" type="curve" smooth="yes"/>
      <point x="63.00000037445481" y="343.4573725603296"/>
      <point x="117.42569479101391" y="428.9999979590633"/>
      <point x="209.99999758590698" y="428.9999979590633" type="curve" smooth="yes"/>
      <point x="329.9233845163708" y="428.9999979590633"/>
      <point x="367.40156516503583" y="264.000000472157"/>
      <point x="427.99999929176454" y="264.000000472157" type="curve" smooth="yes"/>
      <point x="471.48699154786146" y="264.000000472157"/>
      <point x="486.99999436905" y="328.6031783701192"/>
      <point x="486.99999259018136" y="386.9999965425923" type="curve" smooth="yes"/>
      <point x="486.9999905340138" y="454.49999654259227"/>
      <point x="576.9999905340138" y="454.499999284149"/>
    </contour>
  </outline>
</glyph>
<glyph name="cent" format="2">
  <advance width="475"/>
  <unicode hex="00A2"/>
  <outline>
    <contour>
      <point x="397.23677008363836" y="114.31896525369498" type="curve" smooth="yes"/>
      <point x="239.14918830014165" y="39.56437124051852"/>
      <point x="47.00000590343264" y="128.9517403431401"/>
      <point x="47.00000026654029" y="313.9999976544459" type="curve" smooth="yes"/>
      <point x="46.999994629647944" y="499.0482549657515"/>
      <point x="239.1491736060832" y="588.4356270240985"/>
      <point x="397.23675994389026" y="513.6810330109223" type="curve" smooth="yes"/>
      <point x="458.258314555" y="484.82587969572836"/>
      <point x="419.784776801408" y="403.46380688091534"/>
      <point x="358.7632221902982" y="432.3189601961093" type="curve" smooth="yes"/>
      <point x="258.8969165651085" y="479.5425614006618"/>
      <point x="136.9999967056306" y="430.8977673121898"/>
      <point x="137.00000026654024" y="314.00000039600263" type="curve" smooth="yes"/>
      <point x="137.0000038274499" y="197.10223347981534"/>
      <point x="258.8969286760546" y="148.457436435618"/>
      <point x="358.7632314242179" y="195.6810376401705" type="curve" smooth="yes"/>
      <point x="419.78478571407453" y="224.53619163473581"/>
      <point x="458.258324373495" y="143.1741192482603"/>
    </contour>
    <contour>
      <point x="197.10812381345986" y="-6.882505460371455" type="curve" smooth="yes"/>
      <point x="207.10811927466034" y="137.11749234638313" type="line" smooth="yes"/>
      <point x="211.78435514406345" y="204.45531840346422"/>
      <point x="301.56812322017157" y="198.22033724426"/>
      <point x="296.89188735076846" y="130.88251118717892" type="curve" smooth="yes"/>
      <point x="286.89189188956794" y="-13.11748661957565" type="line" smooth="yes"/>
      <point x="282.21565602016483" y="-80.45531267665672"/>
      <point x="192.4318879440567" y="-74.22033151745254"/>
    </contour>
    <contour>
      <point x="227.0692760108998" y="498.49614577176266" type="curve" smooth="yes"/>
      <point x="235.06927150256203" y="642.4961435785171" type="line" smooth="yes"/>
      <point x="238.8134957803974" y="709.8922175335872"/>
      <point x="328.67492772049076" y="704.8999184964734"/>
      <point x="324.9307034426554" y="637.5038445414034" type="curve" smooth="yes"/>
      <point x="316.93070795099317" y="493.5038467346488" type="line" smooth="yes"/>
      <point x="313.1864836731578" y="426.1077727795788"/>
      <point x="223.32505173306444" y="431.10007181669266"/>
    </contour>
  </outline>
</glyph>
<glyph name="currency" format="2">
  <advance width="646"/>
  <unicode hex="00A4"/>
  <outline>
    <contour>
      <point x="322.00000233032324" y="219.0000011575462" type="curve" smooth="yes"/>
      <point x="395.3804476827001" y="219.0000011575462"/>
      <point x="444.99999687395535" y="269.1219917359106"/>
      <point x="444.9999945930408" y="343.9999971975197" type="curve" smooth="yes"/>
      <point x="444.99999231212627" y="418.8780026591288"/>
      <point x="395.3804373866314" y="466.9999960095119"/>
      <point x="321.99999203425455" y="466.99999600951185" type="curve" smooth="yes"/>
      <point x="248.61954668187758" y="466.9999960095118"/>
      <point x="201.99999738400626" y="418.87800540068565"/>
      <point x="201.9999996649208" y="343.9999999390765" type="curve" smooth="yes"/>
      <point x="202.0000019446949" y="269.15943348019823"/>
      <point x="248.65624720062246" y="219.0000011575462"/>
    </contour>
    <contour>
      <point x="169.1801906401405" y="433.1801910873248" type="curve" smooth="yes"/>
      <point x="68.18018910182255" y="534.1801895490067" type="line" smooth="yes"/>
      <point x="20.45048064476559" y="581.9098965521337"/>
      <point x="84.09008998226817" y="645.5495078282097"/>
      <point x="131.81979843932513" y="597.8198008250828" type="curve" smooth="yes"/>
      <point x="232.81979997764307" y="496.8198023634007" type="line" smooth="yes"/>
      <point x="280.5495084347" y="449.0900953602737"/>
      <point x="216.9098990971974" y="385.4504840841978"/>
    </contour>
    <contour>
      <point x="322.00000233032324" y="129.0000011575462" type="curve" smooth="yes"/>
      <point x="199.40891477091955" y="129.0000011575462"/>
      <point x="112.00000347546997" y="218.90705070833226"/>
      <point x="111.99999966492086" y="343.99999719751975" type="curve" smooth="yes"/>
      <point x="111.99999585437176" y="469.09294368670714"/>
      <point x="199.40890447485086" y="556.9999960095117"/>
      <point x="321.99999203425455" y="556.9999960095118" type="curve" smooth="yes"/>
      <point x="444.5910795936582" y="556.999996009512"/>
      <point x="534.9999907824917" y="469.09294642826393"/>
      <point x="534.9999945930408" y="343.99999993907653" type="curve" smooth="yes"/>
      <point x="534.9999984035899" y="218.90705344988905"/>
      <point x="444.5910898897269" y="129.0000011575462"/>
    </contour>
    <contour>
      <point x="578.8197926004126" y="534.1801905182934" type="curve" smooth="yes"/>
      <point x="477.81979721536635" y="433.1801920566114" type="line" smooth="yes"/>
      <point x="430.0900902122394" y="385.45048359955445"/>
      <point x="366.45047893616345" y="449.0900929370571"/>
      <point x="414.1801859392904" y="496.81980139411405" type="curve" smooth="yes"/>
      <point x="515.1801813243366" y="597.8197998557961" type="line" smooth="yes"/>
      <point x="562.9098883274636" y="645.5495083128529"/>
      <point x="626.5494996035396" y="581.9098989753503"/>
    </contour>
    <contour>
      <point x="68.18020171847262" y="151.81980664876448" type="curve" smooth="yes"/>
      <point x="169.18019710351876" y="252.8198051104465" type="line" smooth="yes"/>
      <point x="216.90990410664568" y="300.5495135675035"/>
      <point x="280.54951538272167" y="236.909904230001"/>
      <point x="232.81980837959475" y="189.180195772944" type="curve" smooth="yes"/>
      <point x="131.8198129945486" y="88.18019731126195" type="line" smooth="yes"/>
      <point x="84.0901059914217" y="40.45048885420496"/>
      <point x="20.450494715345705" y="104.0900981917075"/>
    </contour>
    <contour>
      <point x="477.81980367874473" y="252.8198060797332" type="curve" smooth="yes"/>
      <point x="578.8198052170627" y="151.8198076180512" type="line" smooth="yes"/>
      <point x="626.5495136741197" y="104.09010061492418"/>
      <point x="562.909904336617" y="40.450489338848264"/>
      <point x="515.1801958795601" y="88.18019634197526" type="curve" smooth="yes"/>
      <point x="414.1801943412421" y="189.1801948036573" type="line" smooth="yes"/>
      <point x="366.4504858841851" y="236.9099018067842"/>
      <point x="430.09009522168776" y="300.54951308286013"/>
    </contour>
  </outline>
</glyph>
<glyph name="yen" format="2">
  <advance width="599"/>
  <unicode hex="00A5"/>
  <outline>
    <contour>
      <point x="126.63889383111959" y="664.6639965374889" type="curve" smooth="yes"/>
      <point x="337.63890042608665" y="342.6640014418293" type="line"/>
      <point x="262.361094364657" y="342.66399983758475" type="line"/>
      <point x="473.3610813422624" y="664.6639949332442" type="line" smooth="yes"/>
      <point x="510.35708265218847" y="721.1223502677379"/>
      <point x="585.6348897648467" y="671.79434852117"/>
      <point x="548.6388884549207" y="615.3359931866763" type="curve" smooth="yes"/>
      <point x="337.63890147731524" y="293.33599809101673" type="line" smooth="yes"/>
      <point x="319.8712182187612" y="266.22133327957835"/>
      <point x="280.1287798301203" y="266.2213324326276"/>
      <point x="262.3610954158856" y="293.33599648677216" type="curve" smooth="yes"/>
      <point x="51.361088820918525" y="615.3359915824317" type="line" smooth="yes"/>
      <point x="14.36508510462565" y="671.7943453400825"/>
      <point x="89.64289011482671" y="721.1223502951397"/>
    </contour>
    <contour>
      <point x="344.9999979209861" y="318.00000033507916" type="curve" smooth="yes"/>
      <point x="345.0000063893503" y="40.000004569261286" type="line" smooth="yes"/>
      <point x="345.0000084455179" y="-27.499995430738686"/>
      <point x="255.00000844551792" y="-27.499998172295484"/>
      <point x="255.00000638935032" y="40.00000182770449" type="curve" smooth="yes"/>
      <point x="254.99999792098615" y="317.9999975935223" type="line" smooth="yes"/>
      <point x="254.99999586481863" y="385.49999759352227"/>
      <point x="344.9999958648186" y="385.5000003350791"/>
    </contour>
    <contour>
      <point x="488.9999999162302" y="113.00000140124013" type="curve" smooth="yes"/>
      <point x="110.00000568873024" y="113.00000140124013" type="line" smooth="yes"/>
      <point x="42.50000568873024" y="113.00000140124014"/>
      <point x="42.50000568873027" y="203.00000140124016"/>
      <point x="110.00000568873027" y="203.00000140124013" type="curve" smooth="yes"/>
      <point x="488.9999999162302" y="203.00000140124013" type="line" smooth="yes"/>
      <point x="556.4999999162302" y="203.0000014012401"/>
      <point x="556.4999999162302" y="113.0000014012401"/>
    </contour>
    <contour>
      <point x="110.0000008148516" y="362.99999896430074" type="curve" smooth="yes"/>
      <point x="488.99999504235154" y="362.99999896430074" type="line" smooth="yes"/>
      <point x="556.4999950423515" y="362.99999896430074"/>
      <point x="556.4999950423515" y="272.99999896430074"/>
      <point x="488.99999504235154" y="272.99999896430074" type="curve" smooth="yes"/>
      <point x="110.0000008148516" y="272.99999896430074" type="line" smooth="yes"/>
      <point x="42.5000008148516" y="272.99999896430074"/>
      <point x="42.5000008148516" y="362.99999896430074"/>
    </contour>
  </outline>
</glyph>
<glyph name="brokenbar" format="2">
  <advance width="315"/>
  <unicode hex="00A6"/>
  <outline>
    <contour>
      <point x="203.00000060161938" y="230.00000167539582" type="curve" smooth="yes"/>
      <point x="203.00001126322894" y="-119.99999299379938" type="line" smooth="yes"/>
      <point x="203.00001331939654" y="-187.49999299379937"/>
      <point x="113.0000133193966" y="-187.49999573535615"/>
      <point x="113.000011263229" y="-119.9999957353562" type="curve" smooth="yes"/>
      <point x="113.00000060161943" y="229.99999893383904" type="line" smooth="yes"/>
      <point x="112.9999985454519" y="297.49999893383904"/>
      <point x="202.99999854545186" y="297.50000167539577"/>
    </contour>
    <contour>
      <point x="202.99998537074853" y="729.9999940599603" type="curve" smooth="yes"/>
      <point x="202.99999603235813" y="379.9999993907652" type="line" smooth="yes"/>
      <point x="202.99999808852573" y="312.4999993907652"/>
      <point x="112.99999808852579" y="312.49999664920836"/>
      <point x="112.99999603235818" y="379.99999664920836" type="curve" smooth="yes"/>
      <point x="112.99998537074859" y="729.9999913184035" type="line" smooth="yes"/>
      <point x="112.99998331458106" y="797.4999913184035"/>
      <point x="202.99998331458102" y="797.4999940599603"/>
    </contour>
  </outline>
</glyph>
<glyph name="dieresis" format="2">
  <advance width="577"/>
  <unicode hex="00A8"/>
  <outline>
    <contour>
      <point x="135" y="631" type="curve" smooth="yes"/>
      <point x="135.0" y="661.0"/>
      <point x="135.0" y="654.0"/>
      <point x="135" y="685" type="curve" smooth="yes"/>
      <point x="135.0" y="752.0"/>
      <point x="225.0" y="752.0"/>
      <point x="225" y="685" type="curve" smooth="yes"/>
      <point x="225.0" y="654.0"/>
      <point x="225.0" y="661.0"/>
      <point x="225" y="631" type="curve" smooth="yes"/>
      <point x="225.0" y="563.0"/>
      <point x="135.0" y="563.0"/>
    </contour>
    <contour>
      <point x="355" y="631" type="curve" smooth="yes"/>
      <point x="355.0" y="661.0"/>
      <point x="355.0" y="654.0"/>
      <point x="355" y="685" type="curve" smooth="yes"/>
      <point x="355.0" y="752.0"/>
      <point x="445.0" y="752.0"/>
      <point x="445" y="685" type="curve" smooth="yes"/>
      <point x="445.0" y="654.0"/>
      <point x="445.0" y="661.0"/>
      <point x="445" y="631" type="curve" smooth="yes"/>
      <point x="445.0" y="563.0"/>
      <point x="355.0" y="563.0"/>
    </contour>
  </outline>
</glyph>
<glyph name="ordfeminine" format="2">
  <advance width="495"/>
  <unicode hex="00AA"/>
  <outline>
    <contour>
      <point x="246.99999696144127" y="304.9999984769129" type="curve" smooth="yes"/>
      <point x="140.74178972388117" y="304.9999984769129"/>
      <point x="60.99999799535961" y="386.55846043208544"/>
      <point x="60.999994600656315" y="497.9999948519656" type="curve" smooth="yes"/>
      <point x="60.999991200858425" y="609.6087751685565"/>
      <point x="140.88009025041342" y="689.999993983806"/>
      <point x="245.99998799045835" y="689.999993983806" type="curve" smooth="yes"/>
      <point x="349.9779202765999" y="689.999993983806"/>
      <point x="430.9999869311123" y="609.7762748011244"/>
      <point x="430.99999033601244" y="497.9999975935224" type="curve" smooth="yes"/>
      <point x="430.99999373751024" y="386.3354128867731"/>
      <point x="352.1724546503562" y="304.9999984769129"/>
    </contour>
    <contour>
      <point x="398.9999998857685" y="133.00000109662273" type="curve" smooth="yes"/>
      <point x="106.00000434841361" y="133.00000109662273" type="line" smooth="yes"/>
      <point x="38.50000434841361" y="133.00000109662275"/>
      <point x="38.50000434841364" y="223.00000109662275"/>
      <point x="106.00000434841364" y="223.00000109662273" type="curve" smooth="yes"/>
      <point x="398.9999998857685" y="223.00000109662273" type="line" smooth="yes"/>
      <point x="466.4999998857685" y="223.0000010966227"/>
      <point x="466.4999998857685" y="133.0000010966227"/>
    </contour>
    <contour>
      <point x="340.9999947225033" y="353.99999704521105" type="curve" smooth="yes"/>
      <point x="340.99998594952166" y="641.9999926587202" type="line" smooth="yes"/>
      <point x="340.99998389335406" y="709.4999926587202"/>
      <point x="430.99998389335406" y="709.4999954002769"/>
      <point x="430.99998594952166" y="641.9999954002769" type="curve" smooth="yes"/>
      <point x="430.9999947225033" y="353.9999997867678" type="line" smooth="yes"/>
      <point x="430.9999967786709" y="286.49999978676783"/>
      <point x="340.9999967786709" y="286.4999970452111"/>
    </contour>
    <contour>
      <point x="246.99999696144127" y="394.9999984769129" type="curve" smooth="yes"/>
      <point x="303.79130974942024" y="394.9999984769129"/>
      <point x="340.9999921727626" y="437.7030454721361"/>
      <point x="340.99999033601244" y="497.99999485196565" type="curve" smooth="yes"/>
      <point x="340.99998850293304" y="558.176440748315"/>
      <point x="301.9780771963646" y="599.999993983806"/>
      <point x="245.99998799045835" y="599.999993983806" type="curve" smooth="yes"/>
      <point x="189.1802653411548" y="599.999993983806"/>
      <point x="150.9999927629873" y="558.3271105298202"/>
      <point x="150.99999460065627" y="497.99999759352244" type="curve" smooth="yes"/>
      <point x="150.99999644290105" y="437.52266946769146"/>
      <point x="189.3355678182071" y="394.9999984769129"/>
    </contour>
  </outline>
</glyph>
<glyph name="guillemetleft" format="2">
  <advance width="637"/>
  <unicode hex="00AB"/>
  <outline>
    <contour>
      <point x="308.73873075940264" y="426.0993290065375" type="curve" smooth="yes"/>
      <point x="111.73873973038556" y="230.09933199178823" type="line"/>
      <point x="111.90026217542209" y="293.739147278638" type="line"/>
      <point x="308.9002652063654" y="95.73915029435041" type="line" smooth="yes"/>
      <point x="356.5089863984781" y="47.88876193175002"/>
      <point x="292.7084685816775" y="-15.589532991066825"/>
      <point x="245.09974738956484" y="32.260855371533566" type="curve" smooth="yes"/>
      <point x="48.099744358621535" y="230.26085235582113" type="line" smooth="yes"/>
      <point x="30.57053754977009" y="247.87903937049023"/>
      <point x="30.64285394828583" y="276.3716878238396"/>
      <point x="48.26126680365807" y="293.90066764267084" type="curve" smooth="yes"/>
      <point x="245.26125783267514" y="489.9006646574201" type="line" smooth="yes"/>
      <point x="293.11225957083707" y="537.5087693524657"/>
      <point x="356.58973249756457" y="473.7074337015831"/>
    </contour>
    <contour>
      <point x="568.7387267993762" y="426.0993290065376" type="curve" smooth="yes"/>
      <point x="371.73873577035914" y="230.0993319917883" type="line"/>
      <point x="371.9002582153957" y="293.739147278638" type="line"/>
      <point x="568.9002612463389" y="95.73915029435041" type="line" smooth="yes"/>
      <point x="616.5089824384515" y="47.88876193175002"/>
      <point x="552.708464621651" y="-15.589532991066825"/>
      <point x="505.09974342953836" y="32.260855371533566" type="curve" smooth="yes"/>
      <point x="308.0997403985951" y="230.26085235582113" type="line" smooth="yes"/>
      <point x="290.57053358974366" y="247.8790393704902"/>
      <point x="290.64284998825946" y="276.3716878238396"/>
      <point x="308.26126284363164" y="293.9006676426708" type="curve" smooth="yes"/>
      <point x="505.26125387264864" y="489.90066465742007" type="line" smooth="yes"/>
      <point x="553.1122556108104" y="537.5087693524658"/>
      <point x="616.589728537538" y="473.70743370158334"/>
    </contour>
  </outline>
</glyph>
<glyph name="logicalnot" format="2">
  <advance width="490"/>
  <unicode hex="00AC"/>
  <outline>
    <contour>
      <point x="80" y="433" type="curve" smooth="yes"/>
      <point x="163" y="433"/>
      <point x="230" y="433"/>
      <point x="286" y="433" type="curve" smooth="yes"/>
      <point x="420" y="433"/>
      <point x="435" y="413"/>
      <point x="435" y="305" type="curve" smooth="yes"/>
      <point x="435" y="260"/>
      <point x="435" y="224"/>
      <point x="435" y="194" type="curve" smooth="yes"/>
      <point x="435" y="127"/>
      <point x="345" y="127"/>
      <point x="345" y="194" type="curve" smooth="yes"/>
      <point x="345" y="239"/>
      <point x="345" y="275"/>
      <point x="345" y="305" type="curve" smooth="yes"/>
      <point x="345" y="353"/>
      <point x="345" y="343"/>
      <point x="286" y="343" type="curve" smooth="yes"/>
      <point x="202" y="343"/>
      <point x="136" y="343"/>
      <point x="80" y="343" type="curve" smooth="yes"/>
      <point x="13" y="343"/>
      <point x="13" y="433"/>
    </contour>
  </outline>
</glyph>
